<svg width="416" height="303" viewBox="0 0 416 303" fill="none" xmlns="http://www.w3.org/2000/svg">
<g clip-path="url(#clip0_1_1044)">
<path opacity="0.1" d="M132.706 11.9867C143.93 1.99972 161.542 -0.0476069 177.571 0.747508C227.924 3.24808 273.376 27.5586 312.69 55.0572C326.925 65.0096 340.938 75.7379 350.176 89.4468C368.997 117.349 363.404 156.01 337.254 178.995C328.354 186.819 317.568 192.823 306.494 198.128C286.805 207.581 265.559 215.167 243.215 217.333C227.279 218.87 211.146 217.621 195.305 215.474C151.044 209.463 107.597 196.188 71.1828 173.498C55.2114 163.535 40.1542 151.155 33.5705 135.037C26.9868 118.92 31.2005 98.5042 47.5099 88.9667C54.2549 85.0219 62.3213 83.2396 70.2148 81.5687C81.8381 79.1065 93.6457 76.6789 104.136 71.6739C114.968 66.5038 127.793 56.5015 125.646 45.0588C123.349 32.7595 121.502 21.9736 132.706 11.9867Z" fill="#EF5B59"/>
<path opacity="0.1" d="M326.668 275.238C349.889 275.238 368.713 274.031 368.713 272.542C368.713 271.053 349.889 269.845 326.668 269.845C303.447 269.845 284.623 271.053 284.623 272.542C284.623 274.031 303.447 275.238 326.668 275.238Z" fill="#EF5B59"/>
<path opacity="0.1" d="M217.384 257.193C240.605 257.193 259.429 255.985 259.429 254.496C259.429 253.007 240.605 251.8 217.384 251.8C194.163 251.8 175.339 253.007 175.339 254.496C175.339 255.985 194.163 257.193 217.384 257.193Z" fill="#EF5B59"/>
<path opacity="0.1" d="M63.0243 299.968C86.245 299.968 105.069 298.76 105.069 297.271C105.069 295.782 86.245 294.575 63.0243 294.575C39.8035 294.575 20.9792 295.782 20.9792 297.271C20.9792 298.76 39.8035 299.968 63.0243 299.968Z" fill="#EF5B59"/>
<path opacity="0.1" d="M142.92 302.618C152.475 302.618 160.22 302.121 160.22 301.508C160.22 300.895 152.475 300.398 142.92 300.398C133.365 300.398 125.619 300.895 125.619 301.508C125.619 302.121 133.365 302.618 142.92 302.618Z" fill="#EF5B59"/>
<path opacity="0.1" d="M402.169 273.79C409.617 273.79 415.651 273.403 415.651 272.926C415.651 272.449 409.617 272.062 402.169 272.062C394.721 272.062 388.687 272.449 388.687 272.926C388.687 273.403 394.721 273.79 402.169 273.79Z" fill="#EF5B59"/>
<path opacity="0.1" d="M278.427 255.649C284.74 255.649 289.858 255.32 289.858 254.915C289.858 254.51 284.74 254.181 278.427 254.181C272.114 254.181 266.996 254.51 266.996 254.915C266.996 255.32 272.114 255.649 278.427 255.649Z" fill="#EF5B59"/>
<path d="M404.109 252.184C404.109 252.184 405.914 254.546 403.279 258.111C400.644 261.676 398.462 264.683 399.342 266.903C399.342 266.903 403.325 260.285 406.563 260.193C409.801 260.101 407.677 256.167 404.109 252.184Z" fill="#EF5B59"/>
<path opacity="0.1" d="M404.109 252.184C404.27 252.412 404.401 252.662 404.493 252.925C407.654 256.64 409.337 260.105 406.298 260.193C403.467 260.274 400.072 265.336 399.258 266.615C399.284 266.713 399.315 266.809 399.354 266.903C399.354 266.903 403.337 260.285 406.575 260.193C409.813 260.101 407.677 256.167 404.109 252.184Z" fill="black"/>
<path d="M407.47 255.192C407.47 256.025 407.378 256.697 407.262 256.697C407.147 256.697 407.055 256.025 407.055 255.192C407.055 254.358 407.17 254.754 407.285 254.754C407.401 254.754 407.47 254.362 407.47 255.192Z" fill="#FFD037"/>
<path d="M408.622 256.186C407.892 256.571 407.259 256.824 407.201 256.724C407.143 256.624 407.693 256.217 408.422 255.818C409.152 255.418 408.864 255.71 408.918 255.818C408.972 255.925 409.352 255.787 408.622 256.186Z" fill="#FFD037"/>
<path d="M394.579 252.184C394.579 252.184 392.774 254.546 395.413 258.111C398.051 261.676 400.225 264.683 399.346 266.903C399.346 266.903 395.366 260.285 392.125 260.193C388.883 260.101 391.014 256.167 394.579 252.184Z" fill="#EF5B59"/>
<path opacity="0.1" d="M394.579 252.184C394.418 252.411 394.287 252.661 394.195 252.925C391.034 256.64 389.347 260.105 392.386 260.193C395.217 260.274 398.616 265.336 399.426 266.615C399.4 266.713 399.369 266.809 399.33 266.903C399.33 266.903 395.351 260.285 392.109 260.193C388.867 260.101 391.014 256.167 394.579 252.184Z" fill="black"/>
<path d="M391.222 255.192C391.222 256.025 391.314 256.697 391.429 256.697C391.545 256.697 391.641 256.025 391.641 255.192C391.641 254.358 391.521 254.754 391.406 254.754C391.291 254.754 391.222 254.362 391.222 255.192Z" fill="#FFD037"/>
<path d="M390.07 256.186C390.799 256.571 391.437 256.824 391.491 256.724C391.545 256.624 390.999 256.217 390.269 255.818C389.539 255.418 389.828 255.71 389.774 255.818C389.72 255.925 389.34 255.787 390.07 256.186Z" fill="#FFD037"/>
<path d="M391.817 266.596C391.817 266.596 396.864 266.442 398.386 265.359C399.907 264.276 406.148 262.981 406.529 264.718C406.909 266.454 414.111 273.356 408.415 273.402C402.718 273.449 395.174 272.515 393.653 271.593C392.132 270.671 391.817 266.596 391.817 266.596Z" fill="#A8A8A8"/>
<path opacity="0.2" d="M408.495 272.799C402.799 272.845 395.255 271.912 393.738 270.986C392.585 270.283 392.121 267.756 391.967 266.588H391.798C391.798 266.588 392.117 270.66 393.634 271.582C395.151 272.503 402.695 273.437 408.396 273.391C410.04 273.391 410.608 272.795 410.577 271.927C410.347 272.461 409.721 272.788 408.495 272.799Z" fill="black"/>
<path d="M280.455 237.18C280.455 237.18 281.992 239.197 279.741 242.247C277.49 245.297 275.623 247.87 276.376 249.772C276.376 249.772 279.779 244.11 282.553 244.01C285.326 243.91 283.497 240.584 280.455 237.18Z" fill="#EF5B59"/>
<path opacity="0.1" d="M280.455 237.18C280.589 237.376 280.695 237.589 280.77 237.814C283.459 240.991 284.915 243.96 282.307 244.029C279.887 244.098 276.979 248.431 276.284 249.526C276.307 249.609 276.335 249.691 276.368 249.772C276.368 249.772 279.771 244.11 282.545 244.01C285.318 243.91 283.497 240.584 280.455 237.18Z" fill="black"/>
<path d="M283.325 239.754C283.325 240.465 283.244 241.041 283.148 241.041C283.052 241.041 282.967 240.465 282.967 239.754C282.967 239.044 283.067 239.37 283.167 239.37C283.267 239.37 283.325 239.044 283.325 239.754Z" fill="#FFD037"/>
<path d="M284.312 240.603C283.686 240.941 283.159 241.148 283.094 241.06C283.029 240.972 283.517 240.63 284.139 240.292C284.761 239.954 284.523 240.2 284.565 240.292C284.608 240.384 284.934 240.261 284.312 240.603Z" fill="#FFD037"/>
<path d="M272.297 237.18C272.297 237.18 270.76 239.197 273.007 242.247C275.254 245.297 277.129 247.87 276.376 249.772C276.376 249.772 272.969 244.11 270.196 244.01C267.422 243.91 269.247 240.584 272.297 237.18Z" fill="#EF5B59"/>
<path opacity="0.1" d="M272.297 237.18C272.16 237.375 272.053 237.588 271.978 237.814C269.289 240.991 267.833 243.96 270.441 244.029C272.865 244.098 275.769 248.431 276.464 249.526C276.441 249.606 276.414 249.691 276.384 249.772C276.384 249.772 272.977 244.11 270.203 244.01C267.43 243.91 269.247 240.584 272.297 237.18Z" fill="black"/>
<path d="M269.423 239.754C269.423 240.465 269.504 241.041 269.604 241.041C269.704 241.041 269.781 240.465 269.781 239.754C269.781 239.044 269.681 239.37 269.581 239.37C269.481 239.37 269.423 239.044 269.423 239.754Z" fill="#FFD037"/>
<path d="M268.44 240.603C269.062 240.941 269.592 241.148 269.654 241.06C269.715 240.972 269.235 240.63 268.609 240.292C267.983 239.954 268.225 240.2 268.183 240.292C268.141 240.384 267.814 240.261 268.44 240.603Z" fill="#FFD037"/>
<path d="M269.915 249.511C269.915 249.511 274.233 249.376 275.535 248.45C276.837 247.525 282.18 246.415 282.503 247.901C282.825 249.388 288.99 255.295 284.116 255.334C279.241 255.372 272.788 254.566 271.49 253.797C270.192 253.029 269.915 249.511 269.915 249.511Z" fill="#A8A8A8"/>
<path opacity="0.2" d="M284.204 254.815C279.326 254.857 272.873 254.047 271.575 253.279C270.587 252.676 270.192 250.513 270.061 249.514H269.915C269.915 249.514 270.188 252.994 271.49 253.786C272.792 254.577 279.241 255.376 284.116 255.322C285.522 255.322 286.009 254.811 285.983 254.07C285.802 254.546 285.249 254.807 284.204 254.815Z" fill="black"/>
<g opacity="0.8">
<path opacity="0.8" d="M56.767 239.424C62.4473 239.426 67.9993 241.112 72.7212 244.269C77.4431 247.427 81.1229 251.913 83.2954 257.162C85.468 262.41 86.0357 268.185 84.9268 273.755C83.8178 279.327 81.0818 284.444 77.0651 288.46C73.0484 292.476 67.9309 295.211 62.3597 296.319C56.7886 297.428 51.0142 296.859 45.7661 294.686C40.5179 292.513 36.032 288.833 32.8753 284.11C29.7187 279.388 28.0331 273.835 28.0316 268.155C28.029 264.381 28.7706 260.643 30.2139 257.156C31.6571 253.669 33.7737 250.5 36.4426 247.832C39.1113 245.163 42.2802 243.047 45.7676 241.604C49.2553 240.162 52.9928 239.421 56.767 239.424Z" fill="#E74D89"/>
<path opacity="0.8" d="M56.7671 298.915C50.6831 298.908 44.7374 297.098 39.6821 293.713C34.6266 290.328 30.6879 285.521 28.3639 279.898C26.0398 274.276 25.4347 268.09 26.625 262.124C27.8153 256.157 30.7476 250.678 35.0512 246.377C39.3548 242.077 44.8369 239.148 50.8041 237.963C56.7713 236.777 62.9563 237.387 68.5774 239.715C74.1981 242.043 79.0026 245.985 82.3839 251.043C85.7649 256.102 87.5706 262.049 87.5729 268.132C87.5656 276.298 84.3172 284.127 78.5409 289.899C72.7646 295.671 64.9329 298.914 56.7671 298.915ZM82.7369 272.346C77.4189 270.795 71.8297 270.402 66.3468 271.194C68.5927 277.282 70.3059 283.554 71.4671 289.939C74.4543 287.938 76.9968 285.344 78.9358 282.317C80.8748 279.29 82.1688 275.896 82.7369 272.346ZM67.0459 292.366C65.8095 285.563 63.9315 278.891 61.4379 272.442C61.3849 272.468 61.3276 272.483 61.2689 272.488C46.4191 277.662 41.0991 287.941 40.6189 288.901C45.2291 292.493 50.9074 294.442 56.7517 294.437C60.284 294.461 63.7833 293.756 67.0306 292.366H67.0459ZM37.2272 285.748C37.8265 284.738 45.0478 272.803 58.6223 268.398C58.9565 268.278 59.3176 268.182 59.6556 268.086C59.0064 266.592 58.2843 265.102 57.5122 263.634C44.3756 267.556 31.6192 267.387 30.463 267.364C30.463 267.629 30.44 267.894 30.44 268.156C30.4476 274.657 32.8659 280.925 37.2272 285.748ZM31.0161 262.789C39.2246 262.753 47.3959 261.678 55.3343 259.59C52.3586 254.356 49.1044 249.287 45.5855 244.402C41.903 246.135 38.6715 248.696 36.1438 251.886C33.6161 255.076 31.8612 258.808 31.0161 262.789ZM50.6059 242.624C54.2146 247.523 57.4953 252.656 60.4277 257.988C69.7885 254.477 73.7333 249.18 74.2173 248.508C69.4086 244.237 63.1986 241.882 56.7671 241.89C54.6917 241.905 52.6244 242.156 50.6059 242.639V242.624ZM77.1289 251.55C76.5758 252.299 72.17 257.953 62.4481 261.921C63.0473 263.174 63.6504 264.449 64.2035 265.724C64.3955 266.181 64.5876 266.638 64.7835 267.072C73.5413 265.962 82.2299 267.745 83.098 267.914C83.0331 261.937 80.927 256.162 77.1289 251.546V251.55Z" fill="#B2215A"/>
</g>
<path d="M128.001 180.474C127.306 179.602 126.514 173.606 126.514 173.606L123.441 158.326L121.851 149.522C121.851 149.522 121.467 138.402 114.507 132.886L113.965 132.46C113.965 132.36 113.965 132.264 113.965 132.164C113.902 131.09 113.667 130.033 113.27 129.033C113.102 128.71 113.016 128.35 113.02 127.985C113.038 127.841 113.085 127.703 113.159 127.578C113.485 127.131 113.915 126.77 114.411 126.525C115.675 125.757 116.75 124.547 117.042 123.114C117.04 123.082 117.04 123.051 117.042 123.018C117.042 122.957 117.042 122.892 117.069 122.826C117.096 122.761 117.069 122.757 117.069 122.719C117.073 122.652 117.073 122.586 117.069 122.519V122.434C117.069 122.358 117.069 122.277 117.069 122.196C117.067 122.18 117.067 122.163 117.069 122.146C117.069 122.058 117.05 121.966 117.034 121.877V121.858C116.965 121.339 116.765 120.845 116.454 120.423C116.142 120.001 115.728 119.665 115.252 119.446C115.425 119.405 115.586 119.324 115.723 119.21C115.859 119.096 115.968 118.952 116.04 118.789C116.087 118.695 116.124 118.596 116.151 118.493C116.177 118.398 116.194 118.3 116.201 118.201C116.201 118.201 116.201 118.171 116.201 118.155C116.207 118.071 116.207 117.986 116.201 117.902C116.201 117.875 116.201 117.848 116.201 117.821C116.189 117.737 116.171 117.653 116.147 117.572C116.149 117.55 116.149 117.528 116.147 117.506L116.124 117.452C115.867 116.715 115.256 116.146 114.73 115.555C111.695 112.156 111.108 107.373 110.282 102.941C109.825 100.482 108.96 97.6822 106.579 96.7488C105.906 96.5356 105.221 96.3612 104.528 96.2264C102.415 95.6656 100.687 94.1906 98.62 93.4685C97.2245 92.9895 95.7318 92.8643 94.2757 93.1036C93.1656 93.2879 92.236 93.8334 91.1644 94.0907C88.8597 94.6554 86.0633 94.0254 84.2503 95.8884C82.9789 97.1828 82.879 99.1572 82.2529 100.843C81.0699 103.974 77.997 106.252 77.2019 109.505C76.691 111.602 77.2211 113.73 77.778 115.839C78.1975 117.256 78.4806 118.709 78.6231 120.18C78.6442 120.551 78.6442 120.923 78.6231 121.294C78.5409 122.377 78.2962 123.441 77.8971 124.451C75.3005 125.411 72.6156 126.544 72.4158 127.182C72.0317 128.438 65.763 132.018 65.763 132.018C65.763 132.018 63.3815 134.05 63.3815 134.822C63.3815 135.594 62.5902 138.014 62.0909 138.014C61.5915 138.014 60.6043 147.782 60.6043 147.782V157.938C60.6043 157.938 56.9361 169.93 56.091 180.57C56.091 180.57 54.6083 187.365 57.0283 191.264C57.3448 191.793 57.7488 192.264 58.2228 192.658L59.4597 195.888C59.8949 195.162 60.4476 194.513 61.096 193.968C61.1575 194.371 61.2266 194.844 61.3111 195.37C61.4148 196.03 61.5377 196.779 61.6952 197.582C60.927 198.785 59.0717 201.3 56.8439 202.242C54.785 203.11 57.4661 205.407 59.3176 206.747C58.8259 209.194 58.1153 212.198 57.5391 212.59C56.5443 213.266 53.3715 221.778 53.3715 221.778C53.3715 221.778 47.122 236.374 56.1025 238.026C65.0831 239.677 69.6617 235.802 69.6617 235.802H71.8128C71.8128 235.802 74.4286 234.327 74.5015 231.277C75.965 230.071 78.2121 228.158 78.6692 227.386C79.1263 226.614 77.8664 224.101 77.0674 222.73L77.2787 222.346C77.2787 222.346 85.8175 211.418 86.9084 212.578C87.9993 213.738 88.6945 215.574 88.199 216.738L88.6676 223.433V233.877C88.6676 233.877 87.4423 238.617 88.6676 239.101C89.8929 239.585 88.6676 241.406 88.6676 241.406C88.6676 241.406 89.1247 243.534 89.2092 244.21C89.253 245.08 89.253 245.952 89.2092 246.822L88.7982 257.27L88.0031 272.742C88.0031 272.742 87.112 274.002 87.8072 274.87C88.5025 275.738 88.1913 277.774 88.0031 278.158C87.8149 278.542 87.7073 281.738 87.7073 281.738C87.7073 281.738 84.8265 284.734 87.112 285.51L87.2003 285.536C86.2554 286.412 86.2439 288.383 86.3169 288.993C86.3898 289.604 85.71 292.066 85.1991 293.461C85.0969 293.815 84.9387 294.151 84.7305 294.456C84.3809 294.701 84.7305 297.409 84.7305 297.409C84.7305 297.409 95.8928 298.327 96.8377 297.409C97.2218 297.052 97.1258 296.184 96.8569 295.182C96.4282 293.727 95.8571 292.318 95.1515 290.975C94.5023 289.769 94.8058 288.221 94.8058 288.221V287.069C95.5548 287.188 96.0426 287.257 96.0426 287.257C96.0426 287.257 97.4331 286.105 96.8377 285.033C96.2423 283.962 97.9286 277.977 97.9286 277.977C97.9286 277.977 99.8146 271.205 99.8146 270.529C99.8146 269.853 102.296 261.053 102.296 261.053C102.296 261.053 105.968 245.481 104.182 238.129C104.182 238.129 105.768 236.293 105.569 235.825C105.369 235.356 104.908 233.309 105.588 232.441C106.268 231.572 109.145 220.737 109.94 218.901C110.305 218.052 111.219 215.709 112.095 213.423C116.047 212.832 120.756 211.741 120.756 211.741C120.756 211.741 120.053 208.748 119.531 205.691L119.961 203.59L120.115 202.864C120.47 203.213 120.786 203.599 121.056 204.016L121.847 200.148C121.847 200.148 121.936 200.014 122.085 199.764C123.011 198.316 126.384 193.111 128.001 191.533C129.887 189.662 128.7 181.342 128.001 180.474Z" fill="url(#paint0_linear_1_1044)"/>
<path d="M103.921 115.762H92.9735V128.054H103.921V115.762Z" fill="#925978"/>
<path opacity="0.1" d="M103.921 115.762H92.9735V128.054H103.921V115.762Z" fill="black"/>
<path d="M76.933 221.682C76.933 221.682 79.7178 226.099 79.0456 227.251C78.3734 228.404 73.7717 232.149 73.7717 232.149L72.412 222.93L76.933 221.682Z" fill="#FF6484"/>
<path d="M68.2904 235.894L70.3224 235.606H72.4043C72.4043 235.606 75.1699 234.015 75.0124 230.708C74.8549 227.401 75.0124 224.178 75.0124 224.178L68.2904 235.894Z" fill="#575988"/>
<path opacity="0.1" d="M68.2904 235.894L70.3224 235.606H72.4043C72.4043 235.606 75.1699 234.015 75.0124 230.708C74.8549 227.401 75.0124 224.178 75.0124 224.178L68.2904 235.894Z" fill="black"/>
<path d="M72.4043 190.856L60.8809 203.532C60.8809 203.532 59.5365 211.887 58.5762 212.559C57.6159 213.231 54.5661 221.682 54.5661 221.682C54.5661 221.682 48.524 236.182 57.2088 237.814C65.8936 239.447 70.3147 235.606 70.3147 235.606L77.6897 222.258C77.6897 222.258 85.9519 211.406 87.0082 212.559C88.0646 213.711 88.7367 215.536 88.2566 216.688L88.706 223.314V233.685C88.706 233.685 87.523 238.39 88.706 238.871C89.8891 239.351 88.706 241.175 88.706 241.175C88.706 241.175 89.1516 243.288 89.2323 243.96C89.3129 244.632 89.2323 246.553 89.2323 246.553L88.8481 256.924L88.0799 272.288C88.0799 272.288 87.2157 273.537 87.8879 274.401C88.5601 275.265 88.272 277.282 88.0799 277.666C87.8879 278.05 87.7918 281.219 87.7918 281.219C87.7918 281.219 85.007 284.196 87.2157 284.964C89.4243 285.732 95.8582 286.693 95.8582 286.693C95.8582 286.693 97.2026 285.54 96.6264 284.484C96.0503 283.428 97.6827 277.474 97.6827 277.474C97.6827 277.474 99.5073 270.752 99.5073 270.08C99.5073 269.408 101.908 260.669 101.908 260.669C101.908 260.669 105.461 245.208 103.733 237.91C103.733 237.91 105.269 236.086 105.077 235.606C104.885 235.125 104.435 233.109 105.077 232.245C105.718 231.38 108.534 220.625 109.302 218.801C110.07 216.976 113.335 208.142 113.335 208.142V191.817L72.4043 190.856Z" fill="#575988"/>
<path d="M106.805 132.951L100.176 145.477L98.4279 148.773L98.1629 149.276L81.0699 149.948C81.0699 149.948 80.582 148.869 79.8906 147.194C78.6961 144.294 76.8907 139.6 75.9804 135.64C75.7553 134.693 75.5882 133.732 75.481 132.763C75.2275 130.366 75.6116 128.657 77.1481 128.511C77.5364 128.476 77.9274 128.517 78.3004 128.63C79.3686 128.946 80.4872 129.054 81.5961 128.949C85.6523 128.457 86.8392 124.175 87.039 120.149C87.039 119.865 87.0659 119.581 87.0697 119.3C87.0697 118.428 87.0697 117.583 87.0121 116.807C86.9353 115.491 86.7839 114.181 86.5588 112.882C87.5741 112.385 88.6369 111.992 89.7316 111.71C92.9735 110.88 97.5406 110.903 97.6021 117.587C97.5952 119.068 97.7419 120.546 98.04 121.997C98.2128 122.824 98.4905 123.625 98.8658 124.382C99.9913 126.544 101.555 126.779 102.288 126.752C102.424 126.752 102.559 126.738 102.692 126.71L106.805 132.951Z" fill="#FFC5CB"/>
<path opacity="0.1" d="M89.7431 140.204C89.9798 140.884 90.1004 141.599 90.1004 142.32C90.173 143.079 90.1549 143.843 90.0466 144.598C89.9371 145.361 89.5584 146.06 88.9788 146.568" fill="black"/>
<path opacity="0.1" d="M94.5791 122.972C100.254 122.972 104.854 118.372 104.854 112.697C104.854 107.022 100.254 102.422 94.5791 102.422C88.9042 102.422 84.3041 107.022 84.3041 112.697C84.3041 118.372 88.9042 122.972 94.5791 122.972Z" fill="black"/>
<path d="M104.85 112.313C104.851 114.378 104.23 116.395 103.067 118.102C101.904 119.808 100.254 121.124 98.3315 121.879C96.409 122.633 94.3041 122.791 92.2913 122.33C90.2782 121.871 88.4506 120.815 87.0467 119.3C86.9572 119.209 86.8723 119.113 86.7931 119.012C85.7119 117.757 84.9502 116.258 84.5734 114.645C84.1965 113.031 84.2154 111.35 84.6291 109.746C85.0424 108.141 85.8382 106.661 86.9479 105.43C88.0576 104.2 89.4485 103.256 91.0023 102.679C92.5556 102.103 94.2253 101.911 95.8693 102.12C97.513 102.328 99.0821 102.932 100.442 103.878C101.802 104.824 102.913 106.086 103.68 107.555C104.447 109.024 104.847 110.656 104.846 112.313H104.85Z" fill="#FFC5CB"/>
<path opacity="0.1" d="M78.0853 137.945C78.0853 137.945 81.7344 147.452 89.4166 145.915C89.4166 145.915 97.1719 146.522 101.612 140.826C106.053 135.129 106.318 173.475 106.318 173.475L104.589 198.923C104.589 198.923 92.2091 206.317 86.8316 205.357C81.454 204.396 78.8612 201.516 78.8612 201.516C78.8612 201.516 73.1956 196.234 71.6591 195.562C70.1227 194.89 72.3313 162.144 72.3313 162.144L74.1558 149.852L78.0853 137.945Z" fill="black"/>
<path d="M78.0853 137.177C78.0853 137.177 81.7344 146.684 89.4166 145.147C89.4166 145.147 97.1719 145.754 101.612 140.058C106.053 134.361 106.318 172.707 106.318 172.707L104.589 198.155C104.589 198.155 92.2091 205.549 86.8316 204.589C81.454 203.628 78.8612 200.747 78.8612 200.747C78.8612 200.747 73.1956 195.466 71.6591 194.794C70.1227 194.121 72.3313 161.376 72.3313 161.376L74.1558 149.084L78.0853 137.177Z" fill="#E8F4FF"/>
<path opacity="0.1" d="M77.7012 190.856C77.7012 190.856 85.9596 200.075 85.4795 201.035C84.9993 201.996 77.5091 193.641 77.7012 190.856Z" fill="black"/>
<path opacity="0.1" d="M76.28 167.933C76.28 167.933 78.9188 171.62 80.5705 171.236L76.28 167.933Z" fill="black"/>
<path opacity="0.1" d="M81.9841 128.63C81.9841 128.63 81.9841 128.742 81.9572 128.949C81.8688 130.128 81.5385 134.403 81.0929 139.166C80.8433 141.855 80.559 144.675 80.2671 147.194C79.7908 151.293 79.2838 154.573 78.8536 155.038C77.6052 156.382 78.0853 169.058 78.0853 169.058V185.095C78.0853 185.095 77.0329 190.184 76.1648 191.337C75.2967 192.489 73.1764 196.81 71.4786 197.386C70.8813 197.714 70.3447 198.141 69.8922 198.65C68.3557 200.187 66.1817 202.749 64.5146 204.769C63.1395 206.455 62.1216 207.757 62.1216 207.757C62.1216 207.757 55.3996 203.532 58.2805 202.284C60.4353 201.35 62.2176 198.854 62.9743 197.675C63.2317 197.29 63.3584 197.018 63.3584 197.018C63.4944 196.123 63.6988 195.239 63.9692 194.375C64.2131 193.56 64.5715 192.784 65.0332 192.07C65.3846 191.476 65.9558 191.044 66.6234 190.868C69.1201 190.388 70.3685 166.669 70.3685 166.669L62.6862 149.906L61.918 148.231C61.918 148.231 62.8783 138.533 63.3584 138.533C63.8386 138.533 64.6068 136.132 64.6068 135.364C64.6068 134.595 66.9115 132.579 66.9115 132.579C66.9115 132.579 73.0035 129.014 73.3876 127.766C73.5912 127.109 76.3837 125.922 78.9841 124.947C81.3196 124.071 83.4975 123.364 83.4975 123.364C84.7689 125.3 81.9841 128.63 81.9841 128.63Z" fill="black"/>
<path d="M81.5999 128.63C81.5999 128.63 81.5999 128.742 81.5731 128.949C81.4847 130.128 81.1544 134.403 80.7088 139.166C80.4591 141.855 80.1749 144.675 79.883 147.194C79.4067 151.293 78.8996 154.573 78.4694 155.038C77.2211 156.382 77.7012 169.058 77.7012 169.058V185.095C77.7012 185.095 76.6487 190.184 75.7806 191.337C74.9125 192.489 72.7922 196.81 71.0945 197.386C70.4972 197.714 69.9606 198.141 69.5081 198.65C67.9716 200.187 65.7975 202.749 64.1305 204.769C62.7554 206.455 61.7375 207.757 61.7375 207.757C61.7375 207.757 55.0155 203.532 57.8963 202.284C60.0512 201.35 61.8335 198.854 62.5902 197.675C62.8476 197.29 62.9743 197.018 62.9743 197.018C63.1103 196.123 63.3146 195.239 63.5851 194.375C63.829 193.56 64.1873 192.784 64.649 192.07C65.0005 191.476 65.5717 191.044 66.2393 190.868C68.736 190.388 69.9844 166.669 69.9844 166.669L62.3021 149.906L61.5339 148.231C61.5339 148.231 62.4942 138.533 62.9743 138.533C63.4545 138.533 64.2227 136.132 64.2227 135.364C64.2227 134.595 66.5274 132.579 66.5274 132.579C66.5274 132.579 72.6194 129.014 73.0035 127.766C73.2071 127.109 75.9996 125.922 78.6 124.947C80.9354 124.071 83.1134 123.364 83.1134 123.364C84.3848 125.3 81.5999 128.63 81.5999 128.63Z" fill="#FF6484"/>
<path opacity="0.1" d="M119.796 150.694L111.503 160.416C111.503 160.416 118.705 197.771 117.841 199.499C117.775 199.643 117.732 199.796 117.714 199.952C117.626 200.848 117.642 201.75 117.764 202.641C117.864 203.582 118.018 204.627 118.191 205.668C118.698 208.702 119.377 211.676 119.377 211.676C119.377 211.676 109.679 213.98 106.702 213.692C103.725 213.404 105.453 208.603 105.934 206.394C106.414 204.185 102.669 201.093 102.669 201.093L97.387 179.41C97.387 179.41 97.0029 174.609 95.8505 172.304C94.6982 169.999 95.7545 167.503 95.3704 164.238C95.0977 161.91 96.7724 153.59 98.0361 148.754C98.5163 146.914 98.9388 145.581 99.1885 145.27C99.1992 145.253 99.2123 145.238 99.2269 145.224C99.9951 144.552 99.2269 140.615 99.2269 140.615C99.2269 140.615 101.051 130.244 100.859 129.379C100.752 128.888 101.355 127.682 101.896 126.733C102.307 126.014 102.684 125.442 102.684 125.442C102.684 125.442 106.398 127.797 112.767 132.944L113.343 133.412C120.065 138.886 120.449 149.929 120.449 149.929L119.796 150.694Z" fill="black"/>
<path d="M120.18 150.694L111.887 160.416C111.887 160.416 119.089 197.771 118.225 199.499C118.159 199.643 118.116 199.796 118.098 199.952C118.01 200.848 118.026 201.75 118.148 202.641C118.248 203.582 118.402 204.627 118.575 205.668C119.082 208.702 119.762 211.676 119.762 211.676C119.762 211.676 110.063 213.98 107.086 213.692C104.109 213.404 105.837 208.603 106.318 206.394C106.798 204.185 103.053 201.093 103.053 201.093L97.7711 179.41C97.7711 179.41 97.387 174.609 96.2347 172.304C95.0823 169.999 96.1386 167.503 95.7545 164.238C95.4818 161.91 97.1565 153.59 98.4203 148.754C98.9004 146.914 99.3229 145.581 99.5726 145.27C99.5834 145.253 99.5964 145.238 99.611 145.224C100.379 144.552 99.611 140.615 99.611 140.615C99.611 140.615 101.436 130.244 101.243 129.379C101.136 128.888 101.739 127.682 102.281 126.733C102.692 126.014 103.068 125.442 103.068 125.442C103.068 125.442 106.782 127.797 113.151 132.944L113.727 133.412C120.449 138.886 120.833 149.929 120.833 149.929L120.18 150.694Z" fill="#FF6484"/>
<path opacity="0.1" d="M102.669 155.902C102.573 156.671 104.973 197.483 107.47 199.883L102.669 155.902Z" fill="black"/>
<path d="M70.2917 212.655C67.6029 214.345 65.5517 209.897 64.1459 204.769C63.489 202.361 62.9935 199.802 62.6094 197.659C62.4673 196.86 62.3482 196.123 62.2483 195.462C61.9833 193.749 61.8642 192.627 61.8642 192.627L64.6913 192.059L67.818 191.433L68.2021 194.963L68.3826 196.564C68.3826 196.564 68.8743 197.379 69.535 198.65C71.3902 202.368 74.54 210.008 70.2917 212.655Z" fill="#FFC5CB"/>
<path d="M119.666 200.287L118.993 203.601L118.575 205.687L118.552 205.791C118.552 205.791 110.159 217.168 107.47 212.463C105.415 208.868 110.428 202.971 112.901 200.394C113.67 199.595 114.192 199.115 114.192 199.115L118.098 199.952L119.666 200.287Z" fill="#FFC5CB"/>
<path d="M96.6188 296.776C95.7046 297.686 84.9033 296.776 84.9033 296.776C84.9033 296.776 84.5653 294.087 84.9033 293.845C85.1069 293.541 85.2602 293.206 85.3566 292.854C85.8521 291.452 86.5089 289.013 86.4398 288.421C86.3437 287.607 86.3937 284.342 88.5985 284.58C88.5985 284.58 91.4793 278.722 94.6521 285.924V287.653C94.4938 288.578 94.6098 289.529 94.9863 290.388C95.67 291.723 96.2231 293.122 96.638 294.563C96.8992 295.558 96.976 296.415 96.6188 296.776Z" fill="#FF6484"/>
<path d="M96.6188 296.776C95.7046 297.686 84.9033 296.776 84.9033 296.776C84.9033 296.776 84.5653 294.087 84.9033 293.845C85.1069 293.541 85.2602 293.207 85.3566 292.854C86.7855 292.243 88.7291 291.652 90.0888 292.166C91.8058 292.819 94.9748 293.964 96.6188 294.563C96.8992 295.558 96.976 296.415 96.6188 296.776Z" fill="#E8F4FF"/>
<path opacity="0.1" d="M87.0159 120.149C87.2887 121.247 87.6651 122.358 87.6804 123.479C87.7035 125.016 87.039 126.498 86.3322 127.881C85.5256 129.464 84.6152 131.161 84.8841 132.917C85.0297 133.582 85.221 134.237 85.4564 134.876C86.053 136.935 85.8586 139.144 84.911 141.068C84.281 142.339 82.9904 143.568 81.6115 143.157C81.5078 141.801 81.3387 140.323 80.6973 139.166C80.4438 138.697 80.0942 138.286 79.6717 137.96C78.673 137.192 77.294 137.031 76.3875 136.163C76.2247 136.007 76.0814 135.831 75.9612 135.64C75.5194 134.895 75.3308 134.028 75.4234 133.167C75.4234 133.036 75.4503 132.905 75.4733 132.782C75.6585 131.848 75.9711 130.943 76.4029 130.094C76.641 129.579 76.8907 129.064 77.1404 128.557C77.7181 127.409 78.2036 126.218 78.5923 124.993C80.9277 124.117 83.1057 123.41 83.1057 123.41C84.3848 125.331 81.5999 128.676 81.5999 128.676C81.5999 128.676 81.5999 128.788 81.5731 128.995C85.6293 128.457 86.8316 124.174 87.0159 120.149Z" fill="black"/>
<path opacity="0.1" d="M92.7699 105.699C91.6483 106.056 90.5767 106.77 90.0812 107.846C89.5511 109.037 89.8238 110.412 89.697 111.71C89.6682 111.995 89.6141 112.276 89.5357 112.551C89.0594 114.145 87.5652 115.271 86.9775 116.807C86.9353 116.923 86.8969 117.038 86.8623 117.161C86.7071 117.766 86.6798 118.396 86.7816 119.012C85.4084 117.414 84.5607 115.431 84.3529 113.335C84.1447 111.238 84.5872 109.127 85.6197 107.291C86.6526 105.454 88.2251 103.979 90.1246 103.067C92.024 102.155 94.1585 101.849 96.2377 102.191C98.3169 102.533 100.241 103.507 101.747 104.98C103.254 106.453 104.271 108.354 104.661 110.425C105.05 112.496 104.793 114.636 103.923 116.556C103.055 118.475 101.616 120.081 99.8031 121.155C100.237 119.861 100.694 118.57 101.048 117.249C101.877 114.142 102.019 110.55 100.064 107.996C99.2154 106.93 98.0676 106.142 96.7682 105.733C95.4683 105.323 94.0763 105.312 92.7699 105.699Z" fill="black"/>
<path opacity="0.1" d="M112.836 136.8C112.498 138.026 111.638 139.37 110.37 139.312C109.767 139.285 109.218 138.928 108.615 138.871C107.758 138.794 106.948 139.347 106.433 140.023C105.966 140.749 105.56 141.512 105.219 142.305C104.274 144.141 102.423 145.792 100.379 145.504L100.168 145.466C99.9586 145.424 99.7539 145.361 99.5572 145.278C97.725 144.509 96.734 142.151 96.7993 140.065C96.8761 137.688 97.871 135.437 98.1975 133.078C98.5009 130.904 98.2244 128.688 98.4587 126.506C98.5382 125.786 98.6669 125.073 98.8428 124.37C99.9682 126.533 101.532 126.767 102.265 126.74C102.676 126.022 103.053 125.45 103.053 125.45C103.053 125.45 106.767 127.804 113.136 132.951C113.28 134.242 113.178 135.548 112.836 136.8Z" fill="black"/>
<path d="M98.355 94.2829C100.349 95.0011 102.027 96.4646 104.071 97.0216C104.742 97.1537 105.405 97.3254 106.056 97.5363C108.361 98.462 109.198 101.243 109.64 103.682C110.435 108.084 111.008 112.832 113.942 116.208C114.465 116.807 115.072 117.383 115.314 118.129C115.556 118.874 115.229 119.903 114.449 120.068C115.786 120.633 116.443 122.285 116.162 123.71C115.882 125.135 114.841 126.31 113.616 127.094C113.043 127.478 112.352 127.862 112.275 128.538C112.271 128.901 112.354 129.259 112.517 129.583C113.309 131.637 113.423 133.889 112.844 136.013C112.506 137.234 111.645 138.583 110.378 138.525C109.775 138.498 109.225 138.141 108.626 138.083C107.766 138.006 106.959 138.56 106.441 139.236C105.973 139.961 105.567 140.724 105.227 141.517C104.286 143.353 102.434 145.005 100.387 144.717C98.0323 144.383 96.734 141.644 96.807 139.278C96.88 136.912 97.8825 134.649 98.209 132.291C98.5086 130.117 98.2321 127.9 98.4702 125.719C98.8159 122.523 100.241 119.554 101.071 116.45C101.9 113.346 102.039 109.751 100.083 107.197C99.2357 106.129 98.0876 105.338 96.787 104.927C95.4864 104.517 94.0929 104.504 92.7853 104.892C91.6599 105.249 90.592 105.964 90.0965 107.039C89.4512 108.491 90.0005 110.22 89.5473 111.745C89.0364 113.458 87.3463 114.633 86.8585 116.354C86.29 118.424 87.6267 120.529 87.6651 122.673C87.6882 124.209 87.0236 125.692 86.3207 127.075C85.5102 128.657 84.5999 130.355 84.8726 132.11C85.0166 132.776 85.2068 133.43 85.4411 134.069C86.0503 136.139 85.8613 138.362 84.911 140.3C84.2811 141.571 82.9674 142.8 81.6115 142.389C81.4617 140.488 81.1928 138.344 79.6717 137.192C78.6692 136.424 77.2902 136.263 76.3837 135.391C76.0107 134.992 75.7303 134.516 75.5625 133.997C75.3946 133.478 75.3431 132.928 75.4119 132.387C75.5563 131.306 75.8878 130.258 76.3914 129.291C77.4938 126.909 78.8344 124.536 78.988 121.916C79.2185 117.963 76.6833 114.069 77.6052 110.212C78.3734 106.985 81.3541 104.723 82.4834 101.604C83.0865 99.9293 83.1825 97.9665 84.404 96.6797C86.1709 94.8321 88.8712 95.4582 91.1068 94.9013C92.1439 94.6401 93.0273 94.1023 94.1182 93.9218C95.5379 93.6729 96.9979 93.7973 98.355 94.2829Z" fill="#925978"/>
<path opacity="0.1" d="M71.0829 176.253C71.0829 176.253 71.0829 184.895 71.0829 188.736C71.0829 189.251 71.0829 189.785 71.0522 190.323C70.9216 193.78 70.3954 197.379 70.3954 197.379C69.7808 196.473 69.041 195.66 68.1982 194.963C66.3583 193.515 64.7912 193.699 63.6119 194.36C63.1026 194.655 62.6413 195.027 62.2445 195.462C61.9795 193.749 61.8604 192.627 61.8604 192.627L64.6875 192.059C65.0389 191.465 65.6101 191.032 66.2777 190.857C68.7744 190.376 70.0228 166.657 70.0228 166.657L62.3405 149.895V149.077L64.9371 144.947C69.2584 141.202 70.3147 146.58 70.3147 146.58C70.3147 146.58 71.0829 161.176 71.0829 161.56C71.0829 161.944 71.0829 176.253 71.0829 176.253Z" fill="black"/>
<path d="M70.3147 175.396C70.3147 175.396 70.3147 184.038 70.3147 187.88C70.3147 188.394 70.3147 188.928 70.284 189.466C70.1534 192.923 69.6271 196.522 69.6271 196.522C64.2496 188.936 60.4545 195.984 60.4545 195.984L59.2561 192.777C58.7975 192.384 58.408 191.916 58.1038 191.394C55.7645 187.522 57.1972 180.773 57.1972 180.773C58.0154 170.21 61.5646 158.303 61.5646 158.303V148.22L64.1689 144.091C68.4902 140.346 70.3147 145.723 70.3147 145.723C70.3147 145.723 70.3147 160.319 70.3147 160.704C70.3147 161.088 70.3147 175.396 70.3147 175.396Z" fill="#FF6484"/>
<path opacity="0.1" d="M70.2917 189.082C70.1611 192.539 69.6348 196.138 69.6348 196.138C64.2573 188.552 60.4622 195.6 60.4622 195.6L59.2638 192.393C58.8052 192 58.4157 191.532 58.1115 191.01C60.6159 189.631 66.1356 187.088 70.2917 189.082Z" fill="black"/>
<path d="M70.2917 189.466C70.1611 192.923 69.6348 196.522 69.6348 196.522C64.2573 188.936 60.4622 195.984 60.4622 195.984L59.2638 192.777C58.8052 192.384 58.4157 191.916 58.1115 191.394C60.6159 190.015 66.1356 187.472 70.2917 189.466Z" fill="#FF6484"/>
<path opacity="0.1" d="M70.2917 189.466C70.1611 192.923 69.6348 196.522 69.6348 196.522C64.2573 188.936 60.4622 195.984 60.4622 195.984L59.2638 192.777C58.8052 192.384 58.4157 191.916 58.1115 191.394C60.6159 190.015 66.1356 187.472 70.2917 189.466Z" fill="white"/>
<path opacity="0.1" d="M63.0166 163.489C63.0166 163.489 64.7451 172.995 66.4736 175.78C68.2021 178.565 63.0166 163.489 63.0166 163.489Z" fill="black"/>
<path opacity="0.1" d="M58.5916 179.621C58.5916 179.621 59.6479 185.383 61.8565 186.055C64.0652 186.727 58.5916 179.621 58.5916 179.621Z" fill="black"/>
<path opacity="0.1" d="M118.098 199.952L119.666 200.286L118.993 203.601C118.738 203.265 118.456 202.95 118.148 202.66C116.726 201.303 114.865 200.499 112.901 200.394C112.048 200.339 111.191 200.393 110.351 200.555C110.716 199.251 110.958 197.914 111.073 196.564C111.141 196.057 111.057 195.541 110.831 195.082C110.063 194.025 109.679 184.231 109.679 184.231C109.679 184.231 110.351 179.237 110.735 178.277C111.119 177.317 109.006 172.408 109.102 170.925C109.198 169.442 110.351 156.67 110.351 155.998C110.351 155.326 112.848 142.17 118.033 147.164L120.05 149.948L120.18 150.694L111.887 160.416C111.887 160.416 119.089 197.771 118.225 199.499C118.159 199.642 118.116 199.795 118.098 199.952Z" fill="black"/>
<path d="M126.779 191.625C125.212 193.192 121.951 198.362 121.056 199.799L120.826 200.183L120.057 204.024C120.057 204.024 117.369 199.415 111.127 200.567C111.492 199.262 111.734 197.926 111.849 196.576C111.917 196.069 111.833 195.552 111.607 195.093C110.839 194.037 110.455 184.242 110.455 184.242C110.455 184.242 111.127 179.249 111.511 178.288C111.895 177.328 109.782 172.419 109.878 170.936C109.974 169.454 111.127 156.682 111.127 156.01C111.127 155.338 113.623 142.182 118.809 147.175L120.826 149.96L122.362 158.699L125.339 173.871C125.339 173.871 126.107 179.825 126.779 180.689C127.451 181.553 128.596 189.8 126.779 191.625Z" fill="#FF6484"/>
<path opacity="0.1" d="M121.048 199.415L120.818 199.799L120.05 203.64C120.05 203.64 117.361 199.03 111.119 200.183C111.485 198.878 111.726 197.542 111.841 196.192C113.981 196.326 118.29 196.929 121.048 199.415Z" fill="black"/>
<path d="M121.048 199.799L120.818 200.183L120.05 204.024C120.05 204.024 117.361 199.415 111.119 200.567C111.485 199.262 111.726 197.926 111.841 196.576C113.981 196.71 118.29 197.313 121.048 199.799Z" fill="#FF6484"/>
<path opacity="0.1" d="M121.048 199.799L120.818 200.183L120.05 204.024C120.05 204.024 117.361 199.415 111.119 200.567C111.485 199.262 111.726 197.926 111.841 196.576C113.981 196.71 118.29 197.313 121.048 199.799Z" fill="white"/>
<path opacity="0.1" d="M114.768 172.804C114.768 172.804 121.298 172.723 122.258 176.122C123.219 179.522 114.768 172.804 114.768 172.804Z" fill="black"/>
<path opacity="0.1" d="M113.52 182.406C113.52 182.406 124.563 181.926 124.083 186.727C123.603 191.529 113.52 182.406 113.52 182.406Z" fill="black"/>
<path opacity="0.1" d="M114.192 189.8C114.192 189.8 115.056 189.608 115.632 191.625C116.209 193.641 114.192 189.8 114.192 189.8Z" fill="black"/>
<path opacity="0.1" d="M91.825 236.758C91.825 236.758 94.4562 235.99 95.6662 236.758C96.8761 237.526 91.825 236.758 91.825 236.758Z" fill="black"/>
<path opacity="0.1" d="M92.2975 239.543C92.2975 239.543 98.5393 239.639 99.1155 240.311C99.6917 240.983 92.2975 239.543 92.2975 239.543Z" fill="black"/>
<g opacity="0.1">
<path opacity="0.1" d="M79.0033 120.764C79.1877 117.622 77.6397 114.522 77.4477 111.445C77.2479 114.549 78.8228 117.675 78.9841 120.84C78.9922 120.815 78.9987 120.79 79.0033 120.764Z" fill="black"/>
<path opacity="0.1" d="M86.3361 125.957C85.5371 127.517 84.646 129.184 84.8764 130.916C85.0416 129.599 85.7176 128.324 86.3361 127.114C87.039 125.731 87.7035 124.263 87.6843 122.712C87.6843 122.543 87.6728 122.374 87.6497 122.205C87.5153 123.518 86.9391 124.77 86.3361 125.957Z" fill="black"/>
<path opacity="0.1" d="M114.442 118.931C114.727 119.052 114.987 119.224 115.21 119.438C115.402 119.035 115.437 118.576 115.31 118.148C115.31 118.148 115.31 118.113 115.291 118.094C115.236 118.296 115.129 118.481 114.98 118.628C114.83 118.775 114.645 118.88 114.442 118.931Z" fill="black"/>
<path opacity="0.1" d="M84.911 139.144C84.2811 140.415 82.9674 141.644 81.6115 141.233C81.4617 139.332 81.1928 137.188 79.6717 136.036C78.6692 135.268 77.2902 135.107 76.3875 134.238C75.8467 133.688 75.5106 132.97 75.4349 132.203C75.4349 132.264 75.4157 132.326 75.4119 132.387C75.3427 132.929 75.3942 133.479 75.5628 133.998C75.7319 134.518 76.0134 134.993 76.3875 135.391C77.2902 136.263 78.6692 136.436 79.6717 137.192C81.2082 138.345 81.4617 140.488 81.6115 142.389C82.9674 142.8 84.2811 141.571 84.911 140.3C85.5678 138.95 85.8601 137.453 85.7599 135.955C85.6873 137.063 85.3988 138.146 84.911 139.144Z" fill="black"/>
<path opacity="0.1" d="M116.155 122.573C115.874 123.994 114.833 125.174 113.612 125.957C113.036 126.341 112.344 126.725 112.268 127.401C112.25 127.664 112.295 127.927 112.398 128.17C112.713 127.729 113.129 127.37 113.612 127.125C114.833 126.357 115.874 125.162 116.155 123.741C116.23 123.328 116.23 122.905 116.155 122.492C116.156 122.519 116.156 122.546 116.155 122.573Z" fill="black"/>
<path opacity="0.1" d="M112.836 134.876C112.498 136.098 111.641 137.446 110.37 137.388C109.767 137.361 109.218 137.004 108.618 136.946C107.758 136.87 106.951 137.423 106.433 138.099C105.966 138.824 105.561 139.587 105.223 140.38C104.278 142.216 102.427 143.868 100.383 143.58C98.3396 143.292 97.0298 141.091 96.83 138.936C96.83 139.055 96.8032 139.174 96.8032 139.297C96.7263 141.675 98.0246 144.402 100.383 144.736C102.427 145.024 104.278 143.373 105.223 141.537C105.56 140.743 105.965 139.98 106.433 139.255C106.951 138.567 107.758 138.014 108.618 138.103C109.218 138.16 109.771 138.517 110.37 138.544C111.641 138.602 112.498 137.254 112.836 136.032C113.133 134.95 113.249 133.826 113.178 132.706C113.143 133.439 113.028 134.167 112.836 134.876Z" fill="black"/>
<path opacity="0.1" d="M100.076 107.228C101.05 108.57 101.586 110.179 101.612 111.837C101.712 109.747 101.32 107.688 100.076 106.052C99.2281 104.984 98.0799 104.194 96.7793 103.783C95.4787 103.372 94.0852 103.36 92.7776 103.747C91.6522 104.105 90.5844 104.819 90.0889 105.895C89.4397 107.347 89.989 109.079 89.5357 110.6C89.0249 112.313 87.3348 113.489 86.8469 115.209C86.7048 115.761 86.671 116.335 86.7471 116.899C86.7678 116.719 86.8012 116.541 86.8469 116.366C87.3194 114.645 89.0095 113.469 89.5357 111.756C89.989 110.22 89.4397 108.503 90.0889 107.051C90.569 105.975 91.6253 105.261 92.7776 104.904C94.0871 104.518 95.4818 104.534 96.7828 104.948C98.0834 105.362 99.2304 106.156 100.076 107.228Z" fill="black"/>
</g>
<g opacity="0.8">
<path opacity="0.8" d="M218.125 254.5C235.139 254.5 248.931 240.708 248.931 223.694C248.931 206.681 235.139 192.888 218.125 192.888C201.112 192.888 187.319 206.681 187.319 223.694C187.319 240.708 201.112 254.5 218.125 254.5Z" fill="#1769FF"/>
<path opacity="0.8" d="M209.079 209.732C210.301 209.722 211.52 209.84 212.717 210.085C213.722 210.281 214.679 210.672 215.532 211.238C216.315 211.776 216.942 212.511 217.349 213.369C217.813 214.402 218.035 215.527 217.998 216.657C218.042 217.9 217.707 219.127 217.038 220.176C216.315 221.183 215.337 221.978 214.203 222.48C215.752 222.865 217.113 223.786 218.045 225.081C218.792 226.292 219.224 227.671 219.303 229.092C219.381 230.513 219.103 231.93 218.494 233.216C217.97 234.221 217.213 235.086 216.285 235.736C215.324 236.405 214.251 236.895 213.116 237.184C211.924 237.496 210.696 237.653 209.463 237.653H195.943V209.732H209.079ZM208.311 221.032C209.267 221.074 210.21 220.804 211 220.264C211.707 219.752 212.059 218.904 212.056 217.721C212.077 217.166 211.956 216.615 211.703 216.12C211.482 215.716 211.159 215.379 210.766 215.14C210.349 214.898 209.892 214.732 209.417 214.652C208.893 214.561 208.363 214.516 207.831 214.518H202.069V221.048L208.311 221.032ZM208.664 232.878C209.243 232.881 209.82 232.822 210.385 232.702C210.899 232.6 211.389 232.401 211.83 232.118C212.252 231.839 212.597 231.455 212.828 231.004C213.099 230.443 213.231 229.825 213.212 229.202C213.212 227.774 212.809 226.748 211.999 226.13C211.061 225.476 209.933 225.152 208.791 225.208H202.108V232.89L208.664 232.878ZM227.063 232.291C227.898 233.1 229.097 233.505 230.659 233.505C231.692 233.53 232.707 233.232 233.563 232.652C234.246 232.246 234.771 231.619 235.049 230.873H239.935C239.152 233.299 237.952 235.032 236.336 236.074C234.57 237.162 232.524 237.708 230.451 237.645C228.983 237.665 227.524 237.404 226.153 236.877C224.924 236.402 223.816 235.661 222.907 234.707C222.001 233.738 221.302 232.594 220.852 231.346C220.359 229.966 220.115 228.51 220.13 227.044C220.117 225.602 220.368 224.17 220.872 222.819C221.335 221.562 222.051 220.415 222.976 219.447C223.901 218.479 225.015 217.711 226.249 217.191C227.579 216.629 229.011 216.35 230.455 216.369C232.013 216.333 233.557 216.676 234.953 217.368C236.197 218.007 237.274 218.928 238.099 220.057C238.935 221.21 239.539 222.514 239.877 223.898C240.243 225.367 240.373 226.886 240.262 228.396H225.665C225.742 230.186 226.199 231.492 227.033 232.295L227.063 232.291ZM233.34 221.659C232.674 220.929 231.664 220.564 230.309 220.564C229.548 220.537 228.791 220.691 228.101 221.013C227.556 221.277 227.076 221.657 226.695 222.127C226.357 222.542 226.104 223.02 225.95 223.533C225.819 223.966 225.734 224.411 225.696 224.862H234.715C234.459 223.456 233.996 222.388 233.325 221.659H233.34ZM224.728 211.141H236.009V214.272H224.728V211.141Z" fill="white"/>
</g>
<g opacity="0.8">
<path opacity="0.8" d="M357.335 241.736C357.335 242.024 357.335 242.316 357.335 242.608C357.125 249.983 354.276 257.037 349.306 262.489C344.336 267.941 337.575 271.429 330.252 272.319C329.021 272.466 327.784 272.539 326.545 272.538C320.452 272.538 314.496 270.731 309.43 267.346C304.364 263.961 300.415 259.149 298.084 253.52C295.752 247.891 295.142 241.697 296.331 235.721C297.52 229.745 300.454 224.256 304.763 219.948C309.072 215.64 314.561 212.706 320.537 211.518C326.513 210.33 332.708 210.94 338.336 213.273C343.966 215.605 348.776 219.554 352.161 224.62C355.545 229.687 357.352 235.643 357.351 241.736H357.335Z" fill="#B3BBC6"/>
<path opacity="0.8" d="M357.32 242.608C357.11 249.983 354.261 257.037 349.291 262.489C344.321 267.941 337.56 271.429 330.236 272.319L305.085 253.609L308.227 233.251L320.664 234.019L327.74 239.95L332.771 231.749L341.222 238.771L345.766 242.024V231.757L357.22 242.358C357.247 242.443 357.289 242.524 357.32 242.608Z" fill="#666C76"/>
<path opacity="0.8" d="M324.325 242.493C324.325 235.963 320.311 231.538 312.667 231.538H305.119V253.517H312.824C320.245 253.517 324.325 249.023 324.325 242.493ZM318.843 242.527C318.843 247.24 316.424 249.28 312.54 249.28H310.562V235.775H312.54C316.266 235.775 318.843 237.906 318.843 242.527ZM346.016 253.517V231.538H340.949V243.829L332.86 231.538H327.571V253.513H332.637V240.361L341.299 253.513H346.016V253.517Z" fill="white"/>
</g>
<path d="M334.173 208.964C333.789 208.195 330.206 203.056 330.206 203.056L330.098 202.595L328.923 197.352L328.842 196.968C329.61 196.772 330.163 196.53 330.336 196.226C331.181 194.748 329.622 192.95 329.622 192.95L329.295 185.175L328.45 166.354C328.45 166.354 326.695 160.054 326.434 158.579C326.172 157.104 323.768 154.016 323.768 154.016C323.768 154.016 324.286 152.48 323.637 151.381C322.988 150.283 321.555 145.147 321.555 145.147L320.322 130.935L319.735 116.953C320.324 116.949 320.912 117.004 321.49 117.118C321.575 117.187 321.528 117.015 321.405 116.703C321.435 116.708 321.464 116.719 321.49 116.734C321.69 116.896 321.156 115.693 320.58 114.468L320.51 114.326C320.787 113.323 321.932 109.263 322.727 107.796C323.318 106.713 322.181 99.234 321.313 94.1253C321.252 93.7604 321.19 93.4109 321.133 93.0729C322.542 90.6069 324.16 87.8105 324.16 87.8105C324.16 87.8105 328.254 76.1181 329.944 71.0401C331.634 65.9622 329.944 52.7948 329.944 52.7948C329.944 52.7948 329.944 52.1495 329.852 51.1431C329.587 48.4236 328.573 43.1036 324.678 41.0371C319.347 38.2101 317.657 34.7415 317.657 34.7415C317.657 34.7415 311.004 28.6879 310.162 30.7199L310.105 30.6046C309.608 29.5886 309.243 28.5134 309.018 27.405C308.995 27.2897 308.976 27.1745 308.956 27.0631C309.806 26.3919 310.545 25.5908 311.146 24.6893C311.146 24.8583 311.119 25.0273 311.107 25.1963C311.107 25.3039 311.107 25.4114 311.107 25.5151V25.6611C311.104 25.7315 311.104 25.802 311.107 25.8723C311.107 25.9146 311.107 25.9569 311.107 25.9991C311.354 26.0231 311.601 25.9717 311.817 25.8516C312.033 25.7316 312.208 25.5485 312.317 25.3269C312.526 24.8835 312.664 24.4106 312.728 23.9249C312.953 22.8905 313.366 21.9062 313.946 21.021C314.515 20.1491 315.275 19.2733 315.375 18.2784C315.39 18.1329 315.39 17.9861 315.375 17.8405C315.325 17.3335 315.087 16.8611 315.014 16.3579C314.982 16.1027 314.982 15.8448 315.014 15.5896C315.014 15.4398 315.048 15.29 315.071 15.1441C315.095 14.9981 315.133 14.76 315.16 14.5449C315.187 14.3298 315.21 14.2107 315.229 14.0417V14.0225C315.283 13.5798 315.283 13.1322 315.229 12.6896C315.196 12.2804 315.066 11.885 314.849 11.5363C314.633 11.1875 314.337 10.8955 313.984 10.6845C313.6 10.4886 313.159 10.4272 312.774 10.2313C311.76 9.71272 311.438 8.46819 310.854 7.50791C310.439 6.86775 309.878 6.3356 309.217 5.95552C308.555 5.57544 307.813 5.35837 307.051 5.32231C305.515 5.26085 304.009 5.93305 302.499 5.70642C301.535 5.55277 300.648 5.03038 299.672 4.96124C298.247 4.86137 296.964 5.72947 295.808 6.56299C294.99 7.15068 294.118 7.8152 293.849 8.78316C293.634 9.57444 293.849 10.4848 293.404 11.1762C293.116 11.6256 292.593 11.883 292.271 12.3285C292.004 12.6829 291.868 13.1185 291.886 13.5615C291.886 13.5999 291.886 13.6422 291.886 13.6844C291.886 13.7267 291.886 13.8227 291.886 13.8919C291.913 14.1876 291.967 14.4872 292.017 14.7792C292.019 14.8099 292.019 14.8407 292.017 14.8714C292.132 15.6818 291.871 16.2503 291.579 17.0416C291.455 17.3752 291.385 17.7267 291.372 18.0825C291.372 18.0825 291.372 18.1171 291.372 18.1363C291.372 18.1555 291.372 18.1862 291.372 18.2131C291.368 18.2873 291.368 18.3617 291.372 18.4359C291.406 18.7121 291.527 18.9703 291.717 19.1734C291.813 19.0166 291.945 18.8849 292.102 18.7893C292.102 18.9045 292.102 19.0198 292.102 19.1388V19.1619C292.102 20.5159 292.375 21.856 292.903 23.103C293.431 24.3499 294.203 25.4784 295.174 26.4216C295.174 26.533 295.144 26.6483 295.128 26.7596C294.963 27.912 294.744 29.1796 294.479 30.3934L294.387 30.7775H292.466C292.466 30.7775 292.793 29.3639 289.605 31.1001C286.417 32.8363 282.514 33.6698 281.923 33.9887C281.331 34.3075 274.121 39.904 274.121 39.904C274.121 39.904 267.876 43.4993 268.071 49.6681L267.357 56.5821L266.838 69.496C266.838 69.496 265.863 80.4855 266.838 82.0258C267.814 83.5661 269.504 92.6926 269.178 93.8488C268.943 94.6861 271.298 100.571 272.934 104.001C272.495 104.464 272.088 104.957 271.717 105.476C271.717 105.476 271.064 108.049 271.064 108.307C271.064 108.307 271.064 108.334 271.094 108.349C269.654 109.809 267.357 112.209 267.357 112.739C267.357 113.508 267.814 114.18 267.1 114.134C266.385 114.088 266.362 114.925 266.404 115.436C266.447 115.947 265.536 115.182 265.602 116.143C265.667 117.103 258.968 132.206 258.968 132.206C258.968 132.206 255.914 139.597 254.743 140.818C253.571 142.04 251.946 147.436 252.077 149.426C252.208 151.416 252.273 152 251.75 152C251.228 152 250.191 153.797 250.191 153.797L245.055 169.604C245.055 169.604 243.557 174.486 243.104 174.424C242.651 174.363 241.629 182.813 241.629 182.813C241.629 182.813 240.527 185.318 240.331 185.318C240.292 185.318 240.473 185.498 240.807 185.782L240.584 185.971C240.101 186.384 239.595 186.769 239.067 187.123C239.048 187.123 236.098 185.076 234.074 185.268C232.049 185.46 227.897 185.971 225.811 184.499C224.659 183.677 222.228 182.963 220.272 182.932C218.713 182.909 217.449 183.316 217.361 184.499C217.165 187.131 224.448 192.082 224.448 192.082C224.448 192.082 232.13 194.264 233.616 196.307C235.103 198.351 241.245 201.446 241.245 201.446C241.245 201.446 243.093 200.632 243.788 199.814C243.871 199.736 243.936 199.641 243.98 199.536C244.024 199.431 244.045 199.317 244.041 199.203C243.911 198.239 246.576 194.594 246.576 194.594L246.961 192.785C247.149 191.89 247.387 190.799 247.621 189.842C247.652 189.712 247.683 189.584 247.713 189.458C248.018 189.474 248.323 189.427 248.608 189.32C251.209 188.294 251.47 185.479 251.47 185.479L255.361 177.34C255.361 177.34 257.051 172.65 257.57 171.812C258.088 170.975 262.122 162.563 262.122 162.563C262.122 162.563 262.836 158.964 263.489 157.873C264.142 156.782 264.203 154.416 264.203 154.416C264.203 154.416 265.567 150.817 267 149.403C268.031 148.294 268.926 147.065 269.665 145.742C269.665 145.742 275.581 136.424 279.614 133.793C279.614 133.793 289.305 121.97 289.889 120.94C290.473 119.911 292.294 117.214 294.498 119.653C296.703 122.093 299.046 125.246 299.046 125.246L303.018 136.04L307.439 149.868C307.439 149.868 309.517 153.206 309.39 153.913C309.264 154.619 312.771 160.919 312.771 160.919C312.771 160.919 314.134 163.223 313.877 164.376C313.62 165.528 314.853 166.68 314.853 166.68L315.237 171.37C315.237 171.37 316.669 175.98 316.278 176.706C315.886 177.432 317.645 181.845 317.645 181.845C317.645 181.845 317.645 185.763 318.294 187.05C318.943 188.337 319.735 193.472 319.669 193.856C319.604 194.241 319.669 197.778 319.669 197.778C319.669 197.778 320.126 197.778 320.852 197.755L320.883 198.139L321.206 202.007L321.236 202.365C321.062 202.499 320.919 202.67 320.816 202.864C320.713 203.059 320.654 203.274 320.641 203.494C320.641 204.539 320.795 207.608 320.925 210.024C320.956 210.665 320.991 211.257 321.021 211.752C321.032 211.925 321.077 212.094 321.155 212.249C321.233 212.404 321.342 212.542 321.475 212.653C321.609 212.764 321.763 212.847 321.929 212.896C322.096 212.945 322.271 212.96 322.443 212.939C324.292 212.706 326.167 212.776 327.993 213.147C330.017 213.611 332.1 213.764 334.17 213.6C334.17 213.6 334.312 212.152 334.335 210.853C334.354 210.024 334.323 209.259 334.173 208.964Z" fill="url(#paint1_linear_1_1044)"/>
<path d="M329.199 203.237H320.43L320.345 202.203L320.027 198.347L319.788 195.427H327.471L327.939 197.552L329.095 202.776L329.199 203.237Z" fill="#FFAAB0"/>
<path d="M248.597 187.741C248.432 187.903 248.159 188.875 247.882 190.046C247.387 192.105 246.868 194.782 246.868 194.782L246.546 194.859L239.709 196.511C239.709 196.511 236.125 188.318 237.788 188.126C238.374 188.003 238.928 187.757 239.413 187.403C239.961 187.04 240.486 186.642 240.984 186.213C241.894 185.444 242.589 184.73 242.589 184.73C242.589 184.73 249.046 187.292 248.597 187.741Z" fill="#FFAAB0"/>
<path opacity="0.1" d="M248.597 187.741C248.432 187.903 248.159 188.874 247.882 190.046C245.52 189.908 241.948 187.104 240.968 186.205C241.879 185.437 242.574 184.722 242.574 184.722C242.574 184.722 249.046 187.292 248.597 187.741Z" fill="black"/>
<path opacity="0.1" d="M327.935 197.548C325.83 198.116 321.97 198.289 320.023 198.343L319.785 195.424H327.467L327.935 197.548Z" fill="black"/>
<path d="M272.22 107.719C272.22 107.719 267.418 112.455 267.418 113.223C267.418 113.992 267.868 114.656 267.165 114.614C266.462 114.572 266.439 115.401 266.481 115.912C266.523 116.423 265.628 115.655 265.69 116.615C265.751 117.575 259.16 132.621 259.16 132.621C259.16 132.621 256.152 139.984 255 141.198C253.848 142.412 252.246 147.793 252.377 149.779C252.507 151.765 252.569 152.338 252.054 152.338C251.539 152.338 250.517 154.131 250.517 154.131L245.463 169.88C245.463 169.88 243.988 174.747 243.542 174.681C243.096 174.616 242.006 183.067 242.006 183.067C242.006 183.067 240.915 185.563 240.723 185.563C240.531 185.563 246.292 190.557 248.854 189.535C251.416 188.513 251.67 185.694 251.67 185.694L255.511 177.628C255.511 177.628 257.178 172.953 257.689 172.119C258.2 171.286 262.171 162.901 262.171 162.901C262.171 162.901 262.874 159.317 263.516 158.23C264.157 157.143 264.219 154.773 264.219 154.773C264.219 154.773 265.563 151.185 266.973 149.779C267.989 148.671 268.87 147.446 269.596 146.13C269.596 146.13 275.423 136.846 279.391 134.223C279.391 134.223 288.929 122.442 289.505 121.416C290.081 120.391 291.875 117.706 294.053 120.137C296.231 122.569 298.532 125.707 298.532 125.707L302.438 136.462L306.79 150.225C306.79 150.225 308.841 153.555 308.711 154.258C308.58 154.961 312.041 161.237 312.041 161.237C312.041 161.237 313.385 163.542 313.128 164.694C312.871 165.847 314.088 166.999 314.088 166.999L314.472 171.674C314.472 171.674 315.882 176.283 315.498 176.986C315.114 177.689 316.842 182.106 316.842 182.106C316.842 182.106 316.842 186.013 317.484 187.292C318.125 188.571 318.89 193.695 318.828 194.079C318.767 194.463 318.828 197.986 318.828 197.986C318.828 197.986 328.489 197.92 329.322 196.449C330.156 194.978 328.619 193.184 328.619 193.184L328.296 185.437L327.467 166.68C327.467 166.68 325.738 160.404 325.481 158.933C325.224 157.462 322.857 154.389 322.857 154.389C322.857 154.389 323.368 152.852 322.727 151.761C322.085 150.67 320.68 145.554 320.68 145.554L319.462 131.403L318.836 115.977L272.22 107.719Z" fill="#DCE6F2"/>
<path opacity="0.1" d="M320.618 117.641C320.234 117.318 304.485 117.191 304.293 117.191C304.101 117.191 298.147 114.821 298.147 114.821C298.147 114.821 284.896 112.647 282.848 113.607C280.801 114.568 274.459 111.814 274.459 111.814V110.596C274.459 110.596 271.068 109.444 271.068 109.19C271.068 108.937 271.709 106.371 271.709 106.371L272.093 106.236L273.56 105.733L318.567 112.966C318.567 112.966 319.162 114.187 319.719 115.382C320.276 116.577 320.814 117.802 320.618 117.641Z" fill="black"/>
<path d="M320.618 117.257C320.234 116.934 304.485 116.807 304.293 116.807C304.101 116.807 298.147 114.437 298.147 114.437C298.147 114.437 284.896 112.263 282.848 113.223C280.801 114.184 274.459 111.43 274.459 111.43V110.212C274.459 110.212 271.068 109.06 271.068 108.806C271.068 108.553 271.709 105.987 271.709 105.987L272.093 105.852L273.56 105.349L318.567 112.582C318.567 112.582 319.162 113.803 319.719 114.998C320.276 116.193 320.814 117.418 320.618 117.257Z" fill="#F1FAFF"/>
<path opacity="0.1" d="M247.233 192.589L246.849 194.398C246.849 194.398 246.722 194.575 246.527 194.859L239.709 196.511C239.709 196.511 236.125 188.318 237.788 188.125C238.374 188.003 238.928 187.756 239.413 187.403C239.063 189.969 241.053 192.67 241.053 192.67C243.861 194.782 247.233 192.589 247.233 192.589Z" fill="black"/>
<path d="M247.233 192.977L246.849 194.786C246.849 194.786 244.226 198.435 244.352 199.395C244.356 199.509 244.335 199.622 244.292 199.727C244.249 199.832 244.185 199.927 244.103 200.006C243.419 200.82 241.598 201.631 241.598 201.631C241.598 201.631 235.583 198.558 234.108 196.511C232.633 194.463 225.081 192.285 225.081 192.285C225.081 192.285 217.914 187.353 218.106 184.73C218.191 183.577 219.435 183.147 220.971 183.17C222.892 183.193 225.285 183.912 226.426 184.73C228.477 186.201 232.572 185.69 234.558 185.498C236.543 185.306 239.463 187.349 239.463 187.349C238.798 190.038 241.022 193.054 241.022 193.054C243.861 195.17 247.233 192.977 247.233 192.977Z" fill="#575988"/>
<path d="M244.122 200.002C243.438 200.817 241.618 201.627 241.618 201.627C241.618 201.627 235.602 198.554 234.127 196.507C232.652 194.46 225.101 192.282 225.101 192.282C225.101 192.282 217.933 187.35 218.125 184.726C218.21 183.574 219.454 183.144 220.991 183.167C222.143 185.087 223.845 187.757 225.101 188.502C227.152 189.72 231.185 192.024 231.185 192.024C231.185 192.024 237.584 196.057 238.034 196.507C238.403 196.879 242.109 199.33 244.122 200.002Z" fill="#F1FAFF"/>
<path opacity="0.1" d="M329.207 203.233H320.426L320.341 202.199C321.448 201.158 323.818 200.663 323.818 200.663C325.462 200.16 328.492 202.318 329.092 202.764L329.207 203.233Z" fill="black"/>
<path d="M333.267 210.999C333.244 212.294 333.102 213.734 333.102 213.734C331.064 213.899 329.013 213.747 327.021 213.285C325.224 212.915 323.379 212.844 321.559 213.078C321.388 213.098 321.215 213.083 321.051 213.033C320.886 212.984 320.733 212.901 320.602 212.79C320.47 212.68 320.363 212.543 320.286 212.388C320.21 212.234 320.166 212.067 320.157 211.894C320.13 211.403 320.096 210.811 320.065 210.174C319.934 207.781 319.785 204.723 319.785 203.682C319.785 201.892 323.818 201.059 323.818 201.059C325.646 200.498 329.195 203.237 329.195 203.237C329.195 203.237 332.718 208.357 333.102 209.125C333.252 209.421 333.282 210.181 333.267 210.999Z" fill="#575988"/>
<path d="M333.267 211C333.244 212.294 333.102 213.734 333.102 213.734C331.064 213.899 329.013 213.747 327.021 213.285C325.224 212.915 323.379 212.844 321.559 213.078C321.388 213.098 321.215 213.083 321.051 213.033C320.886 212.984 320.733 212.901 320.602 212.79C320.47 212.679 320.363 212.542 320.286 212.388C320.21 212.234 320.166 212.067 320.157 211.894C320.13 211.403 320.096 210.811 320.065 210.174C321.54 209.951 323.714 209.736 325.227 210.085C326.987 210.492 331.028 210.834 333.267 211Z" fill="#F1FAFF"/>
<path opacity="0.1" d="M245.812 172.538C245.812 172.538 244.468 174.843 245.812 175.899C247.156 176.955 245.812 172.538 245.812 172.538Z" fill="black"/>
<path opacity="0.1" d="M318.025 181.469C318.409 182.237 319.431 183.389 319.254 184.734C319.078 186.078 318.025 181.469 318.025 181.469Z" fill="black"/>
<path d="M316.842 41.0103C316.842 41.0103 310.977 40.4149 304.896 39.6083L304.647 39.5737C297.587 38.6327 290.342 37.4151 291.744 36.5278C292.37 36.1437 292.897 35.168 293.331 33.9389C293.601 33.1516 293.828 32.3502 294.011 31.5382C294.041 31.4114 294.068 31.2808 294.099 31.1541C294.364 29.9441 294.575 28.6804 294.74 27.5357C295.067 25.2041 295.201 23.345 295.201 23.345C295.201 23.345 310.247 17.6448 308.392 24.7509C308.111 25.8919 308.092 27.0818 308.338 28.231C308.559 29.3347 308.919 30.4059 309.41 31.4191C311.807 36.5355 316.842 41.0103 316.842 41.0103Z" fill="#FFAAB0"/>
<path opacity="0.1" d="M308.392 24.7467C308.111 25.8877 308.092 27.0777 308.338 28.2268C306.386 29.8104 303.916 30.6156 301.406 30.4873C298.895 30.3589 296.521 29.306 294.74 27.5316C295.067 25.2 295.201 23.3409 295.201 23.3409C295.201 23.3409 310.247 17.6407 308.392 24.7467Z" fill="black"/>
<path d="M312.102 19.9378C312.105 22.6374 311.036 25.2277 309.129 27.1388C308.185 28.085 307.064 28.8361 305.829 29.349C304.595 29.862 303.272 30.1268 301.935 30.1283C300.598 30.1298 299.274 29.868 298.039 29.3579C296.803 28.8477 295.68 28.0992 294.734 27.1551C292.823 25.2483 291.747 22.6605 291.744 19.9608V19.9378C291.744 17.2381 292.817 14.649 294.726 12.7401C296.634 10.8312 299.224 9.75879 301.923 9.75879C304.623 9.75879 307.212 10.8312 309.121 12.7401C311.03 14.649 312.102 17.2381 312.102 19.9378Z" fill="#FFAAB0"/>
<path opacity="0.1" d="M305.031 39.1894C305.002 39.3335 304.957 39.474 304.896 39.6081L304.647 39.5735C297.587 38.6325 290.342 37.4149 291.744 36.5276C292.37 36.1434 292.897 35.1678 293.331 33.9386C293.601 33.1514 293.828 32.35 294.011 31.5379C294.041 31.4112 294.068 31.2806 294.099 31.1538H294.395C294.418 31.3151 295.163 36.2356 301.766 37.0768L301.989 37.1037C304.566 37.3918 305.223 38.2369 305.031 39.1894Z" fill="black"/>
<path d="M304.647 39.5737C304.324 41.1678 301.604 43.0576 301.604 43.0576L294.049 41.6479C294.049 41.6479 289.313 37.4226 289.313 37.2959C289.313 37.1691 292.128 31.5342 292.128 31.5342H294.011C294.034 31.6955 294.779 36.616 301.382 37.4572L301.604 37.4841C304.182 37.776 304.839 38.6211 304.647 39.5737Z" fill="#F1FAFF"/>
<path opacity="0.1" d="M316.842 41.0101C316.842 41.0101 310.816 40.3994 304.647 39.5735C304.324 41.1676 301.604 43.0574 301.604 43.0574L294.049 41.6477C294.049 41.6477 289.313 37.4226 289.313 37.2958C289.313 37.1691 292.128 31.5341 292.128 31.5341H292.224C292.472 32.3859 292.845 33.1963 293.331 33.9387C294.518 35.7517 296.788 37.7375 301.013 37.4879L301.366 37.461C307.708 36.9347 309.133 32.5443 309.394 31.415C311.807 36.5353 316.842 41.0101 316.842 41.0101Z" fill="black"/>
<path opacity="0.1" d="M319.719 114.998L319.592 115.463C318.056 114.31 306.855 113.542 306.855 113.542C306.855 113.542 303.909 113.197 301.094 112.747C299.05 112.421 297.076 112.037 296.35 111.687C296.181 111.612 296.008 111.546 295.831 111.491C293.281 110.692 285.46 109.766 285.46 109.766C285.46 109.766 281.619 111.495 279.572 110.727C277.524 109.958 271.697 106.371 271.697 106.371C271.697 106.371 271.824 106.179 272.082 105.852L273.549 105.349L318.555 112.582C318.555 112.582 319.166 113.803 319.719 114.998Z" fill="black"/>
<path d="M320.441 94.7553C321.298 99.8486 322.416 107.297 321.836 108.376C320.937 110.039 319.592 115.098 319.592 115.098C318.056 113.946 306.855 113.177 306.855 113.177C306.855 113.177 303.909 112.832 301.094 112.382C299.05 112.056 297.076 111.672 296.35 111.322C296.181 111.247 296.008 111.182 295.831 111.126C293.281 110.327 285.46 109.402 285.46 109.402C285.46 109.402 281.619 111.13 279.572 110.362C277.524 109.594 271.697 106.006 271.697 106.006C272.536 104.856 273.503 103.804 274.578 102.872C276.56 101.078 280.209 85.648 280.117 85.4559C280.025 85.2639 279.122 80.3357 279.38 77.4549C279.637 74.574 278.611 60.4886 278.611 60.4886C278.611 60.4886 268.313 56.5015 268.133 50.3557C267.952 44.2099 274.087 40.6261 274.087 40.6261C274.087 40.6261 281.193 35.0565 281.769 34.7339C282.345 34.4112 286.186 33.5815 289.324 31.853C292.463 30.1245 292.14 31.5342 292.14 31.5342C292.14 31.5342 293.423 38.3215 301.04 37.8721C308.657 37.4227 309.49 31.5342 309.49 31.5342C310.308 29.4869 316.869 35.5674 316.869 35.5674C316.869 35.5674 318.532 39.0244 323.783 41.8399C327.624 43.8988 328.615 49.1995 328.877 51.9075C328.973 52.91 328.969 53.5554 328.969 53.5554L313.539 64.6332L319.604 89.9193C319.604 89.9193 319.988 91.982 320.441 94.7553Z" fill="#575988"/>
<path d="M282.272 107.911C282.272 107.911 287.331 116.615 292.578 114.184C293.76 113.646 294.742 112.748 295.382 111.618C297.452 108.038 295.382 103.471 291.372 102.399C289.893 102.015 288.299 101.773 287.008 102.015C283.359 102.66 282.272 107.911 282.272 107.911Z" fill="#FFAAB0"/>
<path opacity="0.1" d="M282.272 107.911C282.272 107.911 287.331 116.615 292.578 114.184C293.76 113.646 294.742 112.748 295.382 111.618C297.452 108.038 295.382 103.471 291.372 102.399C289.893 102.015 288.299 101.773 287.008 102.015C283.359 102.66 282.272 107.911 282.272 107.911Z" fill="black"/>
<path opacity="0.1" d="M274.847 44.3406C274.847 44.3406 278.838 47.0294 278.923 51.2546L274.847 44.3406Z" fill="black"/>
<path opacity="0.1" d="M281.12 46.3877C281.12 46.6451 279.967 64.441 282.015 70.5215C284.062 76.602 281.12 46.3877 281.12 46.3877Z" fill="black"/>
<path opacity="0.1" d="M312.102 19.9377C312.107 21.9103 311.534 23.8411 310.454 25.492C310.454 25.3614 310.454 25.2346 310.454 25.1079C310.389 24.04 309.824 23.0759 309.275 22.154C308.901 21.421 308.378 20.7746 307.739 20.2565C307.552 20.1481 307.378 20.0193 307.22 19.8724C306.867 19.4883 306.905 18.8776 306.836 18.336C306.734 17.6277 306.412 16.9691 305.917 16.4525C305.422 15.936 304.778 15.5872 304.074 15.4551C303.782 15.3822 303.474 15.4263 303.214 15.578C302.953 15.7624 302.83 16.1043 302.611 16.3155C302.265 16.6267 301.735 16.5883 301.278 16.4999C300.272 16.3002 299.223 15.9353 298.247 16.2579C296.573 16.8149 295.943 19.1311 294.226 19.5613C293.717 19.6372 293.204 19.6732 292.689 19.6688C292.358 19.6905 292.038 19.7891 291.752 19.9569V19.9339C291.752 17.2343 292.824 14.6452 294.733 12.7363C296.642 10.8273 299.231 9.75488 301.931 9.75488C304.631 9.75488 307.22 10.8273 309.128 12.7363C311.038 14.6452 312.11 17.2343 312.11 19.9339L312.102 19.9377Z" fill="black"/>
<path d="M291.844 13.1812C292.163 12.7549 292.674 12.4975 292.962 12.0481C293.4 11.3605 293.185 10.454 293.4 9.66661C293.661 8.70248 294.521 8.04181 295.32 7.45412C296.473 6.62443 297.721 5.76018 299.123 5.85621C300.083 5.92535 300.955 6.44774 301.908 6.60139C303.394 6.84338 304.885 6.17502 306.391 6.21727C307.143 6.25507 307.876 6.4729 308.527 6.85256C309.178 7.23222 309.728 7.76256 310.132 8.39904C310.727 9.35164 311.042 10.5923 312.052 11.0878C312.436 11.2837 312.867 11.3452 313.243 11.5411C313.591 11.7534 313.885 12.0457 314.097 12.3937C314.311 12.7417 314.438 13.1354 314.468 13.5423C314.521 14.3542 314.465 15.1694 314.299 15.9661C314.224 16.3674 314.206 16.7773 314.246 17.1837C314.315 17.6869 314.553 18.1555 314.603 18.6625C314.718 19.8149 313.835 20.8251 313.193 21.8123C312.624 22.6979 312.219 23.679 311.999 24.7085C311.936 25.1928 311.798 25.6644 311.591 26.1066C311.484 26.326 311.313 26.5078 311.101 26.6278C310.888 26.7478 310.644 26.8005 310.401 26.7788C310.328 26.0836 310.501 25.3807 310.454 24.6816C310.389 23.6137 309.824 22.6496 309.275 21.7316C308.903 20.9968 308.379 20.3489 307.739 19.8302C307.552 19.723 307.38 19.594 307.224 19.4461C306.867 19.062 306.905 18.4551 306.84 17.9097C306.737 17.2021 306.415 16.5444 305.92 16.0286C305.425 15.5127 304.781 15.1645 304.078 15.0327C303.787 14.9586 303.478 15.0014 303.218 15.1517C302.957 15.3361 302.834 15.678 302.615 15.8892C302.269 16.2004 301.739 16.1658 301.282 16.0736C300.275 15.8777 299.227 15.509 298.251 15.8316C296.576 16.3886 295.946 18.7048 294.229 19.135C293.721 19.213 293.207 19.249 292.693 19.2425C292.434 19.2432 292.179 19.306 291.949 19.4256C291.719 19.5452 291.521 19.7182 291.372 19.9301C290.857 19.3923 290.961 18.5166 291.214 17.8175C291.51 16.9993 291.779 16.4193 291.633 15.5589C291.487 14.6985 291.295 13.9149 291.844 13.1812Z" fill="#794F6A"/>
<path opacity="0.1" d="M254.455 152.852C254.455 152.852 250.806 154.773 252.726 155.157C254.647 155.541 254.455 152.852 254.455 152.852Z" fill="black"/>
<path opacity="0.1" d="M314.568 157.462C314.568 157.462 316.585 154.773 318.794 156.405C321.002 158.038 314.568 157.462 314.568 157.462Z" fill="black"/>
<path opacity="0.1" d="M319.254 159.19C319.254 159.19 321.77 158.326 323.307 159.19H319.254Z" fill="black"/>
<path opacity="0.1" d="M269.531 115.594C269.531 115.594 274.909 120.779 276.637 120.971C278.366 121.163 269.531 115.594 269.531 115.594Z" fill="black"/>
<path opacity="0.1" d="M270.299 47.4133L268.901 50.3556L268.194 57.2697L267.683 70.1374C267.683 70.1374 266.723 81.0847 267.683 82.6211C268.644 84.1576 270.307 93.2495 269.988 94.4019C269.669 95.5542 274.213 106.309 275.047 106.951C275.88 107.592 278.823 107.719 280.486 107.396L283.528 110.289L292.14 102.341L286.824 98.3083C286.824 98.3083 288.041 96.2571 284.65 94.0177C284.65 94.0177 283.113 91.4557 283.048 90.1113C282.968 87.3687 282.493 84.6523 281.638 82.0449C280.425 78.4612 279.718 58.5526 279.718 58.5526C279.718 58.5526 276.829 44.0178 270.299 47.4133Z" fill="black"/>
<path d="M269.531 47.4133L268.133 50.3556L267.426 57.2697L266.915 70.1374C266.915 70.1374 265.955 81.0847 266.915 82.6211C267.876 84.1576 269.539 93.2495 269.22 94.4019C268.901 95.5542 273.445 106.309 274.279 106.951C275.112 107.592 278.055 107.719 279.718 107.396L282.76 110.289L291.372 102.341L286.056 98.3083C286.056 98.3083 287.273 96.2571 283.882 94.0177C283.882 94.0177 282.345 91.4557 282.28 90.1113C282.2 87.3687 281.725 84.6523 280.87 82.0449C279.656 78.4612 278.95 58.5526 278.95 58.5526C278.95 58.5526 276.061 44.0178 269.531 47.4133Z" fill="#575988"/>
<path opacity="0.1" d="M282.914 95.5542C282.529 95.7463 274.782 102.918 277.663 103.11C280.544 103.302 282.914 95.5542 282.914 95.5542Z" fill="black"/>
<path d="M292.77 104.197C292.77 104.197 281.696 105.349 282.272 109.832C282.848 114.314 290.723 118.632 293.219 117.272C295.716 115.912 297.829 114.614 297.829 114.614L292.77 104.197Z" fill="#FFAAB0"/>
<path opacity="0.1" d="M326.572 50.4862L328.174 53.5591C328.174 53.5591 329.837 66.6804 328.174 71.7392C326.51 76.7979 322.477 88.4481 322.477 88.4481C322.477 88.4481 317.61 96.9638 317.484 97.348C317.357 97.7321 308.134 111.045 306.471 111.752C304.808 112.459 301.67 112.086 301.478 111.31C301.286 110.535 297.06 114.614 297.06 114.614C297.06 114.614 288.917 104.773 290.212 103.747C291.506 102.722 295.428 102.468 295.428 102.468C295.428 102.468 295.716 103.428 296.035 101.443C296.354 99.4567 297.829 98.435 298.916 98.5618C300.003 98.6885 299.557 97.54 299.749 96.3224C299.941 95.1047 302.949 92.9307 302.949 92.9307C302.949 92.9307 304.424 90.5607 304.424 89.151C304.424 87.7413 307.497 86.5275 307.75 86.5275C308.004 86.5275 307.942 85.9513 307.942 83.904C307.942 81.8567 309.479 78.2038 309.479 78.2038L310.428 66.6804L312.095 54.9649C312.095 54.9649 316.65 40.6913 326.572 50.4862Z" fill="black"/>
<path opacity="0.1" d="M319.604 89.9193C319.604 89.9193 319.988 91.9819 320.453 94.736C319.685 96.115 319.074 97.2136 319.028 97.3442C318.901 97.7283 309.682 111.045 308.019 111.748C306.356 112.451 303.218 112.083 303.026 111.311C302.941 110.965 302.062 111.576 301.105 112.363C299.914 113.346 298.605 114.61 298.605 114.61C298.605 114.61 297.314 113.051 295.843 111.107C293.615 108.172 290.976 104.366 291.752 103.747C293.046 102.722 296.972 102.468 296.972 102.468C296.972 102.468 297.26 103.429 297.579 101.443C297.898 99.4568 299.373 98.435 300.46 98.5618C301.547 98.6886 301.101 97.5362 301.293 96.3224C301.485 95.1086 304.493 92.9269 304.493 92.9269C304.493 92.9269 305.964 90.5607 305.964 89.151C305.964 87.7413 309.037 86.5275 309.294 86.5275C309.552 86.5275 309.486 85.9514 309.486 83.9002C309.486 81.849 311.023 78.2038 311.023 78.2038L311.972 66.6804L313.635 54.965C313.635 54.965 318.183 40.6875 328.104 50.4824L328.846 51.9074C328.942 52.91 328.938 53.5553 328.938 53.5553L313.508 64.6331L319.604 89.9193Z" fill="black"/>
<path d="M327.34 50.4862L328.942 53.5591C328.942 53.5591 330.605 66.6804 328.942 71.7392C327.279 76.7979 323.245 88.4481 323.245 88.4481C323.245 88.4481 318.379 96.9638 318.252 97.348C318.125 97.7321 308.903 111.045 307.239 111.752C305.576 112.459 302.438 112.086 302.246 111.31C302.054 110.535 297.829 114.614 297.829 114.614C297.829 114.614 289.685 104.773 290.98 103.747C292.274 102.722 296.196 102.468 296.196 102.468C296.196 102.468 296.484 103.428 296.803 101.443C297.122 99.4567 298.597 98.435 299.684 98.5618C300.771 98.6885 300.325 97.54 300.517 96.3224C300.71 95.1047 303.717 92.9307 303.717 92.9307C303.717 92.9307 305.192 90.5607 305.192 89.151C305.192 87.7413 308.265 86.5275 308.519 86.5275C308.772 86.5275 308.711 85.9513 308.711 83.904C308.711 81.8567 310.247 78.2038 310.247 78.2038L311.196 66.6804L312.863 54.9649C312.863 54.9649 317.418 40.6913 327.34 50.4862Z" fill="#575988"/>
<path opacity="0.1" d="M298.789 101.93C298.789 101.93 299.173 102.795 300.902 103.11C302.63 103.425 298.789 101.93 298.789 101.93Z" fill="black"/>
<path opacity="0.1" d="M319.466 50.5479C319.404 50.7399 313.704 57.1815 314.856 58.8601C316.009 60.5386 319.466 50.5479 319.466 50.5479Z" fill="black"/>
<path opacity="0.1" d="M313.001 80.1245C313.001 80.1245 316.266 83.328 315.625 84.8645C314.983 86.4009 313.001 80.1245 313.001 80.1245Z" fill="black"/>
<path opacity="0.1" d="M313.512 74.0439C313.704 74.3628 320.749 75.1963 321.133 77.8851C321.517 80.5739 313.512 74.0439 313.512 74.0439Z" fill="black"/>
<g opacity="0.1">
<path opacity="0.1" d="M314.226 16.4655C314.226 16.3195 314.261 16.1697 314.284 16.0199C314.427 15.2877 314.489 14.5418 314.468 13.7959C314.438 14.2837 314.353 14.7715 314.284 15.2517C314.208 15.6515 314.188 16.0602 314.226 16.4655Z" fill="black"/>
<path opacity="0.1" d="M291.637 15.7126C291.682 15.4289 291.682 15.1397 291.637 14.856C291.591 14.5833 291.541 14.3106 291.514 14.0378C291.473 14.5698 291.514 15.1049 291.637 15.6242V15.7126Z" fill="black"/>
<path opacity="0.1" d="M314.568 18.5588C314.403 19.473 313.716 20.2912 313.189 21.1017C312.618 21.9847 312.213 22.965 311.995 23.994C311.929 24.4777 311.792 24.9489 311.588 25.3922C311.481 25.6123 311.31 25.7946 311.097 25.9148C310.885 26.0349 310.64 26.0871 310.397 26.0644C310.398 26.0517 310.398 26.0387 310.397 26.026C310.376 26.2944 310.376 26.5642 310.397 26.8326C310.64 26.8554 310.885 26.8032 311.097 26.683C311.31 26.5629 311.481 26.3805 311.588 26.1604C311.792 25.7171 311.929 25.2459 311.995 24.7623C312.213 23.7333 312.618 22.7529 313.189 21.8699C313.827 20.8827 314.726 19.8879 314.595 18.7163C314.611 18.6625 314.576 18.6126 314.568 18.5588Z" fill="black"/>
<path opacity="0.1" d="M310.451 23.9712C310.385 22.9033 309.821 21.9354 309.271 21.0173C308.9 20.2762 308.376 19.6218 307.735 19.0968C307.548 18.9884 307.374 18.8596 307.216 18.7126C306.863 18.3285 306.901 17.7178 306.832 17.1762C306.729 16.4686 306.407 15.8109 305.912 15.2951C305.417 14.7792 304.773 14.4311 304.07 14.2992C303.779 14.2251 303.471 14.2678 303.21 14.4183C302.949 14.6026 302.826 14.9445 302.607 15.1596C302.413 15.2879 302.192 15.371 301.961 15.4029C301.731 15.4348 301.496 15.4147 301.274 15.344C300.268 15.1442 299.219 14.7755 298.244 15.102C296.569 15.6551 295.939 17.9713 294.218 18.4015C293.709 18.4791 293.196 18.5163 292.682 18.5129C292.423 18.5118 292.168 18.5734 291.939 18.6925C291.709 18.8116 291.512 18.9846 291.364 19.1966C291.189 19.0103 291.072 18.7765 291.03 18.5244C290.97 18.774 290.969 19.0341 291.027 19.2841C291.085 19.5342 291.2 19.7672 291.364 19.9649C291.512 19.7528 291.709 19.5798 291.939 19.4607C292.168 19.3416 292.423 19.28 292.682 19.2811C293.196 19.2845 293.709 19.2473 294.218 19.1697C295.931 18.7395 296.569 16.4233 298.244 15.8702C299.219 15.5437 300.268 15.9125 301.274 16.1122C301.496 16.1829 301.731 16.203 301.961 16.1712C302.192 16.1392 302.413 16.0561 302.607 15.9278C302.845 15.7127 302.949 15.3709 303.21 15.1865C303.471 15.0361 303.779 14.9934 304.07 15.0674C304.773 15.1993 305.417 15.5474 305.912 16.0633C306.407 16.5791 306.729 17.2368 306.832 17.9444C306.898 18.4745 306.859 19.0699 307.216 19.4809C307.374 19.6278 307.548 19.7567 307.735 19.865C308.376 20.39 308.9 21.0444 309.271 21.7856C309.805 22.6805 310.347 23.6178 310.424 24.651C310.448 24.4253 310.457 24.1981 310.451 23.9712Z" fill="black"/>
</g>
<path d="M184.204 56.9933V97.3021C184.203 97.387 184.219 97.4711 184.251 97.5494C184.283 97.6282 184.331 97.6992 184.391 97.7592C184.451 97.8191 184.523 97.8663 184.602 97.8978C184.681 97.9293 184.765 97.9451 184.85 97.9435C195.95 97.5978 205.207 88.4214 205.207 77.1477C205.207 65.8739 195.958 56.6936 184.85 56.3518C184.765 56.3495 184.68 56.3648 184.601 56.3963C184.522 56.4275 184.45 56.4747 184.39 56.5346C184.33 56.5945 184.282 56.666 184.25 56.7447C184.218 56.8239 184.203 56.908 184.204 56.9933Z" fill="#61BEEC"/>
<path d="M156.483 112.04V78.6802C156.443 73.3453 158.152 68.144 161.349 63.8727C164.372 59.901 169.078 56.3057 176.192 56.3518C176.287 56.3514 176.382 56.3698 176.471 56.4059C176.56 56.442 176.641 56.4954 176.709 56.563C176.777 56.6302 176.831 56.7105 176.868 56.7989C176.905 56.8872 176.925 56.9821 176.925 57.0777V91.4174C176.925 91.4174 178.078 110.185 156.89 112.405C156.839 112.408 156.788 112.402 156.74 112.385C156.692 112.368 156.648 112.342 156.61 112.308C156.572 112.274 156.542 112.233 156.52 112.187C156.498 112.141 156.485 112.092 156.483 112.04Z" fill="#4064AC"/>
<path opacity="0.1" d="M69.1393 52.5873C75.8217 52.5873 81.2389 47.1702 81.2389 40.4878C81.2389 33.8053 75.8217 28.3882 69.1393 28.3882C62.4569 28.3882 57.0398 33.8053 57.0398 40.4878C57.0398 47.1702 62.4569 52.5873 69.1393 52.5873Z" fill="#EF5B59"/>
<path opacity="0.1" d="M43.7879 19.1694C47.9248 19.1694 51.2781 15.8159 51.2781 11.6792C51.2781 7.54244 47.9248 4.18896 43.7879 4.18896C39.651 4.18896 36.2977 7.54244 36.2977 11.6792C36.2977 15.8159 39.651 19.1694 43.7879 19.1694Z" fill="#EF5B59"/>
<path opacity="0.1" d="M4.61219 32.9975C7.15786 32.9975 9.22155 30.9338 9.22155 28.3882C9.22155 25.8425 7.15786 23.7788 4.61219 23.7788C2.06652 23.7788 0.00283813 25.8425 0.00283813 28.3882C0.00283813 30.9338 2.06652 32.9975 4.61219 32.9975Z" fill="#EF5B59"/>
<path d="M157.439 258.691C157.071 259.196 156.776 259.751 156.563 260.339C156.51 260.481 156.456 260.646 156.402 260.804C156.305 260.758 156.203 260.723 156.099 260.7C155.651 260.586 155.188 260.546 154.727 260.581C154.727 260.404 154.75 260.197 154.754 260.02C154.812 257.996 154.574 255.172 152.642 256.367C150.79 257.519 152.112 259.44 153.306 260.673L153.613 260.973C152.523 261.741 152.315 263.558 152.135 265.444C151.954 267.33 150.352 269.396 149.288 270.568C149.181 270.687 149.085 270.794 148.989 270.894C148.559 270.55 148.061 270.301 147.528 270.164C146.995 270.027 146.439 270.005 145.897 270.099C145.854 269.934 145.808 269.761 145.754 269.577C144.898 266.454 143.112 261.076 140.83 259.924L141.13 259.54C142.098 258.272 143.189 256.39 141.579 255.91C139.97 255.43 139.824 257.542 139.912 259.125C139.912 259.321 139.943 259.509 139.958 259.686C139.637 259.701 139.321 259.781 139.032 259.923C138.742 260.064 138.485 260.264 138.276 260.508L138.026 260.216C136.72 258.679 134.327 256.233 133.601 258.08C132.929 259.801 135.034 262.033 136.517 263.327L136.609 263.408C135.614 267.449 139.958 270.741 142.297 272.181L142.601 272.365C139.374 276.168 137.381 283.293 137.381 283.293L146.419 284.907C146.419 284.907 152.407 279.737 151.639 274.885H151.701C157.689 273.687 159.049 267.303 158.119 263.512C158.154 263.512 158.188 263.485 158.223 263.465C159.313 263.02 160.269 262.299 160.996 261.372C162.671 259.033 159.16 256.405 157.439 258.691Z" fill="#EF5B59"/>
<path opacity="0.1" d="M157.439 258.691C157.071 259.196 156.776 259.751 156.563 260.339C156.51 260.481 156.456 260.646 156.402 260.804C156.305 260.758 156.203 260.723 156.099 260.7C155.651 260.586 155.188 260.546 154.727 260.581C154.727 260.404 154.75 260.197 154.754 260.02C154.812 257.996 154.574 255.172 152.642 256.367C150.79 257.519 152.112 259.44 153.306 260.673L153.613 260.973C152.523 261.741 152.315 263.558 152.135 265.444C151.954 267.33 150.352 269.396 149.288 270.568C149.181 270.687 149.085 270.794 148.989 270.894C148.559 270.55 148.061 270.301 147.528 270.164C146.995 270.027 146.439 270.005 145.897 270.099C145.854 269.934 145.808 269.761 145.754 269.577C144.898 266.454 143.112 261.076 140.83 259.924L141.13 259.54C142.098 258.272 143.189 256.39 141.579 255.91C139.97 255.43 139.824 257.542 139.912 259.125C139.912 259.321 139.943 259.509 139.958 259.686C139.637 259.701 139.321 259.781 139.032 259.923C138.742 260.064 138.485 260.264 138.276 260.508L138.026 260.216C136.72 258.679 134.327 256.233 133.601 258.08C132.929 259.801 135.034 262.033 136.517 263.327L136.609 263.408C135.614 267.449 139.958 270.741 142.297 272.181L142.601 272.365C139.374 276.168 137.381 283.293 137.381 283.293L146.419 284.907C146.419 284.907 152.407 279.737 151.639 274.885H151.701C157.689 273.687 159.049 267.303 158.119 263.512C158.154 263.512 158.188 263.485 158.223 263.465C159.313 263.02 160.269 262.299 160.996 261.372C162.671 259.033 159.16 256.405 157.439 258.691Z" fill="black"/>
<path d="M139.455 261.295L138.399 264.368C138.399 264.368 137.811 263.953 137.07 263.3C135.587 262.006 133.482 259.774 134.154 258.053C134.88 256.206 137.273 258.645 138.579 260.189C139.106 260.819 139.455 261.295 139.455 261.295Z" fill="#EF5B59"/>
<path d="M141.683 259.54C141.361 259.961 141.018 260.365 140.653 260.75C140.564 260.212 140.501 259.669 140.465 259.125C140.377 257.542 140.546 255.441 142.132 255.91C143.719 256.379 142.651 258.265 141.683 259.54Z" fill="#EF5B59"/>
<path d="M155.307 260.02C155.277 261.038 155.177 261.848 155.177 261.848C154.712 261.493 154.272 261.106 153.859 260.692C152.665 259.451 151.343 257.538 153.195 256.386C155.127 255.172 155.365 258.003 155.307 260.02Z" fill="#EF5B59"/>
<path d="M161.549 261.353C160.822 262.279 159.866 263 158.776 263.446C158.474 263.579 158.163 263.692 157.846 263.784L156.602 262.036C156.734 261.459 156.906 260.892 157.117 260.339C157.329 259.751 157.624 259.196 157.992 258.691C159.713 256.405 163.224 259.033 161.549 261.353Z" fill="#EF5B59"/>
<path opacity="0.1" d="M138.579 260.208C139.105 260.819 139.455 261.295 139.455 261.295L138.399 264.368C138.399 264.368 137.811 263.953 137.07 263.3C137.235 262.31 137.644 261.377 138.26 260.584C138.364 260.462 138.476 260.327 138.579 260.208Z" fill="black"/>
<path opacity="0.1" d="M141.683 259.54C141.361 259.961 141.018 260.365 140.653 260.75C140.564 260.212 140.501 259.669 140.465 259.125C140.905 259.132 141.33 259.277 141.683 259.54Z" fill="black"/>
<path d="M146.88 271.804L144.249 272.957C144.249 272.957 143.676 272.68 142.851 272.169C140.089 270.468 134.538 266.193 138.26 261.153C141.983 256.113 145.086 265.152 146.308 269.573C146.68 270.898 146.88 271.804 146.88 271.804Z" fill="#EF5B59"/>
<path opacity="0.1" d="M153.859 260.692C154.241 260.298 154.759 260.064 155.307 260.039C155.277 261.057 155.177 261.867 155.177 261.867C154.712 261.506 154.271 261.113 153.859 260.692Z" fill="black"/>
<path opacity="0.1" d="M158.776 263.446C158.474 263.579 158.163 263.692 157.846 263.784L156.602 262.036C156.734 261.459 156.906 260.892 157.117 260.339C157.919 260.811 158.511 261.975 158.776 263.446Z" fill="black"/>
<path d="M152.254 274.866L151.812 274.943C143.004 276.283 148.908 271.528 148.908 271.528C148.908 271.528 149.292 271.144 149.841 270.568C150.905 269.396 152.503 267.341 152.688 265.444C152.964 262.59 153.283 259.912 156.652 260.7C159.959 261.46 160.581 273.195 152.254 274.866Z" fill="#EF5B59"/>
<path d="M152.092 296.795H135.264V301.22H152.092V296.795Z" fill="#D4DFEC"/>
<path d="M154.578 282.414H132.591V297.855H154.578V282.414Z" fill="#D4DFEC"/>
<path opacity="0.1" d="M152.092 296.795H135.264V301.22H152.092V296.795Z" fill="black"/>
<path opacity="0.1" d="M154.578 282.414H132.591V297.855H154.578V282.414Z" fill="black"/>
<path d="M153.199 296.795H136.371V301.22H153.199V296.795Z" fill="#D4DFEC"/>
<path opacity="0.1" d="M146.308 269.577C146.692 270.898 146.88 271.805 146.88 271.805L144.249 272.957C144.249 272.957 143.676 272.68 142.851 272.169C143.88 270.867 145.04 269.88 146.308 269.577Z" fill="black"/>
<path opacity="0.1" d="M152.254 274.866L151.812 274.943C143.004 276.283 148.908 271.528 148.908 271.528C148.908 271.528 149.292 271.144 149.841 270.568C151.485 271.885 152.165 273.368 152.254 274.866Z" fill="black"/>
<path d="M137.919 283.286C137.919 283.286 142.851 265.617 149.768 271.071C156.686 276.525 146.957 284.899 146.957 284.899L137.919 283.286Z" fill="#EF5B59"/>
<path opacity="0.1" d="M140.427 264.479C140.732 264.479 140.98 264.232 140.98 263.926C140.98 263.621 140.732 263.373 140.427 263.373C140.121 263.373 139.874 263.621 139.874 263.926C139.874 264.232 140.121 264.479 140.427 264.479Z" fill="black"/>
<path opacity="0.1" d="M140.381 267.061C140.686 267.061 140.934 266.813 140.934 266.507C140.934 266.202 140.686 265.954 140.381 265.954C140.075 265.954 139.828 266.202 139.828 266.507C139.828 266.813 140.075 267.061 140.381 267.061Z" fill="black"/>
<path opacity="0.1" d="M156.421 264.986C156.727 264.986 156.974 264.739 156.974 264.433C156.974 264.128 156.727 263.88 156.421 263.88C156.116 263.88 155.868 264.128 155.868 264.433C155.868 264.739 156.116 264.986 156.421 264.986Z" fill="black"/>
<path opacity="0.1" d="M143.515 278.219C143.82 278.219 144.068 277.971 144.068 277.666C144.068 277.36 143.82 277.113 143.515 277.113C143.21 277.113 142.962 277.36 142.962 277.666C142.962 277.971 143.21 278.219 143.515 278.219Z" fill="black"/>
<path opacity="0.1" d="M155.269 269.273C155.574 269.273 155.822 269.025 155.822 268.72C155.822 268.414 155.574 268.167 155.269 268.167C154.964 268.167 154.716 268.414 154.716 268.72C154.716 269.025 154.964 269.273 155.269 269.273Z" fill="black"/>
<path opacity="0.1" d="M149.553 274.992C149.859 274.992 150.106 274.745 150.106 274.439C150.106 274.134 149.859 273.886 149.553 273.886C149.248 273.886 149 274.134 149 274.439C149 274.745 149.248 274.992 149.553 274.992Z" fill="black"/>
<path opacity="0.1" d="M142.317 265.586C142.622 265.586 142.87 265.338 142.87 265.033C142.87 264.727 142.622 264.479 142.317 264.479C142.011 264.479 141.764 264.727 141.764 265.033C141.764 265.338 142.011 265.586 142.317 265.586Z" fill="black"/>
<path opacity="0.1" d="M154.9 266.646C155.206 266.646 155.453 266.398 155.453 266.093C155.453 265.787 155.206 265.54 154.9 265.54C154.595 265.54 154.347 265.787 154.347 266.093C154.347 266.398 154.595 266.646 154.9 266.646Z" fill="black"/>
<path opacity="0.1" d="M153.01 270.932C153.316 270.932 153.564 270.685 153.564 270.379C153.564 270.074 153.316 269.826 153.01 269.826C152.705 269.826 152.457 270.074 152.457 270.379C152.457 270.685 152.705 270.932 153.01 270.932Z" fill="black"/>
<path opacity="0.1" d="M147.203 277.804C147.508 277.804 147.756 277.556 147.756 277.251C147.756 276.945 147.508 276.698 147.203 276.698C146.897 276.698 146.649 276.945 146.649 277.251C146.649 277.556 146.897 277.804 147.203 277.804Z" fill="black"/>
<path opacity="0.1" d="M146.004 275.085C146.31 275.085 146.557 274.837 146.557 274.532C146.557 274.226 146.31 273.979 146.004 273.979C145.699 273.979 145.451 274.226 145.451 274.532C145.451 274.837 145.699 275.085 146.004 275.085Z" fill="black"/>
<path opacity="0.1" d="M143.146 268.95C143.452 268.95 143.699 268.703 143.699 268.397C143.699 268.092 143.452 267.844 143.146 267.844C142.841 267.844 142.593 268.092 142.593 268.397C142.593 268.703 142.841 268.95 143.146 268.95Z" fill="black"/>
<path opacity="0.1" d="M153.199 296.795H136.371V298.412H153.199V296.795Z" fill="black"/>
<path d="M155.684 282.414H133.697V297.855H155.684V282.414Z" fill="#D4DFEC"/>
<path opacity="0.1" d="M147.94 280.293C148.245 280.293 148.493 280.046 148.493 279.74C148.493 279.435 148.245 279.187 147.94 279.187C147.635 279.187 147.387 279.435 147.387 279.74C147.387 280.046 147.635 280.293 147.94 280.293Z" fill="black"/>
<path opacity="0.1" d="M144.621 280.985C144.927 280.985 145.174 280.737 145.174 280.432C145.174 280.126 144.927 279.878 144.621 279.878C144.316 279.878 144.068 280.126 144.068 280.432C144.068 280.737 144.316 280.985 144.621 280.985Z" fill="black"/>
</g>
<defs>
<linearGradient id="paint0_linear_1_1044" x1="90.1349" y1="297.809" x2="90.1349" y2="92.9768" gradientUnits="userSpaceOnUse">
<stop stop-color="#808080" stop-opacity="0.25"/>
<stop offset="0.54" stop-color="#808080" stop-opacity="0.12"/>
<stop offset="1" stop-color="#808080" stop-opacity="0.1"/>
</linearGradient>
<linearGradient id="paint1_linear_1_1044" x1="91127" y1="127642" x2="91127" y2="14236.9" gradientUnits="userSpaceOnUse">
<stop stop-color="#808080" stop-opacity="0.25"/>
<stop offset="0.54" stop-color="#808080" stop-opacity="0.12"/>
<stop offset="1" stop-color="#808080" stop-opacity="0.1"/>
</linearGradient>
<clipPath id="clip0_1_1044">
<rect width="415.994" height="302.297" fill="white" transform="translate(0.00283813 0.59375)"/>
</clipPath>
</defs>
</svg>
