<svg width="416" height="200" viewBox="0 0 416 200" fill="none" xmlns="http://www.w3.org/2000/svg">
<g clip-path="url(#clip0_1_404)">
<path opacity="0.1" d="M412.498 165.506C410.505 169.347 407.706 172.71 404.285 175.361C403.8 175.75 403.303 176.125 402.8 176.493C402.121 176.969 401.425 177.437 400.715 177.896C395.184 181.406 388.706 183.806 382.383 185.555C380.658 186.031 378.93 186.479 377.194 186.898C375.73 187.253 374.266 187.584 372.799 187.891C372.242 188.012 371.685 188.126 371.128 188.248C370.571 188.369 369.931 188.487 369.342 188.605L368.496 188.766C352.135 191.783 335.56 192.358 318.863 191.601L318.071 191.561L316.803 191.497C313.413 191.321 310.02 191.096 306.623 190.822L305.337 190.719L304.77 190.672C302.865 190.513 300.961 190.338 299.057 190.147C296.547 189.909 294.035 189.646 291.519 189.358L291.194 189.323L290.93 189.29C281.949 188.28 272.948 187.066 263.935 185.82L262.66 185.641L260.372 185.323L258.443 185.056L257.872 184.977C254.83 184.551 251.788 184.13 248.745 183.713L248.253 183.645C242.539 182.863 236.794 182.11 231.067 181.424L230.32 181.335C227.976 181.056 225.632 180.791 223.29 180.539L221.504 180.349L219.13 180.11C212.549 179.457 205.972 178.935 199.409 178.61C196.252 178.453 193.089 178.334 189.918 178.253C187.3 178.194 184.681 178.159 182.062 178.15C178.511 178.133 174.952 178.153 171.386 178.211H170.579C165.555 178.293 160.52 178.435 155.482 178.607L154.575 178.635H154.275C143.563 179.014 132.851 179.517 122.167 179.878L119.557 179.964H119.179C115.465 180.083 111.755 180.174 108.049 180.239H107.067H107.035H105.842L104.185 180.26C102.464 180.277 100.747 180.286 99.0328 180.289H96.9296C90.6381 180.271 84.3715 180.132 78.1442 179.807L77.4514 179.767C65.3503 179.114 53.3849 177.764 41.6337 175.311C40.4171 175.057 39.2031 174.79 37.9916 174.511C29.8715 172.691 21.8985 170.266 14.1392 167.259C10.4828 165.831 6.80501 164.181 4.02343 161.389C-3.03228 154.248 -0.38282 140.261 8.79747 136.194C15.9782 133.013 24.3907 135.601 32.1142 134.166C32.5887 134.076 33.0574 133.956 33.5175 133.809C34.4993 133.492 35.4545 133.098 36.374 132.63C36.6883 132.473 37.0025 132.306 37.3203 132.131C38.0344 131.741 38.7486 131.309 39.4341 130.838C40.555 130.092 41.6283 129.278 42.6478 128.399C43.1002 128.014 43.5404 127.614 43.9689 127.199C45.4518 125.806 46.7609 124.239 47.8681 122.532C48.2713 121.887 48.629 121.214 48.9393 120.519C49.1072 120.162 49.2571 119.776 49.3821 119.405C49.5689 118.867 49.711 118.315 49.807 117.755C50.2569 115.105 49.5285 112.52 46.9933 110.335C46.7662 110.141 46.5277 109.961 46.2792 109.796C45.7882 109.455 45.2697 109.155 44.7295 108.9C44.5117 108.796 44.2867 108.696 44.0582 108.6C40.7946 107.225 36.5847 106.696 33.0354 105.743C31.9538 105.469 30.8977 105.102 29.8789 104.647C29.2326 104.347 28.5899 104.033 27.9579 103.704L27.7901 103.611C22.3933 100.829 17.6472 96.9345 13.8643 92.1851C12.9239 90.985 12.0582 89.7281 11.272 88.4215C11.0327 88.0288 10.8006 87.6253 10.5793 87.2218C4.30552 75.9027 3.65922 61.3984 10.1865 50.2686C10.9794 48.9181 11.8622 47.6227 12.8288 46.3908C13.143 45.9837 13.468 45.5838 13.8036 45.191C20.0166 37.8604 28.9434 32.8935 37.9559 29.2157C50.0534 24.281 62.7187 21.1638 75.6268 19.1106C78.2452 18.694 80.864 18.3203 83.4824 17.9894C94.4444 16.5897 105.535 15.847 116.547 15.2828C126.848 14.7615 137.193 14.4247 147.584 14.2723C151.104 14.2247 154.629 14.2045 158.157 14.2116C166.105 14.2116 174.053 14.3651 182.002 14.6722C184.62 14.7722 187.239 14.8912 189.857 15.0293C196.573 15.3768 203.275 15.8529 209.964 16.4576C213.178 16.748 216.384 17.0682 219.583 17.4181C243.95 20.0818 267.963 24.5988 291.147 31.6224C293.778 32.4175 296.396 33.2506 299.003 34.1219C308.753 37.3319 318.333 41.0347 327.708 45.216C328.593 45.6134 329.476 46.0133 330.357 46.4158C336.211 49.1009 341.981 51.9943 347.668 55.0962C355.173 59.135 362.401 63.668 369.307 68.6648C372.003 70.6405 374.62 72.7022 377.162 74.8493C381.658 78.64 385.85 82.7755 389.699 87.2182C390.042 87.6156 390.381 88.0156 390.717 88.418C392.459 90.5104 394.112 92.6778 395.68 94.9202C403.321 105.904 408.449 118.465 412.234 131.299C415.572 142.496 417.793 155.069 412.498 165.506Z" fill="#EF5B59"/>
<path opacity="0.1" d="M407.695 127.199H377.191V88.3966H390.759C390.424 87.9942 390.085 87.5942 389.742 87.1968H377.205V74.8279C374.666 72.6855 372.049 70.6237 369.35 68.6434V87.2111H299.024V46.3908H330.379C329.496 45.9884 328.612 45.5885 327.729 45.191H299.024V34.0968C296.406 33.2327 293.787 32.3995 291.169 31.5973V45.166H190.804L190.564 44.9375L219.598 17.3787C216.398 17.0264 213.192 16.7063 209.978 16.4182L189.872 35.5001V15.0042C187.253 14.8661 184.634 14.7471 182.016 14.6471V36.8177L158.171 14.1865C154.645 14.1865 151.121 14.2067 147.598 14.2472L179.934 44.9375L179.695 45.166H83.4895V18.0036C80.8711 18.3345 78.2523 18.7082 75.634 19.1248V45.191H13.8036C13.468 45.5838 13.143 45.9837 12.8288 46.3908H75.6268V87.1968H10.565C10.7864 87.6003 11.0185 88.0038 11.2577 88.3966H75.6268V127.199H43.9654C43.5369 127.614 43.0966 128.014 42.6442 128.399H75.6268V168.105C78.2452 168.479 80.864 168.87 83.4824 169.277V128.399H182.009V178.15C184.627 178.15 187.246 178.184 189.864 178.253V128.399H291.162V189.305L291.487 189.34C294 189.621 296.513 189.884 299.024 190.13V128.399H369.328V188.587C369.928 188.476 370.528 188.358 371.113 188.23C371.699 188.101 372.227 188.005 372.785 187.873C374.252 187.561 375.716 187.23 377.18 186.88V128.399H407.931C407.852 127.999 407.774 127.599 407.695 127.199ZM182.009 127.199H83.4895V88.3966H182.009V127.199ZM182.009 87.2075H83.4895V46.3908H180.613L181.998 47.4834L182.009 87.2075ZM291.162 127.199H189.872V88.3966H291.162V127.199ZM291.162 87.2075H189.872V46.3908H291.162V87.2075ZM369.328 127.199H299.024V88.3966H369.328V127.199Z" fill="#EF5B59"/>
<path d="M106.124 181.985C106.124 182.024 106.096 182.063 106.085 182.103C106.085 182.063 106.11 182.024 106.128 181.985H106.124Z" fill="#EAECF0"/>
<path d="M107.988 180.274H107.006H106.974H105.781L104.125 180.296L103.942 178.414L103.775 176.629L102.996 168.484L102.971 168.234V168.123L102.753 165.831L106.088 164.581L106.496 167.906L106.524 168.152V168.18L107.349 174.929L107.602 177L107.749 178.203L107.874 179.235V179.271L107.988 180.274Z" fill="#EAECF0"/>
<path d="M119.961 181.981L120 182.099H119.736L119.696 181.981H119.961Z" fill="#3A3768"/>
<path d="M171.679 134.937C171.679 135.009 171.679 135.048 171.679 135.048V135.091C171.679 135.091 168.565 143.6 167.551 150.863C167.482 151.339 167.425 151.814 167.38 152.291C167.33 152.794 167.29 153.287 167.269 153.766C167.24 154.326 167.233 154.869 167.248 155.387C167.248 155.504 167.248 155.626 167.248 155.744C167.248 155.983 167.273 156.229 167.287 156.483C167.301 156.736 167.323 156.99 167.344 157.254C167.365 157.518 167.387 157.75 167.412 158.004C168.179 165.86 171.097 177.361 171.097 177.361C171.097 177.361 171.193 177.671 171.318 178.2H170.511C165.487 178.282 160.452 178.425 155.414 178.596L154.507 178.625H154.207C143.495 179.003 132.783 179.507 122.1 179.867L119.489 179.953H119.111C115.397 180.072 111.687 180.164 107.981 180.228H106.999C107.251 179.873 107.541 179.546 107.863 179.253C108.134 179.002 108.427 178.775 108.738 178.575C110.435 177.516 112.283 176.723 114.219 176.222C114.627 176.11 115.049 176.058 115.472 176.068L117.972 176.118H118.357L122.192 176.193L155.086 176.847H155.168L155.4 176.8C155.782 176.705 156.154 176.573 156.51 176.407C157.128 176.147 157.668 175.731 158.079 175.2C158.489 174.67 158.756 174.043 158.853 173.379C158.853 173.269 158.881 173.151 158.889 173.022C158.899 172.849 158.899 172.675 158.889 172.501C158.889 172.38 158.889 172.251 158.86 172.119C158.831 171.987 158.824 171.855 158.799 171.719C158.007 167.288 156.657 153.648 156.657 153.648V153.691C156.657 153.691 156.657 153.109 156.689 152.13C156.689 152.055 156.689 151.973 156.689 151.891V151.68C156.689 151.462 156.714 151.227 156.728 150.966C156.728 150.813 156.75 150.655 156.76 150.491C156.778 150.252 156.8 150.006 156.821 149.748C156.819 149.733 156.819 149.717 156.821 149.702C156.835 149.54 156.85 149.376 156.864 149.209C156.864 149.209 156.864 149.174 156.864 149.156C157.396 143.889 159.071 135.551 164.362 132.463C166.844 131.009 168.487 130.717 169.568 131.002C171.147 131.416 171.543 133.059 171.629 134.127C171.629 134.198 171.629 134.266 171.629 134.334C171.657 134.534 171.674 134.735 171.679 134.937Z" fill="#3A3768"/>
<path opacity="0.1" d="M106.124 181.985C106.124 182.024 106.096 182.063 106.085 182.103C106.085 182.063 106.11 182.024 106.128 181.985H106.124Z" fill="black"/>
<path opacity="0.1" d="M119.961 181.981L120 182.099H119.736L119.696 181.981H119.961Z" fill="black"/>
<path opacity="0.1" d="M171.679 134.937C171.679 135.009 171.679 135.048 171.679 135.048C171.679 135.048 169.111 142.064 167.887 148.791C167.801 149.267 167.722 149.728 167.651 150.173C167.615 150.402 167.583 150.63 167.551 150.859C167.482 151.335 167.425 151.811 167.38 152.287C167.33 152.791 167.29 153.283 167.269 153.762C167.24 154.322 167.233 154.865 167.248 155.383C167.248 155.501 167.248 155.622 167.248 155.74C167.248 155.979 167.273 156.226 167.287 156.479C167.301 156.733 167.323 156.99 167.344 157.25C167.365 157.511 167.387 157.747 167.412 158C167.437 158.254 167.462 158.497 167.49 158.747C167.605 159.757 167.747 160.818 167.912 161.896C169.029 169.169 171.097 177.318 171.097 177.318C171.097 177.318 171.2 177.646 171.325 178.196H170.518C165.494 178.278 160.46 178.421 155.421 178.593L154.514 178.621H154.214C143.502 179 132.79 179.503 122.107 179.864L119.496 179.949H119.118C115.404 180.068 111.695 180.16 107.988 180.224H107.006H106.974C107.234 179.856 107.533 179.517 107.867 179.214C108.137 178.958 108.431 178.729 108.745 178.528C110.444 177.473 112.291 176.68 114.226 176.175C114.635 176.066 115.057 176.016 115.479 176.025L117.979 176.075H118.365L122.21 176.15L155.129 176.8H155.186C155.186 176.8 155.282 176.8 155.443 176.747C155.828 176.651 156.203 176.515 156.56 176.343C157.165 176.083 157.693 175.675 158.097 175.156C158.501 174.638 158.767 174.025 158.871 173.376C158.871 173.265 158.899 173.147 158.906 173.019C158.917 172.845 158.917 172.671 158.906 172.497C158.906 172.376 158.906 172.247 158.878 172.115C158.849 171.983 158.842 171.826 158.817 171.676C158.024 167.245 156.675 153.605 156.675 153.605C156.675 153.605 156.675 153.023 156.707 152.044C156.707 151.969 156.707 151.887 156.707 151.805V151.594C156.707 151.377 156.732 151.141 156.746 150.88C156.746 150.727 156.768 150.57 156.778 150.405C156.796 150.166 156.818 149.92 156.839 149.663C156.837 149.647 156.837 149.632 156.839 149.616C156.853 149.455 156.867 149.29 156.882 149.124C156.882 149.124 156.882 149.088 156.882 149.07C156.946 148.413 157.032 147.706 157.139 146.967C157.882 141.796 159.738 135.044 164.366 132.327C166.783 130.899 168.401 130.599 169.486 130.845C171.157 131.227 171.554 132.948 171.629 134.034C171.629 134.105 171.629 134.173 171.629 134.241C171.661 134.472 171.678 134.704 171.679 134.937Z" fill="black"/>
<path d="M106.124 181.985C106.124 182.024 106.096 182.063 106.085 182.103C106.085 182.063 106.11 182.024 106.128 181.985H106.124Z" fill="#3A3768"/>
<path d="M119.961 181.981L120 182.099H119.736L119.696 181.981H119.961Z" fill="#3A3768"/>
<path d="M170.765 134.634C170.765 134.634 166.105 147.367 166.33 154.987C166.555 162.607 170.193 176.925 170.193 176.925C170.193 176.925 170.351 177.429 170.518 178.232C165.494 178.314 160.46 178.457 155.421 178.629L154.514 178.657H154.214C143.502 179.035 132.79 179.539 122.107 179.899L119.497 179.985H119.118C115.404 180.104 111.695 180.196 107.988 180.26H107.006H106.974H105.781C106.273 179.436 106.943 178.732 107.742 178.2L107.838 178.132C109.538 177.094 111.385 176.318 113.316 175.829C113.724 175.72 114.146 175.67 114.569 175.679L117.868 175.743H118.254L122.228 175.822L154.275 176.461C154.734 176.375 155.179 176.23 155.6 176.029C155.74 175.965 155.876 175.892 156.007 175.811C156.409 175.58 156.771 175.284 157.078 174.936C157.753 174.168 158.203 173.026 157.903 171.365C157.107 166.934 155.761 153.294 155.761 153.294C155.761 153.294 155.532 136.698 163.488 132.038C166.701 130.156 168.508 130.22 169.519 130.967C169.549 130.986 169.577 131.007 169.604 131.031C170.997 132.152 170.765 134.634 170.765 134.634Z" fill="#3A3768"/>
<path d="M42.5407 165.877L42.4121 167.209L41.6337 175.383C40.4172 175.128 39.2031 174.861 37.9916 174.583L38.9021 167.152L39.2092 164.628L42.5407 165.877Z" fill="#EAECF0"/>
<path d="M19.6881 163.235L39.1342 121.847L117.465 127.956L124.685 163.235H19.6881Z" fill="#EFC6CD"/>
<path d="M19.6881 166.845V163.235H124.685V168.512L19.6881 166.845Z" fill="#D48A9B"/>
<path d="M49.2964 157.19L96.2726 158.147C96.3765 158.149 96.4797 158.126 96.5733 158.081C96.6668 158.035 96.7479 157.968 96.8097 157.884C96.8718 157.8 96.9125 157.703 96.9293 157.6C96.9457 157.497 96.9371 157.392 96.9046 157.293L89.5811 137.54L57.9411 136.937L48.5823 156.097C48.5298 156.216 48.508 156.346 48.5187 156.475C48.5291 156.604 48.5719 156.728 48.643 156.837C48.7137 156.946 48.8108 157.035 48.9251 157.096C49.039 157.158 49.1668 157.19 49.2964 157.19Z" fill="#DFE6F5"/>
<path opacity="0.15" d="M49.2964 157.19L96.2726 158.147C96.3765 158.149 96.4797 158.126 96.5733 158.081C96.6668 158.035 96.7479 157.968 96.8097 157.884C96.8718 157.8 96.9125 157.703 96.9293 157.6C96.9457 157.497 96.9371 157.392 96.9046 157.293L89.5811 137.54L57.9411 136.937L48.5823 156.097C48.5298 156.216 48.508 156.346 48.5187 156.475C48.5291 156.604 48.5719 156.728 48.643 156.837C48.7137 156.946 48.8108 157.035 48.9251 157.096C49.039 157.158 49.1668 157.19 49.2964 157.19Z" fill="black"/>
<path d="M48.9179 156.365L96.3797 157.365L89.9275 137.822C89.8232 137.506 89.6236 137.229 89.3554 137.031C89.0876 136.833 88.7645 136.722 88.4313 136.715L57.9304 136.137L48.9179 156.365Z" fill="#DFE6F5"/>
<path d="M52.8385 151.941L58.5267 139.426C58.6477 139.162 58.8416 138.938 59.0862 138.781C59.3304 138.624 59.6147 138.54 59.905 138.54H74.0414C74.442 138.54 74.8262 138.699 75.1094 138.982C75.3925 139.266 75.5518 139.65 75.5518 140.05V153.573C75.5514 153.777 75.5097 153.98 75.429 154.168C75.3483 154.356 75.2304 154.526 75.0823 154.667C74.9341 154.808 74.7587 154.918 74.567 154.989C74.3753 155.061 74.171 155.093 73.9664 155.083L54.1383 154.073C53.8926 154.06 53.6534 153.988 53.442 153.862C53.2306 153.736 53.0528 153.561 52.9246 153.35C52.7968 153.14 52.7218 152.902 52.7068 152.656C52.6918 152.411 52.7371 152.165 52.8385 151.941Z" fill="#4C4C56"/>
<path d="M80.7186 150.355L80.9614 143.214C80.9679 142.928 81.0857 142.656 81.2899 142.456C81.4942 142.256 81.7684 142.144 82.0541 142.143H86.2318C86.4885 142.144 86.7363 142.236 86.9324 142.401C87.1281 142.567 87.2595 142.797 87.303 143.05L88.5313 150.152C88.5581 150.309 88.551 150.469 88.5096 150.623C88.4681 150.776 88.3939 150.919 88.2921 151.041C88.1903 151.162 88.0632 151.261 87.9193 151.329C87.7758 151.397 87.619 151.432 87.4601 151.434L81.8077 151.484C81.6613 151.483 81.5167 151.453 81.3824 151.396C81.2478 151.339 81.1261 151.255 81.0246 151.15C80.9229 151.045 80.8436 150.92 80.7911 150.784C80.7386 150.647 80.714 150.501 80.7186 150.355Z" fill="#D1D9EC"/>
<path d="M25.3727 103.908L41.1231 102.594C41.3534 102.563 41.5869 102.608 41.789 102.722C41.9915 102.837 42.1511 103.013 42.2443 103.226L57.1377 136.937L48.8251 155.597C49.0858 155.012 49.2786 159.568 47.3968 155.619L23.7266 106.239C23.4088 105.579 24.6336 104.001 25.3727 103.908Z" fill="#4C4C56"/>
<path opacity="0.15" d="M25.3727 103.908L41.1231 102.594C41.3534 102.563 41.5869 102.608 41.789 102.722C41.9915 102.837 42.1511 103.013 42.2443 103.226L57.1377 136.937L48.8251 155.597C49.0858 155.012 49.2786 159.568 47.3968 155.619L23.7266 106.239C23.4088 105.579 24.6336 104.001 25.3727 103.908Z" fill="black"/>
<path d="M25.3727 103.908L41.9229 101.794C42.1529 101.764 42.3868 101.809 42.5889 101.923C42.7913 102.037 42.9509 102.213 43.0441 102.426L57.9411 136.137L48.9286 156.365L24.5264 105.44C24.4517 105.285 24.415 105.115 24.4196 104.944C24.4242 104.773 24.4699 104.605 24.5528 104.454C24.6357 104.304 24.7535 104.177 24.8961 104.081C25.0388 103.986 25.2023 103.927 25.3727 103.908Z" fill="#4C4C56"/>
<path d="M29.504 106.279L41.4694 104.415C41.7087 104.377 41.9536 104.422 42.1643 104.541C42.375 104.66 42.5392 104.847 42.6299 105.072L55.1631 135.73C55.2145 135.855 55.2391 135.99 55.2352 136.125C55.2316 136.261 55.1999 136.393 55.1417 136.515L49.4035 148.506C49.3257 148.673 49.2018 148.814 49.0465 148.913C48.8911 149.012 48.7108 149.064 48.5269 149.064C48.343 149.064 48.1627 149.012 48.0074 148.913C47.8521 148.814 47.7282 148.673 47.6503 148.506L28.6934 107.8C28.6212 107.649 28.5855 107.482 28.5893 107.315C28.593 107.147 28.636 106.983 28.7148 106.835C28.7937 106.687 28.9062 106.559 29.0432 106.463C29.1803 106.366 29.3381 106.303 29.504 106.279Z" fill="#EF5B59"/>
<path d="M157.175 175.358C157.175 175.358 156.928 175.765 156.568 176.429L156.535 176.489C156.214 177.061 155.821 177.811 155.421 178.632L154.514 178.66H154.214C143.502 179.039 132.79 179.542 122.107 179.903L119.496 179.989H119.118C115.404 180.108 111.694 180.199 107.988 180.264H107.006H106.974H105.781L104.125 180.285C102.404 180.302 100.686 180.311 98.9721 180.314H96.9296C90.638 180.296 84.3714 180.157 78.1441 179.832L77.4514 179.792C78.6762 177.129 80.865 172.762 82.6432 171.366C84.0179 170.294 93.8909 169.105 102.971 168.234L103.928 168.141H103.95L106.485 167.906C109.959 167.588 113.112 167.331 115.362 167.156L115.569 167.138L114.398 163.21L112.701 157.497L113.183 152.698L113.223 152.312H113.169C112.686 152.364 112.197 152.303 111.741 152.134L94.7836 151.548H94.4765L87.9636 151.316C84.4714 151.191 81.9898 151.098 81.8934 151.08C81.7909 151.063 81.6906 151.036 81.5934 150.998C81.4413 150.94 81.301 150.856 81.1792 150.748C81.0368 150.627 80.9161 150.482 80.8222 150.32H80.7508H80.5936L79.6724 150.38L79.2046 150.413C79.1868 150.363 79.1725 150.313 79.1546 150.266C79.1118 150.127 79.0689 149.995 79.0297 149.859H78.7833L75.5697 149.791H75.5125C75.5125 149.791 67.2213 150.423 62.8901 148.845C61.3011 148.267 60.2442 147.392 60.3263 146.081C60.3442 145.783 60.407 145.49 60.512 145.21C59.1194 142.607 65.9216 137.858 71.1063 139.168C72.5071 139.569 73.9832 139.63 75.4125 139.347C76.1881 139.179 76.919 138.847 77.555 138.372C77.6192 138.326 77.6764 138.279 77.7299 138.233C77.6442 138.179 77.555 138.133 77.4728 138.09C77.1176 137.903 76.7358 137.771 76.3409 137.697L77.7478 137.287H77.7692C77.7692 137.287 82.7682 136.83 86.0211 136.648H86.0425C87.0102 136.598 87.8279 136.565 88.3135 136.58C90.4559 136.64 94.6301 135.109 94.8086 134.637C94.9872 134.166 96.8939 134.637 96.8939 134.637L98.5614 133.987C100.229 133.341 101.182 132.459 101.182 131.809C101.182 131.159 102.671 130.456 102.671 130.456C103.343 129.328 104.66 128.117 106.042 127.046C107.238 126.121 108.481 125.296 109.402 124.721C109.759 122.408 110.236 120.115 110.83 117.851C111.462 115.741 113.423 114.177 114.126 113.67L114.383 113.499C114.186 112.609 113.923 111.736 113.598 110.885C113.574 110.813 113.545 110.742 113.512 110.671C113.441 110.503 113.366 110.339 113.291 110.185L113.18 109.971C112.998 110.007 112.823 110.039 112.63 110.064C112.039 110.15 111.442 110.194 110.845 110.196C108.167 110.206 105.56 109.338 103.423 107.726C101.285 106.114 99.7344 103.846 99.0078 101.269C99.0078 101.269 99.0078 101.269 99.0078 101.248C98.7214 100.2 98.5771 99.1194 98.5793 98.0339C98.5775 96.992 98.7146 95.9547 98.9863 94.9488C99.0399 94.7346 99.1042 94.5239 99.172 94.3133C99.1788 94.289 99.187 94.2651 99.197 94.2418C99.2292 94.1454 99.2613 94.0455 99.297 93.949C98.7685 94.0294 98.2354 94.0758 97.7009 94.0883H97.3438C96.3244 94.1261 95.3078 93.9576 94.3551 93.592C94.1245 93.4938 93.9031 93.3742 93.6946 93.2349C93.6835 93.2299 93.6738 93.2224 93.666 93.2135C93.3946 93.0549 93.1472 92.8589 92.9304 92.6315C93.3278 92.3272 93.661 91.9469 93.9102 91.5131C94.1598 91.0789 94.3205 90.6001 94.3837 90.1034C94.4801 89.3321 94.3516 88.4716 94.8122 87.8431C95.0479 87.5593 95.3307 87.3179 95.6477 87.129C97.5474 85.8328 99.0542 84.0546 100.772 82.5228C102.489 80.991 104.567 79.6662 106.878 79.5948C109.977 79.4984 112.705 81.6551 115.776 82.0622C116.718 82.1871 117.686 82.1443 118.607 82.38C119.64 82.7027 120.611 83.1951 121.482 83.8368C122.268 84.2839 122.963 84.8752 123.531 85.5793C123.926 86.1899 124.209 86.8658 124.367 87.5753C124.765 89.0707 125.004 90.604 125.081 92.1494C125.163 93.7669 125.081 95.3952 125.252 97.002C125.374 98.3974 125.846 99.74 126.624 100.905H126.67C126.806 101.095 126.954 101.276 127.113 101.448C126.809 101.544 126.506 101.63 126.195 101.705C125.679 101.837 125.155 101.941 124.628 102.015C124.385 102.055 124.141 102.075 123.896 102.076C123.725 102.08 123.555 102.065 123.389 102.03L123.703 102.24L124.574 102.826L124.903 103.044L125.563 103.483C125.713 103.044 125.92 102.926 126.159 102.954C126.645 102.497 127.37 103.486 127.37 103.486C127.795 104.301 128.937 105.111 129.948 105.711C130.542 106.061 131.153 106.38 131.78 106.668C145.123 114.62 144.277 126.517 145.063 127.46C145.848 128.403 145.898 131.816 145.898 131.816C145.898 131.816 147.866 143.418 148.755 144.421C149.644 145.424 148.812 145.774 149.587 146.895C150.362 148.017 150.183 151.016 150.183 151.016C150.183 151.016 150.719 158.082 152.625 159.614C154.336 160.989 156.621 172.555 157.075 174.918L157.175 175.358Z" fill="url(#paint0_linear_1_404)"/>
<path d="M78.9654 138.136C78.9654 138.136 77.1122 141.054 71.8633 139.711C66.6143 138.369 59.6693 143.446 61.6511 145.953C63.6328 148.459 76.4124 145.239 76.4124 145.239L81.3149 144.246L80.9936 140.165L78.9654 138.136Z" fill="#D38884"/>
<path opacity="0.1" d="M78.9654 138.136C78.9654 138.136 77.1122 141.054 71.8633 139.711C66.6143 138.369 59.6693 143.446 61.6511 145.953C63.6328 148.459 76.4124 145.239 76.4124 145.239L81.3149 144.246L80.9936 140.165L78.9654 138.136Z" fill="black"/>
<path d="M80.6722 137.979L78.3977 137.862L76.998 138.269C76.998 138.269 81.4328 138.911 80.2116 144.921L84.9928 144.632L80.6722 137.979Z" fill="#A36468"/>
<path opacity="0.1" d="M80.6722 137.979L78.3977 137.862L76.998 138.269C76.998 138.269 81.4328 138.911 80.2116 144.921L84.9928 144.632L80.6722 137.979Z" fill="black"/>
<path d="M110.78 124.539C110.78 124.539 104.539 128.11 102.786 131.077C102.786 131.077 101.329 131.791 101.329 132.42C101.329 133.048 100.393 133.934 98.7614 134.562L97.126 135.205C97.126 135.205 95.2585 134.737 95.0836 135.205C94.9086 135.673 90.8273 137.187 88.7242 137.13C86.621 137.072 78.3977 137.844 78.3977 137.844C79.9038 138.528 81.1332 139.702 81.8855 141.175C82.6379 142.647 82.8686 144.332 82.5397 145.953L101.971 145.139L109.32 143.503L113.641 139.186L110.78 124.539Z" fill="#444053"/>
<path opacity="0.1" d="M110.78 124.539C110.78 124.539 104.539 128.11 102.786 131.077C102.786 131.077 101.329 131.791 101.329 132.42C101.329 133.048 100.393 133.934 98.7614 134.562L97.126 135.205C97.126 135.205 95.2585 134.737 95.0836 135.205C94.9086 135.673 90.8273 137.187 88.7242 137.13C86.621 137.072 78.3977 137.844 78.3977 137.844C79.9038 138.528 81.1332 139.702 81.8855 141.175C82.6379 142.647 82.8686 144.332 82.5397 145.953L101.971 145.139L109.32 143.503L113.641 139.186L110.78 124.539Z" fill="black"/>
<path d="M82.1469 150.355L79.3975 150.302L76.1838 150.234C76.1838 150.234 61.0083 151.402 61.3047 146.549C61.6011 141.696 73.2737 139.993 74.8984 141.386C76.1303 142.439 78.9797 143.289 80.2794 143.635C80.6936 143.746 80.9472 143.807 80.9472 143.807L82.1469 150.355Z" fill="#D38884"/>
<path opacity="0.1" d="M82.1469 150.355L79.3975 150.302C78.3013 146.535 79.5724 144.46 80.2937 143.646C80.7079 143.757 80.9614 143.818 80.9614 143.818L82.1469 150.355Z" fill="black"/>
<path d="M84.0001 150.563L81.1436 150.762L79.7867 150.855C77.9192 145.371 80.9364 143.21 80.9364 143.21H81.8291L83.2895 143.385L84.0001 150.563Z" fill="#A36468"/>
<path d="M118.6 114.156L115.215 120.583C115.215 120.583 114.697 114.073 113.191 111.006C112.805 110.221 112.355 109.664 111.83 109.496C110.402 109.046 118.615 100.044 118.615 100.044C118.889 100.101 120.461 101.115 122.385 102.426C124.503 103.854 127.052 105.597 128.766 106.711C132.019 108.785 118.6 114.156 118.6 114.156Z" fill="#D38884"/>
<path d="M114.258 114.277C114.258 114.277 111.537 116.023 110.78 118.591C110.023 121.158 109.32 125.768 109.32 125.768C109.32 125.768 110.548 136.794 111.187 137.319C111.827 137.844 114.258 148.87 114.258 148.87L116.615 147.295L113.523 133.409C113.523 133.409 115.579 115.566 114.258 114.277Z" fill="#444053"/>
<path opacity="0.1" d="M114.258 114.277C114.258 114.277 111.537 116.023 110.78 118.591C110.023 121.158 109.32 125.768 109.32 125.768C109.32 125.768 110.548 136.794 111.187 137.319C111.827 137.844 114.258 148.87 114.258 148.87L116.615 147.295L113.523 133.409C113.523 133.409 115.579 115.566 114.258 114.277Z" fill="black"/>
<path d="M126.099 138.876H112.498L114.701 117.419H126.099V138.876Z" fill="#A36468"/>
<path d="M94.5873 181.985H94.7515L94.4444 182.103L94.5873 181.985Z" fill="#67647E"/>
<path d="M120.175 172.212L117.515 173.233L117.158 173.365L107.581 177.046L103.928 178.45L98.9578 180.36H96.9296C90.6381 180.342 84.3715 180.203 78.1442 179.878C79.3511 177.232 81.4614 172.997 83.1824 171.63C84.525 170.558 94.1302 169.402 102.996 168.53C104.103 168.423 105.196 168.32 106.26 168.223L106.513 168.198C110.034 167.877 113.219 167.616 115.44 167.438L115.797 167.409L118.59 167.195L118.882 166.902L119.239 168.43L119.536 169.652L120.175 172.212Z" fill="#67647E"/>
<path opacity="0.1" d="M94.5873 181.985H94.7515L94.4444 182.103L94.5873 181.985Z" fill="black"/>
<path opacity="0.1" d="M120.175 172.212L117.515 173.233L117.158 173.365L107.581 177.046L103.928 178.45L98.9578 180.36H96.9296C90.6381 180.342 84.3715 180.203 78.1442 179.878C79.3511 177.232 81.4614 172.997 83.1824 171.63C84.525 170.558 94.1302 169.402 102.996 168.53C104.103 168.423 105.196 168.32 106.26 168.223L106.513 168.198C110.034 167.877 113.219 167.616 115.44 167.438L115.797 167.409L118.59 167.195L118.882 166.902L119.239 168.43L119.536 169.652L120.175 172.212Z" fill="black"/>
<path d="M94.5873 181.985H94.7515L94.4444 182.103L94.5873 181.985Z" fill="#67647E"/>
<path d="M106.124 181.985C106.124 182.024 106.096 182.063 106.085 182.103C106.085 182.063 106.11 182.024 106.128 181.985H106.124Z" fill="#67647E"/>
<path d="M120 182.099H119.736L119.696 181.981H119.961L120 182.099Z" fill="#67647E"/>
<path d="M122.449 168.48L122.228 175.829V176.225V176.265L122.117 179.903L119.507 179.989H119.129C115.415 180.108 111.705 180.199 107.999 180.264H107.017H106.985H105.792L104.135 180.285C102.414 180.302 100.697 180.311 98.9828 180.314H96.9296C98.7864 179.164 101.189 177.896 103.775 176.629C104.935 176.057 106.138 175.49 107.345 174.929C110.559 173.437 113.812 172.026 116.465 170.901L116.804 170.758C117.833 170.323 118.764 169.934 119.561 169.605C121.282 168.891 122.374 168.463 122.449 168.434V168.48Z" fill="#67647E"/>
<path opacity="0.1" d="M98.6007 138.279C99.2685 139.672 99.9576 141.093 101.061 142.179C101.236 142.35 101.539 142.507 101.697 142.318C101.746 142.239 101.77 142.146 101.764 142.054C101.73 141.397 101.507 140.765 101.122 140.233C100.765 139.683 100.343 139.183 100.025 138.611C99.7077 138.04 99.3435 136.94 98.6293 136.79C97.7116 136.598 98.3972 137.858 98.6007 138.279Z" fill="black"/>
<path opacity="0.1" d="M122.371 102.415C122.321 102.594 122.267 102.772 122.21 102.944C121.551 104.963 120.37 106.771 118.786 108.185C117.201 109.599 115.271 110.569 113.191 110.996C112.805 110.21 112.355 109.653 111.83 109.485C110.402 109.035 118.615 100.034 118.615 100.034C118.875 100.091 120.446 101.123 122.371 102.415Z" fill="black"/>
<path d="M122.799 98.9837C122.799 101.361 122.095 103.685 120.774 105.661C119.453 107.638 117.576 109.178 115.38 110.088C113.184 110.997 110.767 111.236 108.436 110.772C106.104 110.308 103.963 109.163 102.282 107.482C100.601 105.801 99.4563 103.66 98.9924 101.328C98.5286 98.997 98.7668 96.5803 99.6762 94.3843C100.586 92.188 102.126 90.3109 104.103 88.9901C106.08 87.6696 108.403 86.9648 110.78 86.9648C112.36 86.9612 113.924 87.27 115.384 87.8728C116.843 88.4755 118.17 89.3607 119.287 90.4776C120.403 91.5942 121.288 92.9207 121.891 94.3804C122.494 95.8401 122.803 97.4044 122.799 98.9837Z" fill="#D38884"/>
<path d="M115.39 116.837C115.39 116.837 112.891 119.872 113.291 121.858H116.322L118.54 119.358L115.39 116.837Z" fill="#67647E"/>
<path opacity="0.1" d="M124.281 104.022L114.747 117.13C114.747 117.13 117.197 120.633 118.365 120.808C119.532 120.983 126.192 105.304 126.192 105.304L124.281 104.022Z" fill="black"/>
<path d="M124.403 103.786L114.865 116.912C114.865 116.912 117.315 120.412 118.482 120.587C119.65 120.762 126.309 105.086 126.309 105.086L124.403 103.786Z" fill="#A36468"/>
<path d="M113.641 120.576C113.641 120.576 113.173 127.924 112.705 129.385C112.237 130.845 112.705 144.26 112.705 144.26L117.083 142.454L116.322 121.858L113.641 120.576Z" fill="#67647E"/>
<path opacity="0.1" d="M119.961 181.981L120 182.099H119.736L119.696 181.981H119.961Z" fill="black"/>
<path opacity="0.1" d="M155.825 175.654C155.825 175.654 155.743 175.79 155.607 176.011C155.471 176.232 155.325 176.507 155.136 176.857C155.126 176.871 155.118 176.885 155.111 176.9C154.846 177.389 154.532 177.989 154.214 178.643C143.502 179.021 132.79 179.525 122.107 179.885L119.497 179.971H119.118L117.997 176.186V176.147L117.879 175.747L117.165 173.369L116.451 170.951L115.712 168.373L115.44 167.438L115.369 167.202L114.205 163.239L112.626 157.857L113.137 152.723L113.173 152.334L113.633 147.735L113.698 146.371L113.733 145.656V145.453L113.812 143.796L114.048 138.868L114.169 136.348L114.19 135.965L114.433 130.906L115.122 128.838L115.479 127.81L116.272 125.421L116.444 124.832C116.693 123.936 117.197 122.165 117.668 120.461L117.711 120.315L117.743 120.204L118.079 118.994L118.497 117.441C118.654 116.844 118.757 116.419 118.782 116.273C118.822 116.02 119.497 114.898 120.382 113.416C122.167 110.464 124.853 106.118 125.16 104.661C125.161 104.649 125.161 104.637 125.16 104.625C125.178 104.537 125.203 104.45 125.235 104.365C125.381 103.929 125.592 103.811 125.813 103.84C125.914 103.856 126.01 103.894 126.095 103.951C126.31 104.096 126.499 104.277 126.652 104.486C127.07 105.29 128.188 106.093 129.177 106.689L129.37 106.8L129.484 106.868C130.305 107.336 130.969 107.636 130.969 107.636C144.038 115.512 143.224 127.299 143.981 128.231C144.738 129.163 144.799 132.552 144.799 132.552C144.799 132.552 146.723 144.046 147.598 145.049C148.473 146.053 147.659 146.392 148.416 147.502C149.173 148.613 148.998 151.548 148.998 151.548C148.998 151.548 149.523 158.547 151.39 160.064C153.258 161.582 155.825 175.654 155.825 175.654Z" fill="black"/>
<path d="M156.175 175.54L156.018 175.811C155.893 176.032 155.693 176.382 155.453 176.822L155.428 176.872C155.157 177.375 154.836 177.986 154.518 178.657H154.218C143.506 179.035 132.794 179.539 122.11 179.9L119.5 179.985L118.382 176.186V176.147L118.265 175.747L117.525 173.247L116.811 170.819L116.097 168.395L115.815 167.423L114.594 163.253L112.98 157.758L113.426 153.291L113.487 152.694L113.98 147.62L114.169 143.664L114.401 138.883L114.462 137.629L114.53 136.18L114.558 135.569L114.79 130.792L115.479 128.728L115.776 127.839L116.469 125.75L116.615 125.307C116.615 125.307 117.283 122.961 117.929 120.637C117.954 120.551 117.979 120.465 118 120.379C118.057 120.179 118.111 119.98 118.168 119.783C118.225 119.583 118.279 119.387 118.329 119.19C118.511 118.541 118.686 117.933 118.807 117.434C118.982 116.78 119.1 116.305 119.125 116.152C119.164 115.898 119.839 114.745 120.757 113.245C122.446 110.453 124.91 106.461 125.431 104.804C125.459 104.718 125.483 104.631 125.502 104.543C125.534 104.28 125.642 104.032 125.813 103.829C126.292 103.369 127.002 104.358 127.002 104.358C127.42 105.161 128.538 105.968 129.527 106.561C130.104 106.908 130.7 107.224 131.312 107.507C144.381 115.384 143.567 127.171 144.324 128.106C145.081 129.042 145.141 132.423 145.141 132.423C145.141 132.423 147.066 143.918 147.941 144.921C148.816 145.924 148.001 146.263 148.758 147.37C149.515 148.477 149.34 151.455 149.34 151.455C149.34 151.455 149.865 158.457 151.733 159.975C153.6 161.493 156.175 175.54 156.175 175.54Z" fill="#444053"/>
<path opacity="0.1" d="M129.527 106.789C128.245 108.653 126.156 111.931 125.599 114.288C125.599 114.288 123.556 116.391 122.796 116.273C122.035 116.155 123.51 117.848 123.51 117.848L115.487 128.967L116.626 125.55C116.626 125.55 119.018 117.148 119.125 116.391C119.232 115.634 125.042 106.961 125.502 104.779C125.859 103.033 127.002 104.604 127.002 104.604C127.416 105.39 128.534 106.2 129.527 106.789Z" fill="black"/>
<path d="M129.527 106.557C128.245 108.418 126.156 111.699 125.599 114.038C125.599 114.038 123.556 116.137 122.796 116.023C122.035 115.909 123.51 117.598 123.51 117.598L115.487 128.717L116.626 125.3C116.626 125.3 119.018 116.898 119.125 116.137C119.232 115.377 125.042 106.711 125.502 104.529C125.859 102.779 127.002 104.354 127.002 104.354C127.416 105.158 128.534 105.961 129.527 106.557Z" fill="#444053"/>
<path opacity="0.1" d="M140.303 129.595C140.364 132.145 136.629 135.626 136.454 135.83C136.279 136.033 124.842 145.471 124.842 145.471L116.629 151.769C115.704 152.533 114.597 153.044 113.416 153.255L113.976 147.62L114.53 136.194C115.812 134.766 117.054 133.266 117.083 132.788C117.14 131.799 119.225 130.745 119.225 130.745C119.225 130.745 120.686 129.52 120.45 128.821C120.214 128.121 121.225 124.768 121.225 124.768C121.75 115.255 131.551 114.323 131.551 114.323C131.551 114.323 136.279 116.191 139.603 118.173C142.927 120.154 140.246 127.049 140.303 129.595Z" fill="black"/>
<path opacity="0.1" d="M84.0001 150.563L81.1435 150.762C79.9366 148.709 81.597 143.21 81.597 143.21H81.8291L83.2895 143.385L84.0001 150.563Z" fill="black"/>
<path d="M131.551 113.745C131.551 113.745 121.75 114.681 121.225 124.189C121.225 124.189 120.232 127.517 120.464 128.217C120.696 128.917 119.239 130.142 119.239 130.142C119.239 130.142 117.14 131.191 117.097 132.184C117.054 133.177 111.741 138.59 111.741 138.59C111.741 138.59 109.527 141.111 104.392 141.375C99.2577 141.639 96.8654 143.21 96.8654 143.21C96.8654 143.21 94.3659 141.461 92.5448 141.986C90.7238 142.511 81.8684 143.21 81.8684 143.21C81.8684 143.21 79.5153 151.009 82.4504 151.498C82.8075 151.555 111.695 152.548 111.695 152.548C111.695 152.548 113.669 153.48 116.644 151.205C119.618 148.931 124.856 144.903 124.856 144.903C124.856 144.903 136.282 135.451 136.468 135.262C136.654 135.073 140.396 131.574 140.317 129.028C140.239 126.482 142.945 119.594 139.603 117.601C136.261 115.609 131.551 113.745 131.551 113.745Z" fill="#444053"/>
<path opacity="0.1" d="M122.799 98.9838C122.8 100.248 122.602 101.505 122.21 102.708C122.047 102.516 121.9 102.312 121.767 102.097C121.21 101.24 120.652 100.384 120.093 99.5265C119.658 98.7549 119.08 98.074 118.39 97.5198C117.675 97.0128 116.661 96.8057 115.89 97.2556C115.212 97.6555 114.88 98.4732 114.819 99.2587C114.798 100.047 114.819 100.836 114.88 101.622C114.908 101.924 114.831 102.225 114.662 102.476C114.408 102.703 114.081 102.83 113.741 102.833L112.669 102.979C112.573 103.013 112.47 103.028 112.368 103.021C112.265 103.015 112.165 102.988 112.073 102.943C111.982 102.897 111.899 102.833 111.833 102.756C111.766 102.678 111.715 102.588 111.684 102.49C110.795 100.879 110.181 98.8799 108.513 98.105C107.485 97.6266 106.128 97.6591 105.467 96.7378C105.017 96.1094 105.078 95.2556 105.21 94.4915C105.355 93.6299 105.564 92.78 105.835 91.9491C106.024 91.3635 106.446 90.1963 105.51 90.0784C104.874 89.9963 103.996 90.6712 103.675 91.1497C103.353 91.6281 103.275 92.2673 103.046 92.8136C102.609 93.7534 101.82 94.4854 100.85 94.8525C100.365 95.0517 99.8562 95.1899 99.3363 95.2627C100.214 92.5354 102.038 90.2116 104.478 88.7102C106.919 87.2087 109.815 86.6284 112.645 87.0737C115.476 87.5193 118.054 88.9612 119.915 91.1397C121.776 93.3181 122.798 96.0897 122.796 98.9549L122.799 98.9838Z" fill="black"/>
<path d="M103.678 90.8461C103.353 91.3425 103.278 91.9602 103.05 92.5065C102.612 93.4456 101.826 94.1772 100.857 94.5454C99.8951 94.9057 98.875 95.0871 97.8473 95.081C96.1834 95.131 94.3266 94.8775 93.2554 93.6027C93.646 93.3003 93.9731 92.9239 94.218 92.4951C94.4633 92.0662 94.6215 91.5931 94.6837 91.1032C94.7765 90.3391 94.6515 89.4857 95.105 88.8608C95.336 88.5873 95.6113 88.3545 95.9191 88.1717C97.783 86.8862 99.2542 85.1223 100.94 83.6083C102.625 82.0943 104.657 80.7767 106.92 80.7053C109.952 80.6125 112.634 82.7478 115.633 83.1513C116.554 83.2762 117.504 83.2334 118.404 83.4655C119.417 83.7801 120.369 84.2628 121.221 84.8938C121.992 85.3405 122.674 85.9264 123.231 86.622C123.616 87.229 123.893 87.8985 124.049 88.6002C124.444 90.0816 124.683 91.6003 124.763 93.1314C124.845 94.7311 124.763 96.345 124.935 97.9376C125.106 99.5301 125.613 101.151 126.702 102.33C125.908 102.581 125.095 102.768 124.271 102.89C123.755 103.012 123.214 102.97 122.724 102.769C122.328 102.516 122.003 102.166 121.782 101.751L120.107 99.1802C119.673 98.4089 119.094 97.7276 118.404 97.1734C117.69 96.6664 116.676 96.4593 115.904 96.9092C115.226 97.3091 114.897 98.1268 114.833 98.9124C114.812 99.7008 114.833 100.49 114.894 101.276C114.922 101.577 114.846 101.879 114.676 102.13C114.421 102.357 114.093 102.484 113.751 102.487L112.68 102.633C112.583 102.667 112.481 102.681 112.378 102.675C112.276 102.669 112.176 102.642 112.084 102.596C111.992 102.551 111.91 102.487 111.843 102.41C111.777 102.332 111.726 102.241 111.695 102.144C110.805 100.53 110.191 98.5339 108.524 97.759C107.495 97.2805 106.138 97.3127 105.478 96.3914C105.028 95.763 105.089 94.9096 105.221 94.1455C105.366 93.2839 105.575 92.434 105.846 91.6031C106.035 91.0175 106.456 89.8499 105.521 89.7285C104.878 89.6607 104 90.3355 103.678 90.8461Z" fill="#444053"/>
<path opacity="0.1" d="M130.866 119.08C131.769 118.955 132.719 118.873 133.565 119.219C131.362 118.316 127.777 118.662 125.77 119.905C125.952 120.322 130.166 119.176 130.866 119.08Z" fill="black"/>
<path opacity="0.1" d="M131.919 122.008C134.115 122.154 136.382 122.461 138.464 121.747C136.722 121.147 134.804 121.526 132.969 121.343C131.505 121.197 130.016 120.69 128.588 121.061C127.991 121.215 125.795 122.225 125.945 122.965C127.82 122.135 129.878 121.805 131.919 122.008Z" fill="black"/>
<path opacity="0.1" d="M126.102 126.807C126.562 126.758 127.027 126.807 127.466 126.95C129.113 127.337 130.802 127.523 132.494 127.503C133.786 127.503 135.179 127.307 136.122 126.432L126.102 126.807Z" fill="black"/>
<path opacity="0.1" d="M119.029 137.979C120.564 138.685 122.253 138.992 123.938 138.872C125.617 138.749 127.276 138.43 128.88 137.922C129.594 137.712 130.373 137.447 130.791 136.826L119.029 137.979Z" fill="black"/>
<path opacity="0.1" d="M134.836 139.55C138.177 141.461 141.898 142.613 145.734 142.925C143.799 142.149 141.849 141.414 139.885 140.722C137.876 140.018 135.817 139.467 133.726 139.072C134.124 139.158 134.501 139.321 134.836 139.55Z" fill="black"/>
<path opacity="0.1" d="M140.232 137.505C140.903 137.617 141.584 137.654 142.263 137.615C142.62 137.615 143.045 137.565 143.256 137.258C141.724 137.322 140.214 136.93 138.718 136.59C138.293 136.49 137.529 136.255 137.172 136.508C137.85 136.994 139.375 137.333 140.232 137.505Z" fill="black"/>
<path opacity="0.1" d="M149.44 169.402C150.244 170.78 151.058 172.172 152.168 173.329C152.81 173.96 153.494 174.547 154.214 175.086C152.89 171.708 151.544 168.302 149.423 165.349C148.887 164.606 148.087 163.542 147.112 163.406C146.834 164.231 147.537 165.692 147.876 166.466C148.342 167.473 148.864 168.453 149.44 169.402Z" fill="black"/>
<path opacity="0.1" d="M110.402 144.142C110.341 144.714 110.295 145.346 110.627 145.813C110.791 146.044 111.031 146.21 111.305 146.281C111.134 146.238 110.948 144.56 110.905 144.332C110.827 143.864 110.905 142.989 110.573 142.643C110.488 143.135 110.455 143.643 110.402 144.142Z" fill="black"/>
<path opacity="0.1" d="M112.259 143.485C112.377 143.989 112.596 144.462 112.903 144.878C113.21 145.293 113.598 145.642 114.044 145.903C113.419 145.131 113.216 144.117 112.673 143.271C112.498 143 112.294 142.611 111.959 142.557C112.043 142.871 112.143 143.181 112.259 143.485Z" fill="black"/>
<path opacity="0.1" d="M110.688 133.202C110.161 133.515 109.575 133.717 108.966 133.793C108.358 133.87 107.741 133.821 107.153 133.648C106.885 133.57 106.26 133.291 106.41 132.898C106.56 132.506 107.285 132.777 107.581 132.813L109.134 133.009C109.42 133.045 110.455 133.338 110.688 133.202Z" fill="black"/>
<path opacity="0.1" d="M105.431 135.744C106.163 135.651 106.82 136.158 107.506 136.433C108.265 136.686 109.064 136.793 109.863 136.748C110.263 136.748 110.716 136.715 110.963 136.39C109.102 135.966 107.363 135.498 105.431 135.744Z" fill="black"/>
<path d="M114.258 114.273H114.376L115.251 117.419L114.258 118.476V114.273Z" fill="#A36468"/>
<g opacity="0.1">
<path opacity="0.1" d="M94.9122 89.3322C94.8036 89.8428 94.7501 90.3637 94.7515 90.8854C94.7961 90.7215 94.8283 90.5544 94.8479 90.3855C94.8907 90.0427 94.8872 89.6821 94.9122 89.3322Z" fill="black"/>
<path opacity="0.1" d="M105.564 89.7392C105.65 89.7442 105.735 89.7674 105.812 89.8067C105.889 89.846 105.958 89.901 106.013 89.9681C106.068 90.0352 106.108 90.1131 106.132 90.1966C106.155 90.2802 106.161 90.3673 106.149 90.4534C106.317 89.8606 106.41 89.1322 105.681 89.0251C105.046 88.9465 104.167 89.6214 103.846 90.1141C103.525 90.6069 103.446 91.2318 103.218 91.7781C102.781 92.7179 101.994 93.4499 101.025 93.817C100.063 94.1773 99.0428 94.359 98.0151 94.3526C96.5011 94.399 94.8265 94.1883 93.7303 93.1885C93.5989 93.3281 93.4571 93.457 93.3054 93.5742C94.3766 94.8489 96.2333 95.1024 97.9009 95.0524C98.9274 95.0585 99.9461 94.8768 100.907 94.5168C101.877 94.1487 102.665 93.4174 103.103 92.478C103.332 91.9316 103.403 91.3139 103.728 90.8176C104.053 90.3212 104.928 89.6607 105.564 89.7392Z" fill="black"/>
<path opacity="0.1" d="M124.424 102.187C123.909 102.309 123.368 102.267 122.878 102.065C122.482 101.812 122.158 101.462 121.935 101.048C121.378 100.191 120.82 99.3337 120.261 98.4767C119.828 97.7051 119.251 97.0238 118.561 96.47C117.847 95.9594 116.829 95.7558 116.061 96.2058C115.379 96.6057 115.051 97.4234 114.972 98.2089C114.972 98.2411 114.972 98.2732 114.972 98.3053C115.102 97.7294 115.452 97.2266 115.947 96.9056C116.708 96.4557 117.733 96.6628 118.447 97.1698C119.136 97.7251 119.714 98.406 120.15 99.1766C120.707 100.034 121.265 100.891 121.825 101.747C122.045 102.163 122.369 102.514 122.767 102.765C123.256 102.967 123.796 103.009 124.31 102.887C125.135 102.764 125.949 102.577 126.745 102.326C126.588 102.156 126.443 101.976 126.309 101.787C125.69 101.96 125.06 102.093 124.424 102.187Z" fill="black"/>
<path opacity="0.1" d="M114.822 101.426C114.567 101.651 114.241 101.778 113.901 101.783L112.83 101.93C112.733 101.964 112.631 101.978 112.528 101.972C112.426 101.965 112.326 101.939 112.234 101.893C112.142 101.848 112.06 101.784 111.993 101.706C111.927 101.629 111.876 101.538 111.844 101.44C110.955 99.8265 110.341 97.8305 108.674 97.0556C107.645 96.5772 106.292 96.6093 105.631 95.6881C105.296 95.1257 105.183 94.4587 105.314 93.817C105.296 93.9277 105.271 94.0348 105.253 94.142C105.124 94.9061 105.06 95.7595 105.514 96.3879C106.174 97.3092 107.531 97.277 108.556 97.7555C110.227 98.5303 110.841 100.526 111.73 102.14C111.811 102.343 111.955 102.515 112.141 102.63C112.327 102.691 112.525 102.7 112.716 102.655L113.787 102.508C114.127 102.505 114.455 102.378 114.708 102.151C114.879 101.901 114.956 101.599 114.926 101.298C114.895 101.343 114.86 101.386 114.822 101.426Z" fill="black"/>
</g>
<path d="M262.61 185.623L260.322 185.306V151.516L260.789 151.659L262.218 152.098V153.223V154.069V155.351L262.235 156.818L262.268 159.839V160.143V160.546V161.403V161.921V163.174V163.96L262.439 179.175V179.582L262.5 184.938V185.02L262.61 185.623Z" fill="#EAECF0"/>
<path d="M263.896 185.802L262.621 185.623V185.013V184.931L262.56 179.575V179.167L262.389 163.953V163.167V161.914V161.396V160.539V160.136V159.832L262.357 156.811L262.339 155.344V154.062V153.216V152.091H263.714V153.333V154.183V155.162V156.458L263.742 159.721V160.436V161.182V161.703V162.342V163.174L263.874 179.142V179.553L263.917 184.863V184.948L263.896 185.802Z" fill="#D3DAE1"/>
<path d="M402.796 147.328V176.493C402.118 176.969 401.422 177.437 400.711 177.896L400.682 153.616V151.037L402.796 147.328Z" fill="#EAECF0"/>
<path d="M404.282 146.906V175.365C403.796 175.754 403.3 176.129 402.796 176.497V147.327L404.282 146.906Z" fill="#D3DAE1"/>
<path d="M371.124 188.237C370.246 188.416 369.364 188.594 368.482 188.748L368.45 162.357V161.214L370.996 160.143V162.564L371.124 188.237Z" fill="#EAECF0"/>
<path d="M372.802 159.307V187.873C372.245 187.994 371.688 188.109 371.131 188.23L371.013 162.567V160.146L371.181 160.068L372.802 159.307Z" fill="#D3DAE1"/>
<path d="M221.458 180.332L219.083 180.092L218.78 150.334V149.484V148.917H221.112V149.684V150.534L221.458 180.332Z" fill="#EAECF0"/>
<path d="M223.226 180.521L221.44 180.332L221.083 150.534V149.684V148.917H222.886V149.841V150.691L223.226 180.521Z" fill="#D3DAE1"/>
<path opacity="0.1" d="M371.163 160.071L372.795 159.304V162.907L371.206 163.439L371.163 160.071Z" fill="black"/>
<path opacity="0.1" d="M404.278 146.899V152.412L402.796 152.909L400.679 153.612L400.675 151.034L402.796 147.324L404.278 146.899Z" fill="black"/>
<path d="M404.278 136.301V151.566L371.206 162.589L370.992 146.263L404.278 136.301Z" fill="#D48A9B"/>
<path d="M218.341 135.241L261.803 126.971L404.278 136.301L370.992 146.263L218.341 135.241Z" fill="#EFC6CD"/>
<path opacity="0.1" d="M222.901 148.917L222.915 150.688L221.115 150.53L218.776 150.331L218.766 148.917H222.901Z" fill="black"/>
<path opacity="0.1" d="M263.624 154.187L262.25 154.065L260.322 153.901V151.516L262.228 152.094H263.607L263.624 154.187Z" fill="black"/>
<path d="M218.341 135.241V149.445L371.206 162.589L370.992 146.264L218.341 135.241Z" fill="#D48A9B"/>
<path d="M339.545 152.13H319.577V144.885L339.545 146.292V152.13Z" fill="#D48A9B"/>
<path opacity="0.1" d="M339.545 152.13H319.577V144.885L339.545 146.292V152.13Z" fill="black"/>
<path opacity="0.1" d="M292.758 143.296V154.744L369.403 160.575V148.384L339.509 146.688L336.538 149.338L324.348 148.492L320.002 145.31L292.758 143.296Z" fill="black"/>
<path d="M292.333 142.871V154.323L368.978 160.15V147.96L339.084 146.264L336.117 148.917L323.923 148.067L319.577 144.885L292.333 142.871Z" fill="white"/>
<path d="M245.053 139.797L263.182 141.072L262.971 146.831H251.134L243.218 143.721L245.053 139.797Z" fill="#D48A9B"/>
<path opacity="0.1" d="M245.053 139.797L263.182 141.072L262.971 146.831H251.134L243.218 143.721L245.053 139.797Z" fill="black"/>
<path opacity="0.1" d="M220.887 138.208V148.492L290.426 154.005V143.085L263.607 141.493L260.743 143.614L249.931 142.978L245.478 140.222L220.887 138.208Z" fill="black"/>
<path d="M220.462 137.783V148.067L290.001 153.58V142.661L263.182 141.072L260.322 143.189L249.506 142.553L245.053 139.797L220.462 137.783Z" fill="white"/>
<path opacity="0.1" d="M369.41 137.822L379.158 138.461L363.008 143.296L354.781 142.703L369.41 137.822Z" fill="black"/>
<path d="M369.41 137.401L379.158 138.037L363.008 142.871L354.781 142.279L369.41 137.401Z" fill="white"/>
<path d="M368.246 138.497C368.632 138.329 369.042 138.64 369.453 138.719C369.685 138.765 369.928 138.719 370.167 138.765C370.646 138.829 371.117 139.147 371.574 138.986L368.246 138.497Z" fill="#D3DAE1"/>
<path d="M367.743 138.786C368.125 138.622 368.535 138.933 368.946 139.011C369.182 139.054 369.424 139.011 369.66 139.054C370.135 139.118 370.61 139.44 371.067 139.279L367.743 138.786Z" fill="#D3DAE1"/>
<path d="M366.586 139.372C366.968 139.208 367.378 139.515 367.789 139.593C368.025 139.64 368.264 139.593 368.503 139.64C368.982 139.704 369.457 140.025 369.91 139.861L366.586 139.372Z" fill="#D3DAE1"/>
<path opacity="0.1" d="M303.641 132.473L325.376 133.898L320.745 140.55L296.85 137.997L303.641 132.473Z" fill="black"/>
<path d="M303.216 132.048L324.951 133.47L320.32 140.125L296.421 137.572L303.216 132.048Z" fill="#3A3768"/>
<path d="M304.173 132.538L323.13 133.698L319.092 139.118L298.25 137.037L304.173 132.538Z" fill="#D5E1F4"/>
<path d="M291.462 186.898C291.462 186.998 291.462 187.102 291.444 187.202C291.426 187.302 291.444 187.38 291.415 187.469C291.339 188.099 291.165 188.712 290.898 189.287C281.917 188.276 272.915 187.062 263.903 185.816L262.628 185.638L260.339 185.32L258.411 185.052C256.301 184.999 254.196 184.802 252.113 184.463C250.8 184.269 249.5 183.994 248.22 183.642C242.507 182.86 236.762 182.106 231.035 181.421L230.288 181.331C230.424 180.724 230.538 180.357 230.538 180.357C230.538 180.357 231.767 175.529 232.788 170.134C233.013 168.962 233.227 167.77 233.413 166.588C233.563 165.642 233.698 164.706 233.813 163.806C233.877 163.31 233.93 162.824 233.977 162.35C234.002 162.114 234.023 161.878 234.041 161.635C234.059 161.393 234.08 161.128 234.098 160.882C234.116 160.636 234.123 160.418 234.134 160.193V159.857C234.134 159.375 234.134 158.872 234.116 158.354C233.935 155.775 233.529 153.217 232.902 150.709C232.802 150.281 232.699 149.852 232.591 149.434C232.559 149.299 232.524 149.166 232.488 149.034C231.335 144.567 229.988 140.918 229.988 140.918C229.987 140.898 229.987 140.878 229.988 140.857C229.99 140.843 229.99 140.829 229.988 140.815C229.99 140.785 229.99 140.755 229.988 140.725C229.988 140.611 229.988 140.436 229.988 140.225C229.988 140.183 229.988 140.136 229.988 140.09C230.015 139.715 230.079 139.344 230.181 138.983C230.22 138.855 230.266 138.728 230.317 138.604C230.444 138.245 230.657 137.922 230.937 137.663C231.217 137.405 231.556 137.218 231.924 137.119C232.934 136.858 234.463 137.119 236.769 138.487C237.145 138.704 237.503 138.949 237.84 139.222C238.012 139.358 238.197 139.501 238.34 139.654C240.983 142.114 242.389 146.174 243.139 149.881C243.168 150.013 243.193 150.145 243.218 150.277C243.307 150.734 243.382 151.18 243.45 151.62C243.571 152.391 243.668 153.134 243.739 153.823C243.739 154.008 243.778 154.18 243.796 154.369C243.814 154.558 243.832 154.726 243.843 154.897C243.889 155.455 243.921 155.969 243.943 156.404C244.003 157.561 243.993 158.272 243.993 158.272V158.307C243.993 158.307 243.993 158.361 243.975 158.461C243.973 158.47 243.973 158.48 243.975 158.49C243.975 158.532 243.975 158.586 243.975 158.647C243.975 158.707 243.975 158.75 243.975 158.811C243.961 158.961 243.943 159.136 243.921 159.336C243.889 159.643 243.853 160.004 243.811 160.407C243.782 160.707 243.746 161.032 243.711 161.375C243.632 162.089 243.546 162.917 243.454 163.789C243.432 163.953 243.414 164.117 243.396 164.281C243.314 165.028 243.229 165.806 243.139 166.592C243.043 167.484 242.936 168.377 242.832 169.259C242.807 169.452 242.782 169.644 242.761 169.834C242.497 171.976 242.232 173.922 242.018 175.133C241.985 175.312 241.961 175.493 241.947 175.675C241.943 175.737 241.943 175.799 241.947 175.861C241.936 176.023 241.936 176.185 241.947 176.347C242.122 179.396 245.417 179.917 245.417 179.917L260.382 179.621L262.603 179.578L263.896 179.553L275.561 179.321L276.633 179.3L282.435 179.185C282.829 179.176 283.222 179.223 283.603 179.325C285.394 179.806 287.103 180.553 288.673 181.542C289.163 181.857 289.605 182.242 289.983 182.685C290.002 182.702 290.019 182.721 290.033 182.742C290.825 183.691 291.314 184.855 291.437 186.084C291.437 186.166 291.437 186.248 291.437 186.33C291.465 186.502 291.465 186.695 291.462 186.898Z" fill="#3A3768"/>
<path opacity="0.1" d="M291.462 186.898C291.462 186.998 291.462 187.102 291.444 187.202C291.426 187.302 291.444 187.38 291.415 187.469C291.33 188.099 291.15 188.712 290.88 189.287C281.899 188.276 272.898 187.062 263.885 185.816L262.61 185.638L260.322 185.32L258.393 185.052C256.283 184.999 254.179 184.802 252.095 184.463C250.782 184.269 249.482 183.994 248.203 183.642C242.489 182.86 236.744 182.106 231.017 181.421L230.271 181.331C230.406 180.703 230.528 180.321 230.528 180.321C230.528 180.321 231.531 176.393 232.484 171.633C232.552 171.305 232.616 170.976 232.681 170.644L232.777 170.141C232.999 168.973 233.213 167.773 233.402 166.595C233.552 165.649 233.688 164.713 233.802 163.813C233.866 163.317 233.92 162.831 233.966 162.357C233.991 162.121 234.013 161.885 234.03 161.642C234.048 161.4 234.07 161.135 234.088 160.889C234.105 160.643 234.113 160.425 234.123 160.2V159.864C234.123 159.382 234.123 158.879 234.105 158.361C233.93 155.782 233.527 153.224 232.902 150.716C232.802 150.283 232.699 149.858 232.591 149.441C232.556 149.306 232.524 149.174 232.488 149.041C231.331 144.56 229.988 140.89 229.988 140.89C229.99 140.881 229.99 140.873 229.988 140.865C229.99 140.85 229.99 140.836 229.988 140.822C229.99 140.792 229.99 140.762 229.988 140.732C229.988 140.618 229.988 140.443 229.988 140.232C229.988 140.19 229.988 140.143 229.988 140.097C230.011 139.723 230.072 139.352 230.171 138.99C230.21 138.865 230.253 138.736 230.303 138.611C230.431 138.233 230.654 137.892 230.95 137.623C231.246 137.354 231.606 137.165 231.995 137.072C233.006 136.837 234.516 137.13 236.773 138.451C237.164 138.681 237.537 138.941 237.887 139.229C238.055 139.368 238.215 139.508 238.372 139.658C240.993 142.132 242.389 146.185 243.132 149.881C243.161 150.013 243.186 150.148 243.211 150.28C243.3 150.734 243.375 151.184 243.443 151.619C243.564 152.391 243.657 153.13 243.729 153.815C243.746 154.005 243.768 154.19 243.782 154.369C243.796 154.547 243.818 154.726 243.828 154.897C243.875 155.454 243.907 155.969 243.928 156.404C243.989 157.561 243.978 158.272 243.978 158.272V158.393C243.978 158.415 243.978 158.436 243.978 158.461C243.976 158.47 243.976 158.48 243.978 158.49C243.978 158.532 243.978 158.586 243.978 158.647C243.978 158.707 243.978 158.75 243.978 158.811C243.964 158.961 243.946 159.136 243.925 159.336C243.893 159.643 243.857 160.003 243.814 160.407C243.778 160.703 243.746 161.028 243.711 161.375C243.632 162.089 243.546 162.917 243.454 163.788C243.432 163.953 243.414 164.117 243.396 164.281C243.314 165.027 243.225 165.813 243.139 166.599C243.036 167.491 242.932 168.384 242.825 169.262C242.8 169.455 242.779 169.648 242.754 169.837C242.493 171.98 242.232 173.897 242.018 175.1C241.983 175.293 241.959 175.487 241.947 175.682C241.943 175.744 241.943 175.806 241.947 175.868C241.936 176.03 241.936 176.192 241.947 176.354C242.15 179.367 245.417 179.871 245.417 179.871L260.382 179.578L262.6 179.532L263.896 179.507L275.583 179.278L276.675 179.257L282.456 179.142C282.85 179.13 283.244 179.177 283.624 179.282C285.429 179.75 287.152 180.49 288.734 181.478C289.233 181.797 289.68 182.189 290.062 182.642C290.081 182.659 290.097 182.678 290.112 182.699C290.903 183.652 291.386 184.822 291.497 186.055C291.497 186.137 291.497 186.22 291.497 186.302C291.465 186.502 291.465 186.695 291.462 186.898Z" fill="black"/>
<path d="M291.487 189.34L290.898 189.273C281.917 188.262 272.915 187.048 263.903 185.802L262.628 185.623L260.339 185.306L258.411 185.038C256.301 184.985 254.196 184.788 252.113 184.449C250.8 184.254 249.5 183.98 248.22 183.627C242.507 182.845 236.762 182.092 231.035 181.406C231.128 180.905 231.247 180.409 231.392 179.921C231.392 179.921 234.784 166.563 234.995 159.461C235.07 156.922 234.566 153.78 233.884 150.784C233.784 150.352 233.684 149.923 233.577 149.502L233.481 149.102C232.27 144.407 230.831 140.479 230.831 140.479C230.798 139.993 230.825 139.504 230.913 139.026C230.935 138.897 230.964 138.769 230.999 138.644C231.136 138.045 231.458 137.505 231.92 137.101C231.941 137.082 231.964 137.066 231.988 137.051C232.927 136.337 234.612 136.287 237.612 138.044C238.22 138.402 238.782 138.832 239.287 139.326C239.429 139.461 239.572 139.604 239.708 139.75C242.118 142.361 243.396 146.36 244.068 149.938L244.143 150.334C244.221 150.78 244.289 151.22 244.353 151.644C244.353 151.644 244.353 151.669 244.353 151.68C244.436 152.244 244.503 152.784 244.56 153.298C244.728 154.812 244.814 156.334 244.818 157.857C244.818 157.857 244.678 159.268 244.461 161.3C244.378 162.096 244.282 162.989 244.178 163.931C244.178 163.978 244.178 164.024 244.178 164.074L244.125 164.574C243.943 166.22 243.743 167.977 243.539 169.605C243.518 169.805 243.493 170.001 243.468 170.194C243.239 172.026 243.011 173.654 242.822 174.715C242.079 178.85 246.214 179.485 246.214 179.485L260.332 179.207L262.546 179.164L263.842 179.135H264.385H264.56L275.758 178.914H276.829L283.256 178.785C283.65 178.775 284.044 178.824 284.424 178.928C286.23 179.396 287.953 180.135 289.537 181.121C289.981 181.407 290.385 181.751 290.74 182.142C290.763 182.164 290.783 182.188 290.801 182.213C291.641 183.183 292.157 184.39 292.28 185.668C292.403 186.944 292.126 188.228 291.487 189.34Z" fill="#3A3768"/>
<path d="M341.962 124.796L346.329 134.152H345.597L340.477 124.907L341.962 124.796Z" fill="#4C4C56"/>
<path opacity="0.1" d="M341.962 124.796L346.329 134.152H345.597L340.477 124.907L341.962 124.796Z" fill="black"/>
<path d="M341.962 134.152H346.329V135.13L341.962 135.241V134.152Z" fill="#4C4C56"/>
<path opacity="0.1" d="M341.962 134.152H346.329V135.13L341.962 135.241V134.152Z" fill="black"/>
<path d="M307.994 90.3712V123.04C307.994 123.682 308.249 124.299 308.704 124.754C309.159 125.208 309.775 125.464 310.419 125.464H364.872C365.193 125.464 365.511 125.4 365.804 125.276C366.1 125.152 366.368 124.97 366.593 124.742C366.818 124.513 366.993 124.242 367.111 123.944C367.232 123.646 367.289 123.328 367.282 123.007L366.664 90.3105C366.654 89.6792 366.393 89.0779 365.943 88.6358C365.493 88.1941 364.886 87.9463 364.254 87.9467H310.419C310.1 87.9467 309.785 88.0091 309.491 88.1309C309.197 88.253 308.929 88.4316 308.704 88.6565C308.479 88.8818 308.3 89.1489 308.179 89.4431C308.057 89.7374 307.994 90.0527 307.994 90.3712Z" fill="#4C4C56"/>
<path opacity="0.1" d="M307.994 90.3712V123.04C307.994 123.682 308.249 124.299 308.704 124.754C309.159 125.208 309.775 125.464 310.419 125.464H364.872C365.193 125.464 365.511 125.4 365.804 125.276C366.1 125.152 366.368 124.97 366.593 124.742C366.818 124.513 366.993 124.242 367.111 123.944C367.232 123.646 367.289 123.328 367.282 123.007L366.664 90.3105C366.654 89.6792 366.393 89.0779 365.943 88.6358C365.493 88.1941 364.886 87.9463 364.254 87.9467H310.419C310.1 87.9467 309.785 88.0091 309.491 88.1309C309.197 88.253 308.929 88.4316 308.704 88.6565C308.479 88.8818 308.3 89.1489 308.179 89.4431C308.057 89.7374 307.994 90.0527 307.994 90.3712Z" fill="black"/>
<path d="M306.03 90.3712V123.04C306.03 123.683 306.285 124.299 306.74 124.754C307.195 125.208 307.812 125.464 308.455 125.464H362.908C363.229 125.464 363.544 125.4 363.84 125.276C364.136 125.152 364.404 124.97 364.629 124.741C364.85 124.513 365.029 124.242 365.147 123.944C365.265 123.646 365.322 123.328 365.315 123.007L364.697 90.3105C364.686 89.6799 364.426 89.0793 363.976 88.6373C363.526 88.1952 362.922 87.9474 362.29 87.9467H308.469C308.149 87.9446 307.833 88.006 307.537 88.127C307.241 88.2481 306.972 88.4263 306.745 88.6516C306.519 88.8769 306.339 89.145 306.216 89.44C306.093 89.7349 306.03 90.0516 306.03 90.3712Z" fill="#4C4C56"/>
<path d="M308.173 92.4136V121.176C308.173 121.819 308.428 122.435 308.883 122.89C309.337 123.345 309.954 123.6 310.597 123.6H361.019C361.658 123.6 362.272 123.346 362.722 122.894C363.176 122.442 363.429 121.829 363.429 121.19V92.3958C363.429 91.7573 363.172 91.1453 362.722 90.694C362.269 90.2427 361.658 89.9891 361.019 89.9891H310.597C309.954 89.9891 309.337 90.2448 308.883 90.6993C308.428 91.1539 308.173 91.7709 308.173 92.4136Z" fill="#EF5B59"/>
<path d="M329.99 124.929L334.778 134.152H345.597L340.188 123.6L329.99 124.929Z" fill="#4C4C56"/>
<path d="M326.176 134.152L325.376 135.13H341.962V134.152H326.176Z" fill="#4C4C56"/>
<path d="M255.118 95.614C255.411 97.1951 255.704 98.7784 256.24 100.287C256.243 100.298 256.247 100.308 256.251 100.319C256.257 100.333 256.263 100.35 256.269 100.373C256.201 100.348 256.139 100.311 256.087 100.262C255.981 100.15 255.904 100.014 255.862 99.8657C255.317 98.3456 255.019 96.7541 254.722 95.167C254.36 93.2306 253.999 91.2999 253.191 89.5106C252.957 89.0482 252.753 88.5712 252.58 88.0823C252.547 87.9791 252.52 87.8742 252.498 87.7681L252.58 87.7181L252.67 87.6824L252.759 87.6574L252.848 87.636C252.867 87.9516 252.922 88.2644 253.012 88.5679C253.184 89.0561 253.385 89.5331 253.616 89.9962C254.407 91.773 254.762 93.6919 255.118 95.614Z" fill="url(#paint1_linear_1_404)"/>
<path d="M268.181 102.165C267.618 102.798 267.156 103.514 266.81 104.286C266.756 104.404 266.702 104.518 266.652 104.643C265.074 108.214 264.539 113.267 264.539 113.267C264.539 113.267 263.56 112.827 262.175 112.142C259.593 110.863 255.608 108.735 253.998 107.039C253.284 106.272 253.027 105.593 253.619 105.118C253.748 105.015 253.88 104.897 254.012 104.761C254.469 104.305 254.886 103.81 255.258 103.283C255.773 102.569 256.28 101.772 256.758 100.955C257.04 100.476 257.308 99.9943 257.558 99.5265L257.658 99.3408C258.729 97.3091 259.511 95.5737 259.511 95.5737C259.511 95.5737 259.868 95.688 260.447 95.8915C263.114 96.8449 270.459 99.7408 268.181 102.165Z" fill="#EFB7B9"/>
<path d="M317.057 184.895C317.057 184.895 317.492 188.13 318.046 191.544L316.778 191.479C313.388 191.303 309.995 191.078 306.598 190.804C304.67 186.338 302.67 181.035 302.67 180.953C302.67 180.871 302.609 179.125 302.542 177.175C302.52 176.49 302.495 175.783 302.474 175.118C302.438 174.111 302.406 173.204 302.388 172.64C302.388 172.255 302.367 172.026 302.367 172.026C302.367 172.026 300.531 172.348 298.882 172.572L298.15 172.669C297.771 172.715 297.435 172.751 297.132 172.772C296.871 172.812 296.604 172.812 296.343 172.772C295.779 172.555 296.95 167.059 296.95 167.059L299.864 160.007L300.678 158.043L301.035 157.954C301.21 157.911 301.445 157.861 301.727 157.808C304.509 157.297 311.94 156.647 313.2 163.981C314.761 173.04 314.986 175.076 314.986 175.076L317.057 184.895Z" fill="#EFB7B9"/>
<path opacity="0.05" d="M317.057 184.895C317.057 184.895 317.492 188.13 318.046 191.544L316.778 191.479C313.388 191.303 309.995 191.078 306.598 190.804C304.67 186.338 302.67 181.035 302.67 180.953C302.67 180.871 302.609 179.125 302.542 177.175C302.52 176.49 302.495 175.783 302.474 175.118C302.438 174.111 302.406 173.204 302.388 172.64C302.388 172.255 302.367 172.026 302.367 172.026C302.367 172.026 300.531 172.348 298.882 172.572L298.15 172.669C297.771 172.715 297.435 172.751 297.132 172.772C296.871 172.812 296.604 172.812 296.343 172.772C295.779 172.555 296.95 167.059 296.95 167.059L299.864 160.007L300.678 158.043L301.035 157.954C301.21 157.911 301.445 157.861 301.727 157.808C304.509 157.297 311.94 156.647 313.2 163.981C314.761 173.04 314.986 175.076 314.986 175.076L317.057 184.895Z" fill="black"/>
<path d="M316.778 191.479C313.388 191.303 309.995 191.078 306.598 190.804L305.312 190.701L304.745 190.654C303.145 186.795 301.724 183.02 301.724 182.952C301.724 182.885 301.663 181.124 301.595 179.175C301.513 176.739 301.42 174.026 301.42 174.026L301.181 174.065L301.081 174.083H301.038H300.953L300.378 174.179L300.064 174.229C299.496 174.322 298.81 174.426 298.139 174.522L297.989 174.543L297.596 174.593L297.239 174.636C296.964 174.672 296.703 174.701 296.468 174.722L296.179 174.747C295.917 174.789 295.651 174.789 295.389 174.747C294.825 174.529 295.996 169.034 295.996 169.034L299.724 160.018L299.853 159.982C300.049 159.932 300.463 159.836 301.024 159.739C301.235 159.704 301.467 159.668 301.717 159.636C304.952 159.222 311.108 159.339 312.247 165.956C313.807 175.015 314.032 177.05 314.032 177.05L316.114 186.898C316.114 186.898 316.385 188.933 316.778 191.479Z" fill="#EFB7B9"/>
<path opacity="0.1" d="M301.595 179.175C301.513 176.739 301.42 174.022 301.42 174.022C301.42 174.022 297.85 174.647 296.186 174.768L296.521 173.633C296.521 173.633 302.634 171.944 302.763 172.897C302.856 173.565 302.07 177.114 301.595 179.175Z" fill="black"/>
<path opacity="0.1" d="M301.724 157.79V160.371C301.724 160.371 301.42 165.013 299.035 172.115C298.985 172.269 298.932 172.419 298.874 172.569C298.625 173.252 298.329 173.918 297.989 174.561C297.318 174.654 296.668 174.733 296.186 174.768C295.924 174.808 295.658 174.808 295.397 174.768C294.832 174.551 296 169.055 296 169.055L299.728 160.043L299.86 160.007L300.671 158.04C300.671 158.04 301.07 157.911 301.724 157.79Z" fill="black"/>
<path d="M301.031 157.383V160.371C301.031 160.371 300.728 165.013 298.342 172.119C298.282 172.305 298.214 172.476 298.146 172.665C298.078 172.854 297.989 173.079 297.9 173.279C297.703 173.754 297.482 174.215 297.25 174.658C295.382 178.196 292.536 180.728 290.73 182.12C290.465 182.324 290.219 182.502 290.016 182.652H289.998C289.641 182.895 289.384 183.07 289.219 183.174C289.055 183.277 289.041 183.284 289.041 183.284C287.348 182.245 282.539 182.07 282.539 182.07L271.312 184.109C268.858 184.532 266.382 184.813 263.896 184.952L262.621 185.013C261.886 185.041 261.121 185.059 260.339 185.063C259.707 185.063 259.065 185.063 258.411 185.038C256.301 184.984 254.196 184.788 252.113 184.449C250.966 184.26 249.832 184.009 248.713 183.695C247.916 183.474 247.13 183.212 246.36 182.91C238.505 179.824 240.551 172.508 241.875 169.341C241.947 169.173 242.015 169.019 242.079 168.877C242.372 168.23 242.589 167.852 242.589 167.852L243.111 166.591L243.964 164.524L244.153 164.071L244.207 163.938L244.839 162.407L253.766 161.25L260.325 160.4L262.321 160.143L263.674 159.968L266.256 159.632L267.227 159.507C267.826 159.414 268.431 159.366 269.038 159.364C269.365 159.349 269.693 159.398 270.002 159.507C270.716 159.832 276.158 158.943 276.158 158.943C276.158 158.943 280.403 157.643 284.131 158.075C285.975 158.202 287.824 158.214 289.669 158.111L290.126 158.09L290.719 158.065H290.848C295.675 157.84 301.031 157.383 301.031 157.383Z" fill="#444053"/>
<path opacity="0.1" d="M268.913 166.352C268.913 166.352 264.628 176.104 264.449 176.275C264.271 176.447 264.278 179.489 264.449 179.31C264.621 179.132 270.562 165.963 270.562 165.963L268.913 166.352Z" fill="black"/>
<path opacity="0.1" d="M289.673 158.104C289.673 158.104 287.505 159.504 286.855 160.632C286.206 161.76 280.268 172.983 278.796 174.629C277.575 176.102 276.473 177.67 275.501 179.317C275.329 179.614 275.329 181.478 276.368 179.7C277.407 177.921 277.15 177.621 279.186 175.415C281.221 173.208 283.47 168.22 284.342 167.223C285.213 166.227 286.423 163.235 287.941 161.457L290.848 158.061L289.673 158.104Z" fill="black"/>
<path opacity="0.1" d="M290.194 177.361C290.194 177.361 288.677 176.322 287.248 178.096C285.82 179.871 290.194 177.361 290.194 177.361Z" fill="black"/>
<path opacity="0.1" d="M292.058 177.896C292.058 177.896 290.801 180.089 290.194 180.264C289.587 180.439 292.058 177.896 292.058 177.896Z" fill="black"/>
<path opacity="0.1" d="M290.194 178.443C290.194 178.443 289.198 180.178 288.33 180.003L290.194 178.443Z" fill="black"/>
<path d="M283.178 131.591C283.178 131.591 292.365 131.202 293.276 130.899C294.186 130.595 302.245 129.556 302.245 129.556C302.245 129.556 326.126 131.245 319.324 133.284C312.522 135.323 303.288 134.452 303.288 134.452C303.288 134.452 294.272 136.794 292.886 138.022C291.501 139.251 281.271 139.279 281.271 139.279L283.178 131.591Z" fill="#EFB7B9"/>
<path opacity="0.05" d="M283.178 131.591C283.178 131.591 292.365 131.202 293.276 130.899C294.186 130.595 302.245 129.556 302.245 129.556C302.245 129.556 326.126 131.245 319.324 133.284C312.522 135.323 303.288 134.452 303.288 134.452C303.288 134.452 294.272 136.794 292.886 138.022C291.501 139.251 281.271 139.279 281.271 139.279L283.178 131.591Z" fill="black"/>
<path d="M250.495 110.66C250.495 110.66 242.086 113.516 246.16 120.801C250.234 128.085 255.48 131.513 255.48 131.513L269.002 140.875C269.002 140.875 274.679 144.125 277.279 142.782L281.524 142.425L282.239 131.284C282.239 131.284 278.668 134.059 274.783 130.213C270.898 126.367 266.113 123.754 265.724 121.676C265.335 119.597 255.39 108.882 250.495 110.66Z" fill="#A36468"/>
<path d="M277.061 134.237C277.061 134.237 281.439 135.798 281.267 135.883C281.096 135.969 277.061 137.487 277.061 137.487L277.365 143.425L283.303 143.1C283.303 143.1 285.47 132.288 283.606 131.202L277.061 130.899V134.237Z" fill="#67647E"/>
<path opacity="0.1" d="M277.061 134.237C277.061 134.237 281.439 135.798 281.267 135.883C281.096 135.969 277.061 137.487 277.061 137.487L277.365 143.425L283.303 143.1C283.303 143.1 285.47 132.288 283.606 131.202L277.061 130.899V134.237Z" fill="black"/>
<path opacity="0.1" d="M268.181 102.165C267.618 102.798 267.156 103.514 266.81 104.286C266.756 104.404 266.702 104.518 266.652 104.643C263.464 104.643 261.171 102.165 259.215 99.9479C258.858 99.5372 257.954 100.159 257.658 99.6979C257.626 99.6444 257.594 99.5908 257.558 99.5372L257.658 99.3516C258.729 97.3198 259.511 95.5845 259.511 95.5845C259.511 95.5845 259.868 95.6987 260.447 95.9023C263.114 96.8449 270.459 99.7408 268.181 102.165Z" fill="black"/>
<path d="M277.465 93.5419C277.464 96.3746 276.345 99.0922 274.351 101.104C272.357 103.116 269.649 104.26 266.817 104.286H266.713C265.187 104.287 263.679 103.963 262.289 103.335C260.899 102.707 259.658 101.79 258.65 100.644C258.29 100.235 257.961 99.7992 257.665 99.3408C256.763 97.9346 256.2 96.3374 256.022 94.6763C255.845 93.0149 256.057 91.3349 256.642 89.7698C257.227 88.2048 258.168 86.7976 259.392 85.66C260.616 84.522 262.088 83.6854 263.691 83.2158C265.295 82.7459 266.986 82.6566 268.63 82.9544C270.273 83.2522 271.826 83.9292 273.163 84.9315C274.499 85.9338 275.584 87.2336 276.331 88.7283C277.078 90.223 277.466 91.8712 277.465 93.5419Z" fill="#EFB7B9"/>
<path opacity="0.1" d="M266.531 160.196C266.531 160.196 265.713 161.196 264.81 162.128C264.128 162.842 263.4 163.496 262.932 163.663C261.861 164.056 256.951 167.78 256.951 167.78C256.951 167.78 253.052 170.426 252.055 171.205C251.059 171.983 247.46 171.508 247.46 171.508C247.46 171.508 243.996 170.751 241.85 169.366C242.059 168.857 242.297 168.361 242.564 167.88L244.818 162.417L253.744 161.264L266.531 160.196Z" fill="black"/>
<path d="M266.356 159.504C266.356 159.504 265.542 160.503 264.639 161.435C263.957 162.15 263.21 162.803 262.76 162.971C261.689 163.36 256.779 167.088 256.779 167.088C256.779 167.088 252.877 169.734 251.88 170.512C250.884 171.291 247.289 170.816 247.289 170.816C247.289 170.816 242.347 169.744 240.611 167.781C239.397 166.413 240.654 163.878 241.511 162.482C241.868 161.885 242.172 161.496 242.172 161.496L266.356 159.504Z" fill="#67647E"/>
<path d="M272.773 125.914C269.823 125.653 260.114 113.774 260.114 113.774L260.336 113.47L262.371 110.653H267.131L267.656 113.252C271.276 118.33 273.408 121.861 273.987 123.882C274.404 125.353 274.008 126.025 272.773 125.914Z" fill="#67647E"/>
<path opacity="0.1" d="M272.773 125.914C269.823 125.653 260.114 113.774 260.114 113.774L260.336 113.47C262.076 115.067 263.711 116.775 265.231 118.583C272.337 126.946 273.744 124.611 273.987 123.882C274.404 125.353 274.008 126.025 272.773 125.914Z" fill="black"/>
<path opacity="0.1" d="M266.356 159.504C266.356 159.504 265.542 160.503 264.639 161.435C264.162 161.62 263.66 161.729 263.15 161.757C262.021 161.714 259.422 163.492 259.422 163.492C259.422 163.492 254.83 163.231 253.962 163.706C253.094 164.181 249.756 164.271 249.756 164.271C243.646 166.013 241.957 163.367 241.511 162.485C241.868 161.889 242.172 161.5 242.172 161.5L266.356 159.504Z" fill="black"/>
<path d="M276.968 133.695C276.968 133.862 276.936 134.03 276.915 134.191C276.893 134.352 276.872 134.516 276.847 134.669C276.731 135.552 276.467 136.408 276.065 137.201C275.286 138.501 272.901 143.571 272.901 143.571L272.74 144.507L272.658 144.996L272.573 145.478L271.991 148.895L271.73 152.841C271.73 152.841 270.302 154.833 269.695 155.697C269.088 156.561 269.173 157.822 269.391 158.732C269.609 159.643 267.399 159.771 267.399 159.771C267.399 159.771 264.278 161.289 263.15 161.246C262.021 161.203 259.422 162.974 259.422 162.974C259.422 162.974 254.83 162.714 253.962 163.192C253.094 163.671 249.756 163.756 249.756 163.756C243.214 165.617 241.74 162.453 241.436 161.803C241.133 161.153 242.736 158.511 242.736 158.511C242.736 158.511 243.093 155.172 243.775 154.912C244.457 154.651 245.292 150.234 245.292 150.234C245.292 150.234 245.032 148.888 245.596 148.152C246.16 147.417 246.117 145.335 246.853 144.339C247.588 143.343 246.074 140.004 246.335 139.136C246.596 138.269 245.51 134.759 245.596 133.848C245.682 132.938 245.382 132.202 244.685 130.381C244.093 128.828 244.261 121.925 244.328 119.947C244.328 119.612 244.346 119.419 244.346 119.419C244.346 119.419 244.953 117.466 246.557 113.566C247.771 110.613 250.502 109.496 251.755 109.132C251.97 109.067 252.189 109.013 252.409 108.971C252.723 109.016 253.032 109.094 253.33 109.203C254.594 109.628 257.122 110.831 260.729 114.202C262.324 115.697 263.83 117.285 265.238 118.958C273.369 128.513 274.033 124.054 274.033 124.054C274.033 124.054 274.39 124.868 276.065 128.117C276.961 129.845 277.125 131.909 276.968 133.695Z" fill="#A36468"/>
<path opacity="0.1" d="M263.582 110.128L255.426 103.622C255.426 103.622 252.487 103.979 251.273 108.914L259.668 116.266L263.582 110.128Z" fill="black"/>
<path d="M263.582 110.128L262.153 112.124L260.704 114.17L259.611 115.773L252.909 110.128L251.755 109.128L251.109 108.578C251.763 105.911 252.923 104.579 253.848 103.936C254.268 103.615 254.757 103.396 255.276 103.297L263.582 110.128Z" fill="#67647E"/>
<path d="M319.667 135.883C312.861 137.919 303.631 137.055 303.631 137.055C303.631 137.055 294.615 139.393 293.229 140.625C292.337 141.407 287.777 141.697 284.66 141.814C282.928 141.879 281.632 141.882 281.632 141.882L283.535 134.195L284.635 134.145C287.102 134.03 292.919 133.737 293.633 133.498C294.543 133.195 302.602 132.156 302.602 132.156C302.602 132.156 326.469 133.845 319.667 135.883Z" fill="#EFB7B9"/>
<path opacity="0.1" d="M276.847 134.652C276.731 135.534 276.467 136.389 276.065 137.183C275.286 138.483 272.901 143.553 272.901 143.553L272.573 145.478C271.466 145.067 270.392 144.572 269.359 144L255.826 134.627C255.826 134.627 250.581 131.202 246.507 123.914C242.432 116.627 250.841 113.774 250.841 113.774C255.737 111.988 265.663 122.7 266.053 124.782C266.442 126.864 271.212 129.463 275.111 133.32C275.626 133.842 276.209 134.29 276.847 134.652Z" fill="black"/>
<path opacity="0.1" d="M276.968 133.695C276.936 134.034 276.897 134.359 276.847 134.669C276.731 135.551 276.467 136.407 276.065 137.201C275.286 138.501 272.901 143.571 272.901 143.571L272.74 144.507C271.57 144.084 270.436 143.569 269.348 142.964L255.826 133.587C255.826 133.587 250.581 130.163 246.507 122.875C242.432 115.587 250.841 112.731 250.841 112.731C255.737 110.946 265.663 121.658 266.053 123.739C266.442 125.821 271.212 128.421 275.111 132.281C275.656 132.842 276.282 133.319 276.968 133.695Z" fill="black"/>
<path d="M282.567 133.891L281.874 145.028L277.625 145.385C277.532 145.434 277.435 145.476 277.336 145.51C274.629 146.503 269.348 143.478 269.348 143.478L255.826 134.105C255.826 134.105 250.581 130.681 246.507 123.393C242.432 116.105 250.841 113.252 250.841 113.252C255.737 111.467 265.663 122.179 266.053 124.261C266.442 126.342 271.212 128.942 275.111 132.798C275.683 133.373 276.341 133.855 277.061 134.227C277.922 134.679 278.89 134.886 279.861 134.828C280.832 134.768 281.768 134.444 282.567 133.891Z" fill="#A36468"/>
<path opacity="0.1" d="M282.567 133.891L281.874 145.028L277.625 145.385C277.532 145.434 277.435 145.476 277.336 145.51L277.061 140.097C277.061 140.097 281.092 138.579 281.267 138.494C281.442 138.408 277.061 136.848 277.061 136.848V134.259C277.925 134.706 278.895 134.909 279.865 134.844C280.836 134.779 281.77 134.449 282.567 133.891Z" fill="black"/>
<path opacity="0.1" d="M284.642 141.797C282.91 141.861 281.614 141.864 281.614 141.864L283.535 134.195L284.635 134.145C285.342 135.362 285.038 138.94 284.642 141.797Z" fill="black"/>
<path d="M277.407 136.837C277.407 136.837 281.785 138.397 281.614 138.483C281.442 138.569 277.407 140.086 277.407 140.086L277.711 146.024L283.649 145.699C283.649 145.699 285.816 134.887 283.953 133.802L277.407 133.498V136.837Z" fill="#67647E"/>
<path opacity="0.1" d="M251.448 143.946C251.448 143.946 249.974 145.331 248.76 145.699L251.448 143.946Z" fill="black"/>
<path opacity="0.1" d="M247.938 148.063C247.938 148.063 251.534 147.931 251.966 147.195C252.398 146.46 247.938 148.063 247.938 148.063Z" fill="black"/>
<path opacity="0.1" d="M246.16 153.219C246.378 153.219 250.709 152.612 250.884 152.048L246.16 153.219Z" fill="black"/>
<path opacity="0.1" d="M244.818 156.515C246.378 156.468 249.02 154.78 249.02 154.78L244.818 156.515Z" fill="black"/>
<path opacity="0.1" d="M254.916 157.379C254.916 157.379 264.321 157.379 264.753 155.647C265.185 153.915 254.916 157.379 254.916 157.379Z" fill="black"/>
<path opacity="0.1" d="M261.978 133.152C262.153 133.152 269.391 133.152 270.084 132.156C270.777 131.159 261.978 133.152 261.978 133.152Z" fill="black"/>
<path opacity="0.1" d="M254.009 104.772C254.067 105.126 254.098 105.484 254.101 105.843C254.101 106.242 254.066 106.64 253.994 107.032C253.851 107.777 253.626 108.504 253.323 109.199L253.248 109.374C253.141 109.624 253.027 109.867 252.909 110.11C252.378 111.192 251.752 112.225 251.038 113.195C249.408 115.359 247.523 117.32 245.425 119.033C245.06 119.34 244.693 119.644 244.321 119.944C244.321 119.608 244.339 119.415 244.339 119.415C244.339 119.415 244.946 117.462 246.549 113.563C247.763 110.61 250.495 109.492 251.748 109.128L251.102 108.578C251.755 105.911 252.916 104.579 253.841 103.936C253.898 104.201 253.966 104.479 254.009 104.772Z" fill="black"/>
<path opacity="0.1" d="M275.893 87.9609C275.783 87.9881 275.678 88.0302 275.579 88.0859C274.901 88.4608 274.704 89.3499 274.151 89.9105C273.512 90.5711 272.512 90.6711 271.601 90.7853C270.691 90.8996 269.673 91.1246 269.191 91.9065C268.834 92.4886 268.866 93.2206 268.738 93.8919C268.724 94.0126 268.676 94.1265 268.598 94.2204C268.476 94.32 268.321 94.3707 268.163 94.3632C266.377 94.4882 265.078 93.874 263.407 93.4419C262.621 93.242 261.707 93.267 261.107 93.799C260.564 94.2882 260.414 95.088 260.429 95.82V95.8843C260.505 96.5956 260.527 97.3119 260.493 98.0267C260.411 98.5795 260.199 99.1051 259.874 99.56C259.549 100.015 259.121 100.386 258.626 100.644C258.208 100.868 257.748 100.999 257.276 101.03C257.093 101.049 256.909 101.022 256.74 100.951C257.058 100.408 257.361 99.8799 257.64 99.3408C256.865 98.1428 256.337 96.8031 256.085 95.3987C255.833 93.9947 255.863 92.5543 256.174 91.1621C256.484 89.7698 257.069 88.453 257.893 87.2889C258.717 86.1245 259.765 85.1361 260.975 84.3809C262.185 83.6254 263.534 83.1187 264.942 82.8894C266.35 82.6606 267.789 82.7141 269.176 83.0469C270.563 83.3797 271.87 83.9853 273.021 84.8283C274.172 85.6714 275.144 86.7351 275.879 87.9574L275.893 87.9609Z" fill="black"/>
<path d="M278.836 86.5898C278.705 86.8819 278.499 87.1347 278.239 87.3218C277.425 87.8503 276.258 87.2682 275.408 87.7396C274.726 88.1145 274.533 89.0036 273.98 89.5642C273.344 90.2248 272.344 90.3248 271.43 90.439C270.516 90.5533 269.505 90.7782 269.02 91.5602C268.663 92.1422 268.698 92.8707 268.566 93.5455C268.554 93.6666 268.506 93.7808 268.427 93.874C268.304 93.9726 268.149 94.0233 267.991 94.0169C266.206 94.1418 264.906 93.5241 263.235 93.0956C262.453 92.8957 261.539 92.9207 260.939 93.4527C260.339 93.9847 260.247 94.7453 260.257 95.4773C260.332 96.2079 260.354 96.9427 260.325 97.6768C260.202 98.4642 259.818 99.1876 259.236 99.7318C258.653 100.276 257.906 100.609 257.112 100.68C256.996 100.697 256.878 100.691 256.764 100.662C256.651 100.634 256.544 100.582 256.451 100.512C256.348 100.4 256.273 100.266 256.233 100.119C255.044 96.777 255.055 93.0671 253.612 89.8249C253.379 89.3625 253.178 88.8854 253.009 88.3966C252.98 88.2966 252.952 88.193 252.93 88.0895C252.888 87.8831 252.859 87.6746 252.845 87.4646C252.697 87.4857 252.557 87.5432 252.437 87.6324C252.395 87.6685 252.357 87.7092 252.323 87.7538C252.119 88.0952 252.015 88.4876 252.023 88.8858C251.757 93.3499 252.19 97.8279 253.309 102.158C253.65 103.239 253.858 104.358 253.926 105.49C253.887 106.713 253.595 107.915 253.069 109.021C250.831 114.184 246.332 117.966 241.857 121.383C242.317 120.89 242.672 120.309 242.9 119.675C243.129 119.041 243.226 118.367 243.186 117.694C243.109 117.951 242.962 118.182 242.763 118.361C242.563 118.539 242.318 118.66 242.054 118.708C241.525 118.798 240.984 118.79 240.458 118.683C241.143 118.458 241.411 117.651 241.583 116.952C241.932 115.523 242.257 114.082 242.557 112.627C242.877 111.239 243.087 109.828 243.186 108.407C243.239 107.2 243.146 105.989 243.096 104.779C242.99 101.46 243.11 98.1375 243.454 94.8346C243.718 91.978 244.196 88.8893 246.292 86.9397C247.197 86.1752 248.207 85.545 249.292 85.0687C249.292 84.7116 251.909 83.9975 252.255 83.9475C252.399 83.9193 252.545 83.9028 252.691 83.8975C252.878 83.8703 253.069 83.9028 253.236 83.9907C253.404 84.0785 253.539 84.2171 253.623 84.3867C253.751 84.1546 253.894 83.926 254.044 83.7082C254.251 83.4083 254.477 83.1234 254.723 82.8548C256.083 81.3551 257.847 80.2982 259.422 79.027C260 78.5086 260.626 78.0469 261.293 77.6487C262.164 77.2103 263.121 76.9667 264.096 76.9346C265.708 76.8436 267.321 77.0967 268.827 77.6773C270.998 78.5129 272.894 80.0126 275.14 80.6196C275.695 80.7396 276.242 80.891 276.779 81.0731C277.294 81.2769 277.761 81.5862 278.149 81.9814C278.538 82.3764 278.839 82.8484 279.034 83.3672C279.23 83.8857 279.314 84.4395 279.282 84.9926C279.25 85.5457 279.103 86.086 278.85 86.5791L278.836 86.5898Z" fill="#444053"/>
<g opacity="0.1">
<path opacity="0.1" d="M242.675 118.573C242.936 117.902 243.047 117.183 243 116.466C242.922 116.723 242.775 116.953 242.574 117.132C242.374 117.311 242.128 117.431 241.865 117.48C241.729 117.512 241.59 117.533 241.45 117.541C241.272 118.112 240.99 118.662 240.443 118.84C240.969 118.948 241.51 118.957 242.04 118.869C242.269 118.813 242.485 118.712 242.675 118.573Z" fill="black"/>
<path opacity="0.1" d="M279.093 83.7439C279.066 84.3084 278.92 84.8612 278.664 85.365C278.529 85.6507 278.323 85.8967 278.064 86.0791C277.254 86.6076 276.083 86.0291 275.233 86.4969C274.554 86.8718 274.358 87.7645 273.805 88.3215C273.165 88.9821 272.166 89.0857 271.255 89.1964C270.345 89.3071 269.327 89.5534 268.845 90.3176C268.488 90.8996 268.52 91.6316 268.391 92.3029C268.389 92.3732 268.371 92.4421 268.34 92.5053C268.309 92.5685 268.265 92.6242 268.21 92.6689C268.156 92.7139 268.093 92.7467 268.025 92.7656C267.957 92.7842 267.886 92.7885 267.817 92.7778C266.031 92.9028 264.731 92.285 263.06 91.853C262.275 91.653 261.361 91.678 260.761 92.21C260.218 92.7028 260.068 93.4991 260.082 94.2346C260.157 94.9641 260.179 95.6979 260.147 96.4306C260.027 97.2201 259.645 97.9464 259.062 98.492C258.479 99.0376 257.729 99.3707 256.933 99.4371C256.817 99.4539 256.699 99.4479 256.586 99.4189C256.473 99.3904 256.366 99.3393 256.272 99.2693C256.169 99.1565 256.095 99.0205 256.055 98.873C254.866 95.5308 254.873 91.8208 253.43 88.5822C253.201 88.1191 253.001 87.642 252.83 87.1539C252.739 86.8508 252.683 86.538 252.662 86.222C252.457 86.2462 252.27 86.3502 252.141 86.5112C251.94 86.8543 251.837 87.2457 251.841 87.6431C251.675 90.5043 251.794 93.3752 252.198 96.2128C251.94 93.8247 251.882 91.4191 252.023 89.0214C252.015 88.6233 252.119 88.2312 252.323 87.8895C252.386 87.8081 252.464 87.7406 252.554 87.691C252.643 87.641 252.742 87.6103 252.845 87.6003C252.864 87.9163 252.919 88.2287 253.009 88.5322C253.179 89.0207 253.381 89.4977 253.612 89.9605C255.041 93.2027 255.041 96.9091 256.233 100.251C256.275 100.399 256.351 100.534 256.455 100.648C256.545 100.723 256.65 100.78 256.763 100.814C256.876 100.848 256.994 100.858 257.112 100.844C257.906 100.774 258.653 100.44 259.236 99.896C259.818 99.3518 260.202 98.6284 260.325 97.841C260.354 97.1073 260.332 96.3721 260.257 95.6415C260.257 94.9059 260.397 94.1097 260.939 93.6169C261.539 93.0742 262.453 93.0527 263.235 93.2598C264.906 93.6883 266.199 94.306 267.991 94.1811C268.149 94.1875 268.304 94.1368 268.427 94.0382C268.505 93.944 268.554 93.8283 268.566 93.7062C268.698 93.0349 268.659 92.3029 269.02 91.7244C269.505 90.9424 270.52 90.7139 271.43 90.5997C272.341 90.4854 273.344 90.389 273.983 89.7284C274.522 89.1678 274.715 88.2787 275.411 87.9002C276.258 87.4324 277.429 88.0145 278.243 87.486C278.503 87.2989 278.709 87.0464 278.839 86.754C279.309 85.821 279.4 84.7423 279.093 83.7439Z" fill="black"/>
<path opacity="0.1" d="M253.755 104.272C253.716 105.495 253.425 106.697 252.902 107.803C250.898 112.42 247.085 115.934 243.104 119.065C242.935 120 242.504 120.867 241.861 121.565C246.332 118.151 250.838 114.37 253.073 109.207C253.599 108.101 253.89 106.899 253.93 105.675C253.921 105.153 253.86 104.633 253.748 104.122C253.751 104.158 253.755 104.215 253.755 104.272Z" fill="black"/>
</g>
<path opacity="0.1" d="M254.201 83.7047C253.88 85.183 253.437 87.104 253.105 88.0931C253.064 87.8867 253.036 87.6778 253.019 87.4682C252.873 87.4893 252.734 87.5471 252.616 87.6361C252.616 86.597 252.741 85.0509 252.848 83.894C253.036 83.8665 253.227 83.899 253.395 83.9868C253.563 84.0746 253.699 84.2132 253.784 84.3831C253.898 84.1546 254.051 83.9261 254.201 83.7047Z" fill="black"/>
<path d="M254.03 83.7047C253.709 85.183 253.266 87.104 252.934 88.0931C252.891 87.8867 252.863 87.6782 252.848 87.4682C252.701 87.4893 252.561 87.5468 252.441 87.6361C252.441 86.597 252.566 85.0509 252.677 83.894C252.864 83.8668 253.055 83.8993 253.222 83.9872C253.389 84.075 253.525 84.2135 253.609 84.3831C253.737 84.1546 253.898 83.9261 254.03 83.7047Z" fill="#67647E"/>
<g opacity="0.7">
<path opacity="0.7" d="M326.74 3.56738H385.896V61.1057H326.74V3.56738Z" fill="#2E001E"/>
<path opacity="0.7" d="M324.066 0.86438V63.7944H388.599V0.86438H324.066ZM326.755 3.55669H385.91V61.1057H326.74L326.755 3.55669Z" fill="#FF2BC2"/>
<path opacity="0.7" d="M370.931 27.3091C370.439 27.1063 369.903 27.0137 369.371 27.0377C365.986 27.0377 363.726 29.6479 363.726 33.9756C363.726 38.9245 366.039 40.9134 369.05 40.9134C369.682 40.9326 370.31 40.8319 370.906 40.617V27.3091H370.931ZM358.877 34.1934C358.877 27.9268 362.908 23.0314 369.524 23.0314C369.992 23.0213 370.456 23.0404 370.921 23.0885V16.0971C370.921 16.0251 370.949 15.9561 370.999 15.9052C371.053 15.8543 371.121 15.8257 371.192 15.8257H375.52C375.734 15.8257 375.787 15.9078 375.787 16.0435V40.617C375.77 41.4975 375.816 42.3781 375.923 43.2522C375.923 43.4414 375.923 43.47 375.762 43.5485C373.613 44.5733 371.26 45.1064 368.878 45.1089C363.044 45.1089 358.88 41.5061 358.88 34.1934H358.877ZM349.707 29.8371L357.245 44.4269C357.38 44.6412 357.298 44.8554 357.084 44.8554H352.406C352.286 44.8708 352.163 44.8433 352.06 44.7783C351.957 44.7133 351.88 44.614 351.842 44.4983C350.121 40.9491 348.364 37.2655 346.572 33.4471H346.518C344.904 37.0499 343.13 40.9776 341.409 44.5162C341.366 44.6076 341.297 44.6844 341.21 44.7372C341.124 44.7897 341.024 44.8161 340.923 44.8126H336.46C336.192 44.8126 336.167 44.5948 336.299 44.4341L343.665 30.2656L336.542 16.2185C336.509 16.1836 336.487 16.1395 336.479 16.092C336.472 16.0444 336.478 15.9957 336.499 15.9521C336.519 15.9085 336.552 15.8721 336.594 15.8476C336.635 15.8232 336.683 15.8118 336.731 15.815H341.355C341.623 15.815 341.759 15.8685 341.837 16.1113C343.533 19.682 345.254 23.2099 346.868 26.8235H346.922C348.479 23.2742 350.2 19.682 351.842 16.1756C351.974 15.9578 352.057 15.8185 352.324 15.8185H356.656C356.87 15.8185 356.948 15.9792 356.816 16.222L349.718 29.855L349.707 29.8371Z" fill="#FF2BC2"/>
</g>
<g opacity="0.7">
<path opacity="0.7" d="M81.5435 26.7375L101.761 66.3046L67.782 26.7375H81.5435Z" fill="#EA6C00"/>
<path opacity="0.7" d="M121.982 26.7375L101.764 66.3046L135.743 26.7375H121.982Z" fill="#EA6C00"/>
<path opacity="0.7" d="M81.5435 26.7375H121.975L101.761 66.3046L81.5435 26.7375Z" fill="#FDAD00"/>
<path opacity="0.7" d="M101.761 4.80994L82.6075 6.83453L81.5363 26.7376L101.761 4.80994Z" fill="#FDD231"/>
<path opacity="0.7" d="M101.761 4.80994L120.911 6.83453L121.982 26.7376L101.761 4.80994Z" fill="#FDD231"/>
<path opacity="0.7" d="M135.743 26.7376L120.918 6.83447L121.989 26.7376H135.743Z" fill="#FDAD00"/>
<path opacity="0.7" d="M67.782 26.7376L82.6075 6.83447L81.5363 26.7376H67.782Z" fill="#FDAD00"/>
<path opacity="0.7" d="M101.761 4.80994L81.5435 26.7376H121.975L101.761 4.80994Z" fill="#FEEEB7"/>
</g>
</g>
<defs>
<linearGradient id="paint0_linear_1_404" x1="18154.3" y1="53826.8" x2="44430.7" y2="53826.8" gradientUnits="userSpaceOnUse">
<stop stop-color="#808080" stop-opacity="0.25"/>
<stop offset="0.54" stop-color="#808080" stop-opacity="0.12"/>
<stop offset="1" stop-color="#808080" stop-opacity="0.1"/>
</linearGradient>
<linearGradient id="paint1_linear_1_404" x1="-81211" y1="34244.4" x2="-81211" y2="18638.3" gradientUnits="userSpaceOnUse">
<stop stop-color="#808080" stop-opacity="0.25"/>
<stop offset="0.54" stop-color="#808080" stop-opacity="0.12"/>
<stop offset="1" stop-color="#808080" stop-opacity="0.1"/>
</linearGradient>
<clipPath id="clip0_1_404">
<rect width="415.987" height="198.531" fill="white" transform="translate(0.00637817 0.875)"/>
</clipPath>
</defs>
</svg>
