<svg width="630" height="458" viewBox="0 0 630 458" fill="none" xmlns="http://www.w3.org/2000/svg">
<g clip-path="url(#clip0_1_5)">
<path opacity="0.2" d="M88.827 25.754C84.1606 25.6208 79.3785 25.754 75.0016 27.0971C63.0924 30.7561 57.4476 42.729 59.2829 53.0749C61.1182 63.4209 68.6678 72.4352 76.5011 80.6738C84.3343 88.9123 92.8218 97.0582 97.1177 106.906C99.2598 111.822 100.261 117.327 98.0845 122.237C94.7266 129.804 84.6007 134.03 74.88 134.91C65.1593 135.79 55.3981 134.077 45.6427 133.503C41.5494 133.266 37.3404 133.237 33.4846 134.343C29.2524 135.547 25.7266 138.008 22.4844 140.573C9.81109 150.623 -0.332199 164.35 1.32361 178.749C3.17627 195.093 19.6997 208.009 37.7978 214.939C43.79 217.255 50.1296 219.096 55.4039 222.373C69.2988 231.017 72.4194 247.228 71.0357 261.534C69.652 275.84 64.9393 290.163 67.562 304.342C70.6478 320.836 84.3054 335.738 102.728 342.697C119.141 348.898 139.683 348.487 154.255 339.739C161.359 335.466 166.731 329.532 171.403 323.395C178.341 314.332 184.072 304.407 188.454 293.868C190.486 288.953 192.396 283.667 197.138 280.251C200.033 278.15 203.784 276.974 207.496 276.06C218.681 273.304 230.463 272.551 241.752 270.096C253.042 267.642 264.372 263.062 270.509 254.882C279.193 243.302 275.141 228.47 275.181 214.853C275.251 183.786 297.824 155.979 306.155 125.693C308.876 115.799 309.89 104.851 303.811 96.0219C299.683 90.0297 292.718 85.7049 285.4 82.3643C269.299 75.0174 250.998 71.7463 232.999 68.562C207.982 64.1388 177.604 63.5656 158.215 49.2538C139.636 35.5441 114.179 25.754 88.827 25.754Z" fill="#EF5B59"/>
<g opacity="0.5">
<path opacity="0.5" d="M15.838 202.758C14.5991 204.588 13.5801 207.245 15.2012 210.342C18.3854 216.422 26.2592 215.171 30.0861 220.989C31.1087 222.602 31.6786 224.46 31.7362 226.368C31.8809 229.662 30.8619 232.256 30.3351 235.157C29.646 238.578 30.183 242.132 31.8519 245.196C33.7305 248.395 36.5655 250.924 39.9573 252.427C42.9216 253.735 45.7469 254.071 48.5838 254.708C52.1031 255.515 55.5308 256.679 58.814 258.182C60.3743 258.836 61.8419 259.693 63.1793 260.729C64.8102 262.161 66.2906 263.755 67.5967 265.488L79.9111 280.691C81.476 282.741 83.2193 284.648 85.1217 286.388C87.1967 288.063 89.4772 289.465 91.9071 290.563C96.8224 293.012 101.964 295.518 106.23 295.235C110.497 294.951 113.462 290.835 111.441 285.08C109.53 279.603 104.146 274.989 101.703 269.523C97.8529 260.908 102.896 254.47 99.6709 245.844C96.5792 237.553 87.9123 231.995 82.3775 224.423C78.4058 219.038 76.1942 212.774 72.6163 207.118C67.4057 199.012 59.6477 192.812 52.3528 189.674C45.9372 186.947 38.912 185.974 31.9967 186.854C29.3566 187.144 26.7571 187.636 24.8813 189.216C22.8897 190.895 23.1444 194.033 21.8476 196.262C20.3597 198.827 17.5228 200.28 15.838 202.758Z" fill="#EF5B59"/>
<path opacity="0.5" d="M23.5671 191.099C23.5671 191.099 85.2143 248.734 110.075 293.608" stroke="#535461" stroke-width="1.15791" stroke-miterlimit="10"/>
<path opacity="0.5" d="M15.4385 210.696C15.4385 210.696 40.0731 205.908 57.1233 225.112" stroke="#535461" stroke-width="1.15791" stroke-miterlimit="10"/>
<path opacity="0.5" d="M32.9462 246.886C32.9462 246.886 60.1571 227.856 69.571 238.926" stroke="#535461" stroke-width="1.15791" stroke-miterlimit="10"/>
<path opacity="0.5" d="M52.237 189.535C52.237 189.535 49.3712 204.102 59.6824 227.897" stroke="#535461" stroke-width="1.15791" stroke-miterlimit="10"/>
<path opacity="0.5" d="M99.6419 246.07C99.6419 246.07 97.2334 255.623 77.8732 248.6" stroke="#535461" stroke-width="1.15791" stroke-miterlimit="10"/>
<path opacity="0.5" d="M79.9864 279.488C79.9864 279.488 91.8029 265.83 86.4302 259.126" stroke="#535461" stroke-width="1.15791" stroke-miterlimit="10"/>
</g>
<path d="M4.25323 135.906C1.35845 139.328 -1.35106 144.064 0.779494 148.736C4.8785 157.906 20.0529 153.42 25.4662 161.959C27.0872 164.512 27.3073 167.633 26.9309 170.418C26.2014 175.866 23.5035 180.492 21.6393 185.471C19.775 190.45 18.8082 196.471 21.4366 201.728C23.9667 206.817 29.2989 210.03 34.4631 211.309C39.6274 212.589 44.8033 212.299 49.9618 212.467C56.0901 212.708 62.1748 213.604 68.112 215.142C70.7213 215.733 73.2195 216.738 75.511 218.118C78.1453 219.803 80.2759 222.275 82.3601 224.706L100.887 246.296C103.347 249.19 105.86 252.085 108.911 254.21C112.431 256.659 116.437 257.904 120.38 259.102C128.862 261.696 137.749 264.313 145.854 262.535C153.96 260.758 160.762 253.012 158.736 244.043C156.808 235.504 148.112 229.448 145.183 221.082C140.551 207.899 151.985 195.672 148.552 182.257C145.264 169.393 130.686 162.758 122.58 151.868C116.791 144.064 114.51 134.302 109.449 126C102.143 114.016 89.406 106.078 76.7268 103.062C64.0477 100.046 51.2934 101.452 39.4016 104.469C34.3647 105.748 29.3278 107.364 25.333 110.559C21.0893 113.958 20.6029 119.116 17.5113 123.215C13.9276 127.98 8.1554 131.274 4.25323 135.906Z" fill="#EF5B59"/>
<path d="M22.2877 114.137C22.2877 114.137 120.519 191.428 153.572 258.645" stroke="#535461" stroke-width="1.15791" stroke-miterlimit="10"/>
<path d="M1.09216 149.222C1.09216 149.222 48.7807 133.793 74.9321 160.604" stroke="#535461" stroke-width="1.15791" stroke-miterlimit="10"/>
<path d="M22.9766 204.223C22.9766 204.223 79.778 164.275 94.1361 179.855" stroke="#535461" stroke-width="1.15791" stroke-miterlimit="10"/>
<path d="M76.5821 102.836C76.5821 102.836 66.7919 127.957 78.8979 164.472" stroke="#535461" stroke-width="1.15791" stroke-miterlimit="10"/>
<path d="M148.402 182.622C148.402 182.622 140.985 199.255 106.775 193.437" stroke="#535461" stroke-width="1.15791" stroke-miterlimit="10"/>
<path d="M101.385 244.229C101.385 244.229 127.71 217.898 119.662 208.333" stroke="#535461" stroke-width="1.15791" stroke-miterlimit="10"/>
<path opacity="0.1" d="M357.787 447.269C506.469 447.269 627.001 414.992 627.001 375.177C627.001 335.362 506.469 303.085 357.787 303.085C209.104 303.085 88.5723 335.362 88.5723 375.177C88.5723 414.992 209.104 447.269 357.787 447.269Z" fill="#EF5B59"/>
<path d="M567.473 0.737457C567.473 0.737457 546.729 21.4815 558.441 52.2645C570.153 83.0475 538.363 134.239 538.363 134.239C538.363 134.239 538.705 134.187 539.336 134.077C581.941 126.55 603.113 77.8253 579.423 41.6233C570.617 28.1684 563.385 12.3861 567.473 0.737457Z" fill="#EF5B59"/>
<path d="M567.473 0.737457C567.473 0.737457 555.761 26.1652 567.473 46.9092C579.185 67.6531 569.482 125.873 538.363 134.239" stroke="#535461" stroke-width="1.15791" stroke-miterlimit="10"/>
<path d="M604.422 84.6454C604.422 84.6454 580.748 80.8764 578.595 102.089C576.441 123.302 533.077 126.243 533.077 126.243L533.888 126.782C569.69 150.282 603.941 141.754 598.731 110.571C596.837 98.9456 596.994 87.2739 604.422 84.6454Z" fill="#EF5B59"/>
<path opacity="0.2" d="M604.422 84.6454C604.422 84.6454 580.748 80.8764 578.595 102.089C576.441 123.302 533.077 126.243 533.077 126.243L533.888 126.782C569.69 150.282 603.941 141.754 598.731 110.571C596.837 98.9456 596.994 87.2739 604.422 84.6454Z" fill="#F5F5F5"/>
<path d="M604.422 84.6454C604.422 84.6454 586.046 88.6981 587.557 105.384C589.068 122.069 560.271 142.118 533.077 126.226" stroke="#535461" stroke-width="1.15791" stroke-miterlimit="10"/>
<path d="M142.838 162.492C142.838 162.492 135.161 136.439 144.279 117.252C148.154 109.232 149.322 100.171 147.608 91.4308C146.763 87.2883 145.54 83.2322 143.955 79.3132" stroke="#535461" stroke-width="1.15791" stroke-miterlimit="10"/>
<path d="M149.617 67.1841C149.617 70.38 143.828 79.6375 143.828 79.6375C143.828 79.6375 138.038 70.3742 138.038 67.1841C138.038 65.6487 138.648 64.1759 139.734 63.0903C140.82 62.0042 142.292 61.3946 143.828 61.3946C145.363 61.3946 146.836 62.0042 147.922 63.0903C149.007 64.1759 149.617 65.6487 149.617 67.1841Z" fill="#EF5B59"/>
<path d="M159.182 84.877C157.445 87.5576 147.556 92.1892 147.556 92.1892C147.556 92.1892 147.736 81.2701 149.473 78.5895C149.867 77.9145 150.395 77.3263 151.024 76.8602C151.653 76.3947 152.37 76.0612 153.131 75.88C153.892 75.6988 154.682 75.6739 155.453 75.8071C156.224 75.9397 156.961 76.2274 157.617 76.6529C158.274 77.0785 158.838 77.6325 159.274 78.2815C159.711 78.9311 160.012 79.6618 160.158 80.4306C160.304 81.1995 160.293 81.9897 160.125 82.754C159.958 83.5182 159.637 84.2407 159.182 84.877Z" fill="#EF5B59"/>
<path d="M158.765 115.11C155.911 116.546 145.038 115.556 145.038 115.556C145.038 115.556 150.706 106.223 153.554 104.787C154.236 104.406 154.988 104.167 155.765 104.083C156.541 104 157.327 104.075 158.074 104.303C158.821 104.532 159.514 104.909 160.112 105.413C160.709 105.916 161.198 106.535 161.55 107.232C161.902 107.93 162.109 108.691 162.159 109.471C162.209 110.25 162.1 111.032 161.84 111.769C161.58 112.505 161.173 113.182 160.645 113.757C160.116 114.332 159.477 114.795 158.765 115.116V115.11Z" fill="#EF5B59"/>
<path d="M153.3 137.909C150.729 139.808 139.845 140.665 139.845 140.665C139.845 140.665 143.851 130.51 146.422 128.611C147.028 128.115 147.73 127.748 148.483 127.53C149.236 127.313 150.026 127.251 150.804 127.349C151.582 127.445 152.332 127.699 153.008 128.095C153.685 128.491 154.275 129.02 154.741 129.65C155.207 130.28 155.541 130.999 155.721 131.762C155.901 132.524 155.925 133.316 155.79 134.089C155.655 134.861 155.365 135.598 154.937 136.255C154.508 136.911 153.951 137.475 153.3 137.909Z" fill="#EF5B59"/>
<path d="M135.416 92.8087C137.731 95.0319 148.378 97.3419 148.378 97.3419C148.378 97.3419 145.767 86.7412 143.475 84.518C142.939 83.9466 142.293 83.4892 141.576 83.1749C140.859 82.8599 140.085 82.6943 139.302 82.6868C138.519 82.6799 137.742 82.8321 137.019 83.1338C136.297 83.4354 135.643 83.8806 135.097 84.4422C134.551 85.0044 134.125 85.6707 133.845 86.402C133.564 87.1332 133.434 87.9136 133.465 88.6964C133.494 89.4791 133.683 90.2474 134.018 90.9555C134.353 91.6635 134.829 92.2957 135.416 92.8145V92.8087Z" fill="#EF5B59"/>
<path d="M129.354 119.556C132.208 120.992 143.081 120.002 143.081 120.002C143.081 120.002 137.413 110.669 134.565 109.234C133.205 108.619 131.659 108.553 130.252 109.051C128.845 109.548 127.684 110.569 127.011 111.902C126.339 113.234 126.208 114.775 126.644 116.203C127.08 117.63 128.051 118.833 129.354 119.562V119.556Z" fill="#EF5B59"/>
<path d="M127.038 146.362C129.609 148.261 140.493 149.118 140.493 149.118C140.493 149.118 136.487 138.963 133.916 137.064C132.679 136.238 131.172 135.921 129.708 136.177C128.243 136.432 126.933 137.242 126.049 138.437C125.165 139.632 124.774 141.122 124.958 142.597C125.143 144.073 125.887 145.421 127.038 146.362Z" fill="#EF5B59"/>
<path d="M620.887 314.005H571.624C572.764 311.727 573.359 309.216 573.361 306.669V82.3354C573.358 77.9625 571.619 73.7703 568.525 70.6793C565.433 67.5888 561.239 65.8525 556.866 65.8525H175.526C171.151 65.8525 166.955 67.59 163.863 70.6833C160.769 73.7767 159.031 77.9724 159.031 82.347V306.669C159.034 309.216 159.628 311.727 160.768 314.005H109.762C108.606 314.005 107.497 314.464 106.68 315.281C105.862 316.099 105.403 317.208 105.403 318.364V321.878C105.403 328.349 107.973 334.555 112.549 339.129C117.123 343.705 123.329 346.275 129.8 346.275H600.884C607.357 346.275 613.558 343.705 618.137 339.129C622.711 334.555 625.282 328.349 625.282 321.878V318.364C625.282 317.789 625.166 317.219 624.946 316.687C624.726 316.156 624.402 315.674 623.991 315.269C623.585 314.864 623.099 314.544 622.566 314.326C622.034 314.109 621.461 314 620.887 314.005ZM317.347 327.957L313.12 323.158H417.975L413.297 327.957H317.347Z" fill="url(#paint0_linear_1_5)"/>
<path d="M555.182 69.0194H177.17C169.733 69.0194 163.703 75.0481 163.703 82.4859V307.045C163.703 314.483 169.733 320.512 177.17 320.512H555.182C562.619 320.512 568.648 314.483 568.648 307.045V82.4859C568.648 75.0481 562.619 69.0194 555.182 69.0194Z" fill="#535461"/>
<path d="M559.275 105.679H172.231V311.133H559.275V105.679Z" fill="#F1F1F4"/>
<path d="M365.753 91.1818C367.636 91.1818 369.163 89.6551 369.163 87.7718C369.163 85.8884 367.636 84.3617 365.753 84.3617C363.87 84.3617 362.343 85.8884 362.343 87.7718C362.343 89.6551 363.87 91.1818 365.753 91.1818Z" fill="white"/>
<path d="M425.513 311.556L412.197 325.196H318.406L306.387 311.556H115.534C114.404 311.556 113.32 312.004 112.521 312.803C111.722 313.602 111.273 314.687 111.273 315.817V319.256C111.273 322.389 111.891 325.492 113.09 328.386C114.291 331.28 116.05 333.91 118.266 336.124C120.483 338.338 123.115 340.094 126.011 341.29C128.907 342.487 132.01 343.101 135.143 343.097H595.529C601.851 343.097 607.919 340.585 612.388 336.114C616.858 331.642 619.37 325.578 619.37 319.256V315.817C619.37 314.687 618.919 313.602 618.12 312.803C617.321 312.004 616.238 311.556 615.109 311.556H425.513Z" fill="#535461"/>
<path d="M301.686 121.334H195.87V201.079H301.686V121.334Z" fill="white"/>
<path opacity="0.2" d="M241.492 128.235H206.222V148.168H241.492V128.235Z" fill="#EF5B59"/>
<path d="M291.334 128.235H249.927V132.838H291.334V128.235Z" fill="#E6E8EC"/>
<path d="M279.066 135.9H249.927V140.503H279.066V135.9Z" fill="#E6E8EC"/>
<path d="M291.334 143.566H249.927V148.168H291.334V143.566Z" fill="#E6E8EC"/>
<path d="M291.334 151.237H206.222V155.84H291.334V151.237Z" fill="#E6E8EC"/>
<path d="M291.334 158.902H206.222V163.505H291.334V158.902Z" fill="#E6E8EC"/>
<path d="M291.334 166.573H206.222V171.176H291.334V166.573Z" fill="#E6E8EC"/>
<path d="M284.433 174.239H206.222V178.842H284.433V174.239Z" fill="#E6E8EC"/>
<path d="M291.334 181.904H206.222V186.507H291.334V181.904Z" fill="#E6E8EC"/>
<path d="M291.334 189.575H206.222V194.178H291.334V189.575Z" fill="#E6E8EC"/>
<path d="M418.235 121.334H312.42V201.079H418.235V121.334Z" fill="white"/>
<path opacity="0.2" d="M358.036 128.235H322.766V148.168H358.036V128.235Z" fill="#EF5B59"/>
<path d="M407.884 128.235H366.477V132.838H407.884V128.235Z" fill="#E6E8EC"/>
<path d="M395.616 135.9H366.477V140.503H395.616V135.9Z" fill="#E6E8EC"/>
<path d="M407.884 143.566H366.477V148.168H407.884V143.566Z" fill="#E6E8EC"/>
<path d="M407.878 151.237H322.766V155.84H407.878V151.237Z" fill="#E6E8EC"/>
<path d="M407.878 158.902H322.766V163.505H407.878V158.902Z" fill="#E6E8EC"/>
<path d="M407.878 166.573H322.766V171.176H407.878V166.573Z" fill="#E6E8EC"/>
<path d="M400.977 174.239H322.766V178.842H400.977V174.239Z" fill="#E6E8EC"/>
<path d="M407.878 181.904H322.766V186.507H407.878V181.904Z" fill="#E6E8EC"/>
<path d="M407.878 189.575H322.766V194.178H407.878V189.575Z" fill="#E6E8EC"/>
<path d="M534.779 121.334H428.963V201.079H534.779V121.334Z" fill="white"/>
<path opacity="0.2" d="M474.585 128.235H439.315V148.168H474.585V128.235Z" fill="#EF5B59"/>
<path d="M524.427 128.235H483.021V132.838H524.427V128.235Z" fill="#E6E8EC"/>
<path d="M512.159 135.9H483.021V140.503H512.159V135.9Z" fill="#E6E8EC"/>
<path d="M524.427 143.566H483.021V148.168H524.427V143.566Z" fill="#E6E8EC"/>
<path d="M524.428 151.237H439.315V155.84H524.428V151.237Z" fill="#E6E8EC"/>
<path d="M524.428 158.902H439.315V163.505H524.428V158.902Z" fill="#E6E8EC"/>
<path d="M524.428 166.573H439.315V171.176H524.428V166.573Z" fill="#E6E8EC"/>
<path d="M517.526 174.239H439.315V178.842H517.526V174.239Z" fill="#E6E8EC"/>
<path d="M524.428 181.904H439.315V186.507H524.428V181.904Z" fill="#E6E8EC"/>
<path d="M524.428 189.575H439.315V194.178H524.428V189.575Z" fill="#E6E8EC"/>
<path d="M301.686 211.043H195.87V290.788H301.686V211.043Z" fill="white"/>
<path opacity="0.2" d="M241.492 217.944H206.222V237.878H241.492V217.944Z" fill="#EF5B59"/>
<path d="M291.334 217.944H249.927V222.547H291.334V217.944Z" fill="#E6E8EC"/>
<path d="M279.066 225.615H249.927V230.218H279.066V225.615Z" fill="#E6E8EC"/>
<path d="M291.334 233.281H249.927V237.883H291.334V233.281Z" fill="#E6E8EC"/>
<path d="M291.334 240.946H206.222V245.549H291.334V240.946Z" fill="#E6E8EC"/>
<path d="M291.334 248.617H206.222V253.22H291.334V248.617Z" fill="#E6E8EC"/>
<path d="M291.334 256.283H206.222V260.885H291.334V256.283Z" fill="#E6E8EC"/>
<path d="M284.433 263.954H206.222V268.556H284.433V263.954Z" fill="#E6E8EC"/>
<path d="M291.334 271.619H206.222V276.222H291.334V271.619Z" fill="#E6E8EC"/>
<path d="M291.334 279.285H206.222V283.887H291.334V279.285Z" fill="#E6E8EC"/>
<path d="M418.235 211.043H312.42V290.788H418.235V211.043Z" fill="white"/>
<path opacity="0.2" d="M358.036 217.944H322.766V237.878H358.036V217.944Z" fill="#EF5B59"/>
<path d="M407.884 217.944H366.477V222.547H407.884V217.944Z" fill="#E6E8EC"/>
<path d="M395.616 225.615H366.477V230.218H395.616V225.615Z" fill="#E6E8EC"/>
<path d="M407.884 233.281H366.477V237.883H407.884V233.281Z" fill="#E6E8EC"/>
<path d="M407.878 240.946H322.766V245.549H407.878V240.946Z" fill="#E6E8EC"/>
<path d="M407.878 248.617H322.766V253.22H407.878V248.617Z" fill="#E6E8EC"/>
<path d="M407.878 256.283H322.766V260.885H407.878V256.283Z" fill="#E6E8EC"/>
<path d="M400.977 263.954H322.766V268.556H400.977V263.954Z" fill="#E6E8EC"/>
<path d="M407.878 271.619H322.766V276.222H407.878V271.619Z" fill="#E6E8EC"/>
<path d="M407.878 279.285H322.766V283.887H407.878V279.285Z" fill="#E6E8EC"/>
<path opacity="0.1" d="M534.779 211.043H428.963V290.788H534.779V211.043Z" fill="black"/>
<path d="M255.948 148.168H92.6829C90.7173 148.164 88.7697 148.548 86.9524 149.297C85.135 150.047 83.4833 151.148 82.0921 152.536C80.7002 153.924 79.5962 155.573 78.8424 157.389C78.0886 159.204 77.7001 161.151 77.6995 163.117V389.338C77.7018 391.303 78.0909 393.247 78.8453 395.061C79.5991 396.874 80.7031 398.522 82.0938 399.909C83.485 401.297 85.135 402.396 86.9512 403.145C88.7668 403.894 90.7127 404.278 92.6771 404.275H255.943C257.907 404.278 259.853 403.894 261.668 403.145C263.485 402.396 265.135 401.297 266.526 399.909C267.917 398.522 269.021 396.874 269.774 395.061C270.529 393.247 270.918 391.303 270.92 389.338V163.117C270.92 161.152 270.532 159.207 269.779 157.392C269.026 155.577 267.922 153.928 266.532 152.54C265.142 151.152 263.491 150.051 261.675 149.301C259.859 148.551 257.913 148.166 255.948 148.168Z" fill="url(#paint1_linear_1_5)"/>
<path d="M257.048 151.237H91.5828C85.1877 151.237 80.0037 156.421 80.0037 162.816V390.392C80.0037 396.787 85.1877 401.971 91.5828 401.971H257.048C263.444 401.971 268.627 396.787 268.627 390.392V162.816C268.627 156.421 263.444 151.237 257.048 151.237Z" fill="#535461"/>
<path d="M259.04 174.957H89.5854V378.257H259.04V174.957Z" fill="#F1F1F4"/>
<path d="M173.546 165.039C174.815 165.039 175.844 164.01 175.844 162.741C175.844 161.471 174.815 160.442 173.546 160.442C172.276 160.442 171.247 161.471 171.247 162.741C171.247 164.01 172.276 165.039 173.546 165.039Z" fill="white"/>
<path d="M173.546 396.604C177.357 396.604 180.447 393.514 180.447 389.703C180.447 385.892 177.357 382.802 173.546 382.802C169.734 382.802 166.644 385.892 166.644 389.703C166.644 393.514 169.734 396.604 173.546 396.604Z" fill="white"/>
<path d="M145.24 195.73H96.9092V232.158H145.24V195.73Z" fill="white"/>
<path opacity="0.2" d="M117.752 198.885H101.639V207.992H117.752V198.885Z" fill="#EF5B59"/>
<path d="M140.516 198.885H121.602V200.987H140.516V198.885Z" fill="#E6E8EC"/>
<path d="M134.912 202.388H121.602V204.489H134.912V202.388Z" fill="#E6E8EC"/>
<path d="M140.516 205.89H121.602V207.992H140.516V205.89Z" fill="#E6E8EC"/>
<path d="M140.516 209.393H101.639V211.495H140.516V209.393Z" fill="#E6E8EC"/>
<path d="M140.516 212.896H101.639V214.997H140.516V212.896Z" fill="#E6E8EC"/>
<path d="M140.516 216.398H101.639V218.5H140.516V216.398Z" fill="#E6E8EC"/>
<path d="M137.367 219.901H101.639V222.003H137.367V219.901Z" fill="#E6E8EC"/>
<path d="M140.516 223.404H101.639V225.505H140.516V223.404Z" fill="#E6E8EC"/>
<path d="M140.516 226.906H101.639V229.008H140.516V226.906Z" fill="#E6E8EC"/>
<path d="M198.481 195.73H150.15V232.158H198.481V195.73Z" fill="white"/>
<path opacity="0.2" d="M170.987 198.885H154.874V207.992H170.987V198.885Z" fill="#EF5B59"/>
<path d="M193.757 198.885H174.842V200.987H193.757V198.885Z" fill="#E6E8EC"/>
<path d="M188.153 202.388H174.842V204.489H188.153V202.388Z" fill="#E6E8EC"/>
<path d="M193.757 205.89H174.842V207.992H193.757V205.89Z" fill="#E6E8EC"/>
<path d="M193.751 209.393H154.874V211.495H193.751V209.393Z" fill="#E6E8EC"/>
<path d="M193.751 212.896H154.874V214.997H193.751V212.896Z" fill="#E6E8EC"/>
<path d="M193.751 216.398H154.874V218.5H193.751V216.398Z" fill="#E6E8EC"/>
<path d="M190.602 219.901H154.874V222.003H190.602V219.901Z" fill="#E6E8EC"/>
<path d="M193.751 223.404H154.874V225.505H193.751V223.404Z" fill="#E6E8EC"/>
<path d="M193.751 226.906H154.874V229.008H193.751V226.906Z" fill="#E6E8EC"/>
<path d="M251.716 195.73H203.385V232.158H251.716V195.73Z" fill="white"/>
<path opacity="0.2" d="M224.227 198.885H208.115V207.992H224.227V198.885Z" fill="#EF5B59"/>
<path d="M246.992 198.885H228.077V200.987H246.992V198.885Z" fill="#E6E8EC"/>
<path d="M241.388 202.388H228.077V204.489H241.388V202.388Z" fill="#E6E8EC"/>
<path d="M246.992 205.89H228.077V207.992H246.992V205.89Z" fill="#E6E8EC"/>
<path d="M246.992 209.393H208.115V211.495H246.992V209.393Z" fill="#E6E8EC"/>
<path d="M246.992 212.896H208.115V214.997H246.992V212.896Z" fill="#E6E8EC"/>
<path d="M246.992 216.398H208.115V218.5H246.992V216.398Z" fill="#E6E8EC"/>
<path d="M243.842 219.901H208.115V222.003H243.842V219.901Z" fill="#E6E8EC"/>
<path d="M246.992 223.404H208.115V225.505H246.992V223.404Z" fill="#E6E8EC"/>
<path d="M246.992 226.906H208.115V229.008H246.992V226.906Z" fill="#E6E8EC"/>
<path d="M145.24 236.708H96.9092V273.136H145.24V236.708Z" fill="white"/>
<path opacity="0.2" d="M117.752 239.863H101.639V248.97H117.752V239.863Z" fill="#EF5B59"/>
<path d="M140.516 239.863H121.602V241.965H140.516V239.863Z" fill="#E6E8EC"/>
<path d="M134.912 243.366H121.602V245.468H134.912V243.366Z" fill="#E6E8EC"/>
<path d="M140.516 246.869H121.602V248.97H140.516V246.869Z" fill="#E6E8EC"/>
<path d="M140.516 250.371H101.639V252.473H140.516V250.371Z" fill="#E6E8EC"/>
<path d="M140.516 253.874H101.639V255.976H140.516V253.874Z" fill="#E6E8EC"/>
<path d="M140.516 257.377H101.639V259.478H140.516V257.377Z" fill="#E6E8EC"/>
<path d="M137.367 260.88H101.639V262.981H137.367V260.88Z" fill="#E6E8EC"/>
<path d="M140.516 264.382H101.639V266.484H140.516V264.382Z" fill="#E6E8EC"/>
<path d="M140.516 267.885H101.639V269.986H140.516V267.885Z" fill="#E6E8EC"/>
<path d="M198.481 236.708H150.15V273.136H198.481V236.708Z" fill="white"/>
<path opacity="0.2" d="M170.987 239.863H154.874V248.97H170.987V239.863Z" fill="#EF5B59"/>
<path d="M193.757 239.863H174.842V241.965H193.757V239.863Z" fill="#E6E8EC"/>
<path d="M188.153 243.366H174.842V245.468H188.153V243.366Z" fill="#E6E8EC"/>
<path d="M193.757 246.869H174.842V248.97H193.757V246.869Z" fill="#E6E8EC"/>
<path d="M193.751 250.371H154.874V252.473H193.751V250.371Z" fill="#E6E8EC"/>
<path d="M193.751 253.874H154.874V255.976H193.751V253.874Z" fill="#E6E8EC"/>
<path d="M193.751 257.377H154.874V259.478H193.751V257.377Z" fill="#E6E8EC"/>
<path d="M190.602 260.88H154.874V262.981H190.602V260.88Z" fill="#E6E8EC"/>
<path d="M193.751 264.382H154.874V266.484H193.751V264.382Z" fill="#E6E8EC"/>
<path d="M193.751 267.885H154.874V269.986H193.751V267.885Z" fill="#E6E8EC"/>
<path d="M251.716 236.708H203.385V273.136H251.716V236.708Z" fill="white"/>
<path opacity="0.2" d="M224.227 239.863H208.115V248.97H224.227V239.863Z" fill="#EF5B59"/>
<path d="M246.992 239.863H228.077V241.965H246.992V239.863Z" fill="#E6E8EC"/>
<path d="M241.388 243.366H228.077V245.468H241.388V243.366Z" fill="#E6E8EC"/>
<path d="M246.992 246.869H228.077V248.97H246.992V246.869Z" fill="#E6E8EC"/>
<path d="M246.992 250.371H208.115V252.473H246.992V250.371Z" fill="#E6E8EC"/>
<path d="M246.992 253.874H208.115V255.976H246.992V253.874Z" fill="#E6E8EC"/>
<path d="M246.992 257.377H208.115V259.478H246.992V257.377Z" fill="#E6E8EC"/>
<path d="M243.842 260.88H208.115V262.981H243.842V260.88Z" fill="#E6E8EC"/>
<path d="M246.992 264.382H208.115V266.484H246.992V264.382Z" fill="#E6E8EC"/>
<path d="M246.992 267.885H208.115V269.986H246.992V267.885Z" fill="#E6E8EC"/>
<path d="M145.24 279.308H96.9092V315.736H145.24V279.308Z" fill="white"/>
<path opacity="0.2" d="M117.752 282.463H101.639V291.57H117.752V282.463Z" fill="#EF5B59"/>
<path d="M140.516 282.463H121.602V284.565H140.516V282.463Z" fill="#E6E8EC"/>
<path d="M134.912 285.966H121.602V288.067H134.912V285.966Z" fill="#E6E8EC"/>
<path d="M140.516 289.468H121.602V291.57H140.516V289.468Z" fill="#E6E8EC"/>
<path d="M140.516 292.971H101.639V295.073H140.516V292.971Z" fill="#E6E8EC"/>
<path d="M140.516 296.474H101.639V298.575H140.516V296.474Z" fill="#E6E8EC"/>
<path d="M140.516 299.976H101.639V302.078H140.516V299.976Z" fill="#E6E8EC"/>
<path d="M137.367 303.479H101.639V305.581H137.367V303.479Z" fill="#E6E8EC"/>
<path d="M140.516 306.982H101.639V309.083H140.516V306.982Z" fill="#E6E8EC"/>
<path d="M140.516 310.484H101.639V312.586H140.516V310.484Z" fill="#E6E8EC"/>
<path d="M198.481 279.308H150.15V315.736H198.481V279.308Z" fill="white"/>
<path opacity="0.2" d="M170.987 282.463H154.874V291.57H170.987V282.463Z" fill="#EF5B59"/>
<path d="M193.757 282.463H174.842V284.565H193.757V282.463Z" fill="#E6E8EC"/>
<path d="M188.153 285.966H174.842V288.067H188.153V285.966Z" fill="#E6E8EC"/>
<path d="M193.757 289.468H174.842V291.57H193.757V289.468Z" fill="#E6E8EC"/>
<path d="M193.751 292.971H154.874V295.073H193.751V292.971Z" fill="#E6E8EC"/>
<path d="M193.751 296.474H154.874V298.575H193.751V296.474Z" fill="#E6E8EC"/>
<path d="M193.751 299.976H154.874V302.078H193.751V299.976Z" fill="#E6E8EC"/>
<path d="M190.602 303.479H154.874V305.581H190.602V303.479Z" fill="#E6E8EC"/>
<path d="M193.751 306.982H154.874V309.083H193.751V306.982Z" fill="#E6E8EC"/>
<path d="M193.751 310.484H154.874V312.586H193.751V310.484Z" fill="#E6E8EC"/>
<path d="M251.716 279.308H203.385V315.736H251.716V279.308Z" fill="white"/>
<path opacity="0.2" d="M224.227 282.463H208.115V291.57H224.227V282.463Z" fill="#EF5B59"/>
<path d="M246.992 282.463H228.077V284.565H246.992V282.463Z" fill="#E6E8EC"/>
<path d="M241.388 285.966H228.077V288.067H241.388V285.966Z" fill="#E6E8EC"/>
<path d="M246.992 289.468H228.077V291.57H246.992V289.468Z" fill="#E6E8EC"/>
<path d="M246.992 292.971H208.115V295.073H246.992V292.971Z" fill="#E6E8EC"/>
<path d="M246.992 296.474H208.115V298.575H246.992V296.474Z" fill="#E6E8EC"/>
<path d="M246.992 299.976H208.115V302.078H246.992V299.976Z" fill="#E6E8EC"/>
<path d="M243.842 303.479H208.115V305.581H243.842V303.479Z" fill="#E6E8EC"/>
<path d="M246.992 306.982H208.115V309.083H246.992V306.982Z" fill="#E6E8EC"/>
<path d="M246.992 310.484H208.115V312.586H246.992V310.484Z" fill="#E6E8EC"/>
<path d="M145.24 320.286H96.9092V356.714H145.24V320.286Z" fill="white"/>
<path opacity="0.2" d="M117.752 323.441H101.639V332.548H117.752V323.441Z" fill="#EF5B59"/>
<path d="M140.516 323.441H121.602V325.543H140.516V323.441Z" fill="#E6E8EC"/>
<path d="M134.912 326.944H121.602V329.046H134.912V326.944Z" fill="#E6E8EC"/>
<path d="M140.516 330.447H121.602V332.549H140.516V330.447Z" fill="#E6E8EC"/>
<path d="M140.516 333.95H101.639V336.051H140.516V333.95Z" fill="#E6E8EC"/>
<path d="M140.516 337.452H101.639V339.554H140.516V337.452Z" fill="#E6E8EC"/>
<path d="M140.516 340.955H101.639V343.057H140.516V340.955Z" fill="#E6E8EC"/>
<path d="M137.367 344.458H101.639V346.559H137.367V344.458Z" fill="#E6E8EC"/>
<path d="M140.516 347.96H101.639V350.062H140.516V347.96Z" fill="#E6E8EC"/>
<path d="M140.516 351.463H101.639V353.565H140.516V351.463Z" fill="#E6E8EC"/>
<path d="M198.481 320.286H150.15V356.714H198.481V320.286Z" fill="white"/>
<path opacity="0.2" d="M170.987 323.441H154.874V332.548H170.987V323.441Z" fill="#EF5B59"/>
<path d="M193.757 323.441H174.842V325.543H193.757V323.441Z" fill="#E6E8EC"/>
<path d="M188.153 326.944H174.842V329.046H188.153V326.944Z" fill="#E6E8EC"/>
<path d="M193.757 330.447H174.842V332.549H193.757V330.447Z" fill="#E6E8EC"/>
<path d="M193.751 333.95H154.874V336.051H193.751V333.95Z" fill="#E6E8EC"/>
<path d="M193.751 337.452H154.874V339.554H193.751V337.452Z" fill="#E6E8EC"/>
<path d="M193.751 340.955H154.874V343.057H193.751V340.955Z" fill="#E6E8EC"/>
<path d="M190.602 344.458H154.874V346.559H190.602V344.458Z" fill="#E6E8EC"/>
<path d="M193.751 347.96H154.874V350.062H193.751V347.96Z" fill="#E6E8EC"/>
<path d="M193.751 351.463H154.874V353.565H193.751V351.463Z" fill="#E6E8EC"/>
<path opacity="0.1" d="M251.716 320.286H203.385V356.714H251.716V320.286Z" fill="black"/>
<path d="M131.502 224.845H47.669C46.5803 224.843 45.5018 225.055 44.495 225.47C43.4883 225.885 42.573 226.493 41.8016 227.261C41.0301 228.03 40.4175 228.942 39.9987 229.947C39.58 230.952 39.3633 232.03 39.361 233.119V416.7C39.3633 417.789 39.58 418.866 39.9987 419.871C40.4175 420.876 41.0301 421.789 41.8016 422.557C42.573 423.325 43.4883 423.934 44.495 424.348C45.5018 424.763 46.5803 424.975 47.669 424.973H131.502C132.59 424.975 133.669 424.763 134.676 424.348C135.682 423.934 136.598 423.325 137.37 422.557C138.141 421.789 138.753 420.876 139.172 419.871C139.591 418.866 139.808 417.789 139.81 416.7V233.124C139.808 232.035 139.592 230.957 139.174 229.951C138.756 228.945 138.143 228.032 137.371 227.264C136.6 226.495 135.684 225.885 134.677 225.471C133.67 225.055 132.591 224.843 131.502 224.845Z" fill="url(#paint2_linear_1_5)"/>
<path d="M132.677 226.385H46.4996C42.9823 226.385 40.131 229.237 40.131 232.754V417.846C40.131 421.363 42.9823 424.215 46.4996 424.215H132.677C136.194 424.215 139.046 421.363 139.046 417.846V232.754C139.046 229.237 136.194 226.385 132.677 226.385Z" fill="#535461"/>
<path d="M131.757 244.785H47.4142V405.804H131.757V244.785Z" fill="#F1F1F4"/>
<path d="M79.6158 236.349C80.0379 236.349 80.3801 236.007 80.3801 235.585C80.3801 235.163 80.0379 234.821 79.6158 234.821C79.1938 234.821 78.8516 235.163 78.8516 235.585C78.8516 236.007 79.1938 236.349 79.6158 236.349Z" fill="white"/>
<path d="M99.7462 234.815H84.0333C83.7137 234.815 83.4543 235.074 83.4543 235.394V235.77C83.4543 236.09 83.7137 236.349 84.0333 236.349H99.7462C100.066 236.349 100.325 236.09 100.325 235.77V235.394C100.325 235.074 100.066 234.815 99.7462 234.815Z" fill="white"/>
<path d="M89.2033 418.842C92.1676 418.842 94.5703 416.439 94.5703 413.475C94.5703 410.511 92.1676 408.108 89.2033 408.108C86.2391 408.108 83.8364 410.511 83.8364 413.475C83.8364 416.439 86.2391 418.842 89.2033 418.842Z" fill="white"/>
<path opacity="0.1" d="M118.342 254.424H60.8287V297.771H118.342V254.424Z" fill="black"/>
<path d="M118.342 303.19H60.8287V346.536H118.342V303.19Z" fill="white"/>
<path opacity="0.2" d="M85.6254 306.941H66.4562V317.779H85.6254V306.941Z" fill="#EF5B59"/>
<path d="M112.715 306.941H90.2108V309.442H112.715V306.941Z" fill="#E6E8EC"/>
<path d="M106.051 311.11H90.2108V313.611H106.051V311.11Z" fill="#E6E8EC"/>
<path d="M112.715 315.272H90.2108V317.774H112.715V315.272Z" fill="#E6E8EC"/>
<path d="M112.721 319.441H66.4562V321.942H112.721V319.441Z" fill="#E6E8EC"/>
<path d="M112.721 323.609H66.4562V326.11H112.721V323.609Z" fill="#E6E8EC"/>
<path d="M112.721 327.778H66.4562V330.279H112.721V327.778Z" fill="#E6E8EC"/>
<path d="M108.969 331.946H66.4562V334.447H108.969V331.946Z" fill="#E6E8EC"/>
<path d="M112.721 336.115H66.4562V338.616H112.721V336.115Z" fill="#E6E8EC"/>
<path d="M112.721 340.283H66.4562V342.784H112.721V340.283Z" fill="#E6E8EC"/>
<path d="M118.342 352.053H60.8287V395.4H118.342V352.053Z" fill="white"/>
<path opacity="0.2" d="M85.6254 355.805H66.4562V366.643H85.6254V355.805Z" fill="#EF5B59"/>
<path d="M112.715 355.805H90.2108V358.306H112.715V355.805Z" fill="#E6E8EC"/>
<path d="M106.051 359.974H90.2108V362.475H106.051V359.974Z" fill="#E6E8EC"/>
<path d="M112.715 364.142H90.2108V366.643H112.715V364.142Z" fill="#E6E8EC"/>
<path d="M112.721 368.311H66.4562V370.812H112.721V368.311Z" fill="#E6E8EC"/>
<path d="M112.721 372.479H66.4562V374.98H112.721V372.479Z" fill="#E6E8EC"/>
<path d="M112.721 376.648H66.4562V379.149H112.721V376.648Z" fill="#E6E8EC"/>
<path d="M108.969 380.816H66.4562V383.317H108.969V380.816Z" fill="#E6E8EC"/>
<path d="M112.721 384.979H66.4562V387.48H112.721V384.979Z" fill="#E6E8EC"/>
<path d="M112.721 389.147H66.4562V391.648H112.721V389.147Z" fill="#E6E8EC"/>
<path d="M314.764 372.531C310.874 367.813 306.161 362.388 306.821 356.106C307.354 351.017 306.074 346.316 306.329 341.215C306.688 333.967 305.223 328.287 300.001 323.638C296.95 320.923 291.849 318.787 290.333 319.331C287.322 320.408 284.039 319.997 280.942 320.72C278.591 321.299 277.022 322.116 276.056 323.175C274.104 324.912 274.07 327.378 274.961 330.013C274.183 331.436 273.713 333.006 273.582 334.623C273.451 336.239 273.663 337.866 274.202 339.395C274.742 340.924 275.598 342.323 276.714 343.499C277.831 344.676 279.182 345.604 280.681 346.223C278.51 347.127 276.629 349.217 275.905 353.455C275.39 356.367 274.615 359.226 273.589 362C273.129 362.219 272.658 362.412 272.177 362.579C272.281 362.619 272.391 362.648 272.501 362.689C272.275 362.776 272.043 362.863 271.818 362.944C272.234 363.105 272.664 363.229 273.103 363.314C271.523 367.414 269.401 371.283 266.792 374.818C266.792 374.818 260.238 376.265 257.691 373.735C257.691 373.735 258.108 374.222 258.669 374.951C256.174 373.915 252.087 372.23 248.59 370.841C246.054 369.833 245.4 370.841 245.435 372.242C244.811 372.314 244.209 372.511 243.663 372.821C242.913 372.34 242.128 371.917 241.312 371.559C239.853 371.2 235.123 368.664 230.388 377.348C227.632 382.402 220.545 391.619 215.132 398.445C204.566 403.303 190.816 409.445 185.709 411.003H182.444C182.016 410.302 181.715 409.845 181.715 409.845L181.46 410.013L181.35 409.845C181.35 409.845 174.918 414.297 168.387 414.332C167.458 414.317 166.533 414.196 165.631 413.973C162.627 413.214 160.513 412.879 159.002 412.908C157.213 412.879 156.2 413.301 155.569 414.1C155.487 414.205 155.412 414.316 155.343 414.43C155.273 414.548 155.21 414.67 155.152 414.795C155.094 414.922 155.042 415.055 154.99 415.194C154.97 415.316 154.978 415.441 155.013 415.559C155.048 415.678 155.109 415.786 155.193 415.878C155.28 416.003 155.375 416.123 155.476 416.237L155.656 416.433C156.949 417.638 158.35 418.721 159.842 419.67C160.38 420.034 160.948 420.405 161.544 420.787L162.673 421.505L163.68 422.136L164.085 422.385L164.537 422.663L165.342 423.155L165.822 423.445L166.726 423.983L167.455 424.417C169.366 425.575 171.276 426.64 172.99 427.607L174.194 428.285L174.31 428.348L175.08 428.777L176.417 429.518L177.338 430.021L177.766 430.259L178.229 430.508L178.322 430.56L179.121 430.994C179.285 431.021 179.454 431.013 179.615 430.969C179.776 430.925 179.925 430.846 180.053 430.739C180.285 429.755 180.852 427.648 181.454 427.486C182.056 427.324 184.685 422.715 185.432 419.647H192.535C193.932 419.529 195.318 419.318 196.686 419.016C194.851 420.324 193.033 421.146 191.621 420.793C188.633 420.052 185.802 421.87 185.518 423.688L185.484 423.798C185.484 423.832 185.484 423.873 185.484 423.908C185.484 423.942 185.484 423.995 185.484 424.041C185.484 424.087 185.484 424.116 185.484 424.151C185.484 424.186 185.484 424.238 185.484 424.284C185.484 424.33 185.484 424.359 185.484 424.394C185.484 424.429 185.484 424.487 185.484 424.527C185.484 424.568 185.484 424.597 185.484 424.631C185.484 424.666 185.484 424.73 185.518 424.776C185.553 424.822 185.518 424.84 185.518 424.869C185.54 424.932 185.565 424.994 185.594 425.054V425.1C185.633 425.177 185.678 425.25 185.727 425.32L185.785 425.396L185.901 425.54L185.982 425.621L186.115 425.749L186.213 425.83L186.369 425.946L186.485 426.021L186.676 426.131L186.804 426.2L187.041 426.31L187.163 426.362C187.29 426.415 187.423 426.467 187.568 426.513C187.713 426.559 188.066 426.664 188.373 426.739L188.68 426.814L189.125 426.918L189.363 426.97L190.335 427.167L190.81 427.254L191.198 427.324L192.09 427.48L193.826 427.764L195.361 427.995L197.358 428.279L197.798 428.337L198.516 428.435L199.547 428.574L200.253 428.667L202.077 428.898L202.656 428.968L203.813 429.107C205.324 429.286 206.789 429.46 208.132 429.61L209.69 429.784L210.477 429.871L210.813 429.906L211.757 430.01L212.284 430.068L212.926 430.137L213.835 430.23H213.934L214.513 430.288C214.585 430.295 214.658 430.287 214.727 430.265C214.797 430.242 214.86 430.206 214.915 430.157C214.969 430.109 215.013 430.049 215.043 429.983C215.074 429.917 215.09 429.845 215.091 429.773C215.091 429.773 215.091 429.732 215.091 429.715C215.146 429.632 215.177 429.536 215.178 429.437C215.193 428.571 215.302 427.709 215.503 426.866C215.543 426.721 215.589 426.571 215.636 426.426L215.694 426.258C215.757 426.079 215.821 425.899 215.896 425.714C215.948 425.583 215.992 425.45 216.029 425.315L216.064 425.187C216.064 425.118 216.099 425.042 216.116 424.967C216.852 422.466 215.966 417.806 215.711 415.976C215.631 415.386 215.497 414.805 215.311 414.239C215.358 414.244 215.404 414.244 215.45 414.239C215.828 414.098 216.183 413.903 216.504 413.66C221.871 411.744 226.404 409.555 227.834 407.361C230.161 406.742 232.633 406.999 234.782 408.085C237.561 409.469 258.594 416.329 268.39 419.502C270.127 421.019 271.528 421.904 272.287 421.818C272.287 421.818 284.751 423.832 289.765 419.896C290.211 420.202 290.489 420.37 290.489 420.37C290.489 420.37 297.772 416.752 298.866 412.051C299.22 410.528 299.538 408.276 299.862 405.786C301.553 404.084 302.504 401.783 302.508 399.383C302.734 391.48 305.796 382.454 308.066 374.413C310.822 374.627 311.887 374.112 314.435 372.861L314.325 372.716L314.764 372.531ZM273.01 384.365L271.621 383.896C272.091 383.267 272.497 382.592 272.831 381.881L273.01 384.365ZM265.171 387.688L273.612 392.754L273.688 393.785C273.585 394.569 273.608 395.364 273.757 396.141C270.04 392.835 265.686 388.823 265.177 387.688H265.171ZM261.726 380.312C260.806 379.93 260.042 379.589 259.521 379.305L261.477 379.427C261.593 379.712 261.679 380.009 261.732 380.312H261.726ZM239.147 388.562C239.147 388.562 240.606 385.309 243.883 390.734C244.392 391.579 245.33 392.916 246.569 394.584L237.04 393.304C238.03 391.869 238.741 390.261 239.136 388.562H239.147Z" fill="url(#paint3_linear_1_5)"/>
<path d="M260.111 375.484C260.111 375.484 253.43 372.67 248.161 370.563C242.893 368.455 246.054 375.484 246.054 375.484C246.054 375.484 254.843 377.944 254.843 378.298C254.843 378.651 262.224 378.998 262.224 378.998L260.111 375.484Z" fill="#F7C4A7"/>
<path opacity="0.05" d="M260.111 375.484C260.111 375.484 253.43 372.67 248.161 370.563C242.893 368.455 246.054 375.484 246.054 375.484C246.054 375.484 254.843 377.944 254.843 378.298C254.843 378.651 262.224 378.998 262.224 378.998L260.111 375.484Z" fill="black"/>
<path d="M288.567 347.717C288.567 347.717 276.617 341.389 274.504 353.692C273.189 361.182 270.189 368.275 265.733 374.436C265.733 374.436 259.405 375.843 256.944 373.382C256.944 373.382 262.919 380.411 260.105 381.117C260.105 381.117 266.433 385.685 269.247 384.278C272.061 382.871 274.168 373.382 275.222 370.922C276.276 368.461 280.143 347.011 288.567 347.717Z" fill="#575988"/>
<path opacity="0.1" d="M288.567 347.717C288.567 347.717 276.617 341.389 274.504 353.692C273.189 361.182 270.189 368.275 265.733 374.436C265.733 374.436 259.405 375.843 256.944 373.382C256.944 373.382 262.919 380.411 260.105 381.117C260.105 381.117 266.433 385.685 269.247 384.278C272.061 382.871 274.168 373.382 275.222 370.922C276.276 368.461 280.143 347.011 288.567 347.717Z" fill="black"/>
<path d="M281.903 343.497C281.903 343.497 289.285 351.932 289.638 358.96C289.991 365.989 298.073 351.579 298.78 351.226C299.486 350.872 291.745 338.929 291.039 335.067C290.333 331.205 281.903 343.497 281.903 343.497Z" fill="#F7C4A7"/>
<path d="M286.998 347.103L282.343 351.318L284.537 360.194L290.512 354.572L289.811 348.95L286.998 347.103Z" fill="#F7C4A7"/>
<path d="M189.808 409.584H181.726L184.887 417.313L192.622 415.206L189.808 409.584Z" fill="#F7C4A7"/>
<path opacity="0.1" d="M183.59 408.467C183.59 408.467 175.23 414.297 168.069 412.479C160.907 410.661 158.973 411.321 158.14 413.689C157.37 415.843 178.119 427.242 181.425 429.043C181.477 429.078 181.538 429.099 181.599 429.104C181.662 429.11 181.725 429.1 181.782 429.075C181.84 429.051 181.89 429.012 181.929 428.963C181.968 428.914 181.994 428.856 182.004 428.794C182.23 427.839 182.774 425.789 183.353 425.633C184.112 425.43 187.579 418.963 187.406 416.41C187.232 413.857 183.59 408.467 183.59 408.467Z" fill="black"/>
<path d="M183.243 408.467C183.243 408.467 174.883 414.297 167.721 412.479C160.56 410.661 158.626 411.321 157.792 413.689C157.022 415.843 177.772 427.242 181.078 429.043C181.13 429.078 181.19 429.099 181.252 429.104C181.315 429.11 181.377 429.1 181.434 429.075C181.492 429.051 181.543 429.012 181.582 428.963C181.62 428.914 181.646 428.856 181.657 428.794C181.883 427.839 182.427 425.789 183.006 425.633C183.764 425.43 187.232 418.963 187.058 416.41C186.885 413.857 183.243 408.467 183.243 408.467Z" fill="#F3B5B7"/>
<path d="M252.376 394.467L228.824 391.307C228.824 391.307 190.509 409.584 185.941 409.937L186.995 418.043H194.023C196.837 418.043 224.251 412.068 228.118 406.093C230.355 405.497 232.734 405.746 234.799 406.794C238.313 408.531 272.061 419.45 272.061 419.45L252.376 394.467Z" fill="#575988"/>
<path opacity="0.1" d="M252.376 394.467L228.824 391.307C228.824 391.307 190.509 409.584 185.941 409.937L186.995 418.043H194.023C196.837 418.043 224.251 412.068 228.118 406.093C230.355 405.497 232.734 405.746 234.799 406.794C238.313 408.531 272.061 419.45 272.061 419.45L252.376 394.467Z" fill="black"/>
<path d="M210.547 405.364L206.679 410.285L210.547 412.392L216.174 408.177L210.547 405.364Z" fill="#F7C4A7"/>
<path d="M277.682 399.736C277.682 399.736 265.038 388.91 264.152 386.941C263.266 384.973 242.534 371.622 241.127 371.269C239.72 370.916 235.152 368.455 230.584 376.891C226.016 385.326 209.163 405.711 209.163 405.711C209.163 405.711 214.437 413.093 216.191 412.74C217.946 412.386 237.613 395.869 239.037 387.781C239.037 387.781 240.444 384.62 243.605 389.888C246.766 395.157 267.157 420.469 271.024 420.115C271.024 420.115 286.141 422.576 289.302 416.601C292.463 410.626 277.682 399.736 277.682 399.736Z" fill="#575988"/>
<path d="M274.133 342.987H221.501V382.651H274.133V342.987Z" fill="url(#paint4_linear_1_5)"/>
<path d="M271.98 344.602H223.648V381.03H271.98V344.602Z" fill="white"/>
<path opacity="0.2" d="M244.491 347.758H228.379V356.865H244.491V347.758Z" fill="#EF5B59"/>
<path d="M267.255 347.758H248.341V349.859H267.255V347.758Z" fill="#E6E8EC"/>
<path d="M261.651 351.26H248.341V353.362H261.651V351.26Z" fill="#E6E8EC"/>
<path d="M267.255 354.763H248.341V356.865H267.255V354.763Z" fill="#E6E8EC"/>
<path d="M267.255 358.266H228.379V360.367H267.255V358.266Z" fill="#E6E8EC"/>
<path d="M267.255 361.768H228.379V363.87H267.255V361.768Z" fill="#E6E8EC"/>
<path d="M267.255 365.271H228.379V367.373H267.255V365.271Z" fill="#E6E8EC"/>
<path d="M264.106 368.774H228.379V370.875H264.106V368.774Z" fill="#E6E8EC"/>
<path d="M267.255 372.276H228.379V374.378H267.255V372.276Z" fill="#E6E8EC"/>
<path d="M267.255 375.779H228.379V377.881H267.255V375.779Z" fill="#E6E8EC"/>
<path d="M284.89 348.244C284.89 348.244 280.496 350.178 280.143 358.26C279.79 366.342 272.038 380.052 272.038 380.052L272.738 396.222C272.738 396.222 281.173 404.657 281.88 409.932C282.586 415.206 288.567 418.72 288.567 418.72C288.567 418.72 295.595 415.206 296.672 410.615C297.749 406.024 298.409 394.798 300.186 390.577C301.964 386.357 300.887 359.997 300.887 359.997L295.613 350.855L292.799 347.694L285.417 356.129C285.417 356.129 281.376 350.699 284.89 348.244Z" fill="#F3B5B7"/>
<path opacity="0.1" d="M274.521 390.948C274.521 390.948 273.468 378.292 276.629 375.484L282.957 357.536C282.957 357.536 285.244 348.927 284.89 348.221C284.537 347.514 276.629 355.076 276.629 355.076L271.354 373.706L272.761 393.391L274.521 390.948Z" fill="black"/>
<path d="M274.168 390.948C274.168 390.948 273.114 378.292 276.275 375.484L282.603 357.536C282.603 357.536 285.064 348.748 284.711 348.047C284.358 347.347 276.275 355.076 276.275 355.076L271.001 373.706L272.408 393.391L274.168 390.948Z" fill="#575988"/>
<path d="M276.629 385.326C276.629 385.326 259.04 379.704 257.998 378.298C256.956 376.891 245.695 367.755 241.828 374.077C237.96 380.399 256.238 382.182 256.238 382.182L274.869 393.431L276.629 385.326Z" fill="#F7C4A7"/>
<path opacity="0.1" d="M211.305 410.25L206.095 409.312C206.095 409.312 197.572 420.226 193.137 419.12C188.703 418.014 184.615 422.79 189.305 424.33C193.543 425.714 211.832 427.654 215.329 428.012C215.401 428.022 215.473 428.017 215.542 427.996C215.612 427.976 215.676 427.941 215.731 427.894C215.786 427.847 215.83 427.789 215.86 427.724C215.89 427.658 215.907 427.587 215.908 427.515C215.925 426.159 216.187 424.817 216.684 423.554C217.622 421.239 216.684 416.306 216.423 414.43C216.278 413.324 215.931 412.255 215.398 411.275L211.305 410.25Z" fill="black"/>
<path d="M211.224 410.592L206.013 409.654C206.013 409.654 197.503 420.573 193.039 419.461C188.575 418.35 184.517 423.132 189.206 424.672C193.444 426.056 211.734 427.995 215.23 428.354C215.302 428.364 215.375 428.359 215.444 428.338C215.514 428.318 215.577 428.283 215.632 428.235C215.687 428.188 215.731 428.131 215.762 428.065C215.792 428 215.808 427.929 215.809 427.856C215.826 426.5 216.089 425.158 216.585 423.896C217.523 421.58 216.585 416.648 216.325 414.772C216.18 413.666 215.833 412.596 215.3 411.616L211.224 410.592Z" fill="#F3B5B7"/>
<path opacity="0.1" d="M284.537 347.543C290.75 347.543 295.786 342.507 295.786 336.294C295.786 330.081 290.75 325.045 284.537 325.045C278.324 325.045 273.288 330.081 273.288 336.294C273.288 342.507 278.324 347.543 284.537 347.543Z" fill="black"/>
<path d="M283.484 347.543C289.696 347.543 294.733 342.507 294.733 336.294C294.733 330.081 289.696 325.045 283.484 325.045C277.271 325.045 272.234 330.081 272.234 336.294C272.234 342.507 277.271 347.543 283.484 347.543Z" fill="#F7C4A7"/>
<path d="M294.553 347.364C294.553 347.364 307.91 351.932 307.91 361.427C307.91 370.922 300.528 386.032 300.175 398.335C299.822 410.638 280.49 408.878 280.49 408.878C280.49 408.878 277.677 367.402 280.49 364.235C283.304 361.068 295.96 348.771 294.553 347.364Z" fill="#575988"/>
<path opacity="0.1" d="M292.093 367.048C292.093 367.048 287.171 388.84 275.569 384.996C275.569 384.996 269.594 393.785 273.832 397.652C273.832 397.652 284.028 400.113 290.703 393.431C297.378 386.75 302.288 384.278 303.342 376.173C304.395 368.067 305.079 356.841 301.605 357.895C298.131 358.949 292.093 367.048 292.093 367.048Z" fill="black"/>
<path d="M292.446 366.695C292.446 366.695 287.525 388.487 275.922 384.643C275.922 384.643 269.948 393.431 274.185 397.299C274.185 397.299 284.381 399.759 291.056 393.078C297.732 386.397 302.635 383.937 303.712 375.854C304.789 367.772 305.449 356.523 301.975 357.577C298.502 358.63 292.446 366.695 292.446 366.695Z" fill="#575988"/>
<path d="M216.886 422.767C216.886 422.802 216.886 422.837 216.852 422.866C216.6 423.465 216.406 424.088 216.273 424.724C216.354 424.446 216.452 424.145 216.568 423.884C216.716 423.526 216.823 423.151 216.886 422.767Z" fill="#DDDBE2"/>
<path d="M189.49 423.647C188.043 423.172 187.435 422.391 187.412 421.569C186.833 422.727 187.192 424 189.235 424.672C193.473 426.056 211.768 427.995 215.259 428.354C215.331 428.364 215.405 428.358 215.474 428.338C215.544 428.317 215.608 428.282 215.663 428.234C215.718 428.186 215.762 428.127 215.792 428.061C215.823 427.995 215.838 427.923 215.838 427.85C215.841 427.722 215.795 427.598 215.71 427.501C215.626 427.405 215.508 427.344 215.381 427.329C211.531 426.912 193.67 425.008 189.49 423.647Z" fill="#DDDBE2"/>
<path d="M158.273 413.07C158.362 412.811 158.477 412.561 158.614 412.323C158.235 412.707 157.951 413.175 157.786 413.689C157.016 415.843 177.766 427.237 181.072 429.043C181.125 429.077 181.184 429.096 181.246 429.101C181.308 429.106 181.37 429.096 181.427 429.071C181.484 429.046 181.534 429.009 181.573 428.96C181.612 428.912 181.639 428.855 181.651 428.794C181.671 428.713 181.663 428.628 181.63 428.552C181.596 428.476 181.539 428.412 181.466 428.371C177.795 426.368 157.509 415.2 158.273 413.07Z" fill="#DDDBE2"/>
<path d="M183.463 425.013C183.278 425.066 183.093 425.309 182.925 425.656H182.983C183.133 425.616 183.399 425.315 183.724 424.846C183.651 424.921 183.562 424.978 183.463 425.013Z" fill="#DDDBE2"/>
<path opacity="0.1" d="M281.92 346.194C280.93 348.377 280.722 350.826 279.992 353.142C279.282 355.384 278.063 357.431 276.431 359.124C274.799 360.817 272.798 362.11 270.584 362.903C274.238 364.362 278.545 362.579 281.37 359.626C284.196 356.673 285.846 352.742 287.432 348.921C291.531 351.677 291.033 358.011 292.405 362.944C292.997 365.089 294.042 367.083 295.47 368.79C296.899 370.497 298.676 371.877 300.684 372.838C302.685 373.736 304.86 374.179 307.053 374.135C309.245 374.091 311.401 373.561 313.363 372.583C309.606 367.998 304.256 361.71 304.893 355.608C305.409 350.664 301.86 346.889 302.109 341.933C302.456 334.893 299.793 331.333 294.727 326.817C291.78 324.177 296.417 320.448 292.619 321.542C291.126 321.971 289.551 320.385 288.086 320.9C285.191 321.942 282.013 321.548 279.026 322.249C263.492 325.885 283.356 343.004 281.92 346.194Z" fill="black"/>
<path d="M282.273 345.841C281.283 348.024 281.075 350.473 280.346 352.789C279.635 355.03 278.416 357.078 276.784 358.771C275.152 360.464 273.151 361.757 270.938 362.55C274.591 364.009 278.898 362.226 281.723 359.273C284.549 356.32 286.199 352.389 287.785 348.568C291.884 351.324 291.386 357.658 292.758 362.59C293.35 364.736 294.395 366.729 295.823 368.437C297.252 370.144 299.03 371.524 301.037 372.485C303.038 373.383 305.213 373.826 307.405 373.782C309.598 373.738 311.754 373.208 313.717 372.23C309.959 367.645 304.963 362.388 305.611 356.309C306.126 351.365 305.356 346.287 305.611 341.331C305.959 334.291 302.514 327.512 297.471 322.996C294.524 320.356 289.945 320.02 288.457 320.547C285.562 321.589 282.383 321.195 279.396 321.896C263.845 325.537 283.721 342.651 282.273 345.841Z" fill="#B96B6B"/>
<path d="M94.8598 452.879C115.123 446.643 127.084 447.159 127.084 447.159L125.423 437.739C125.942 437.391 126.413 436.976 126.824 436.506C126.824 436.506 124.745 425.071 126.824 422.211C128.902 419.351 134.622 393.368 134.622 393.368V384.527C145.044 380.891 157.231 359.84 157.231 359.84L172.567 399.331C172.567 399.331 187.898 429.738 189.976 430.774C191.638 431.602 192.466 438.405 192.738 441.108L192.611 441.149C192.674 441.803 192.703 442.208 192.703 442.208L192.825 442.127V442.208C193.082 442.029 193.353 441.87 193.635 441.734C190.642 445.173 186.161 450.117 182.433 453.382C180.377 455.183 184.065 456.572 185.791 456.543C186.772 456.511 187.751 456.65 188.685 456.954C197.422 459.971 211.786 448.959 211.786 448.959L208.19 438.932C209.128 438.856 209.707 438.822 209.707 438.822C209.707 438.822 198.012 397.762 192.553 393.86C190.827 392.602 189.271 391.127 187.921 389.471C185.324 386.315 184.015 382.296 184.256 378.216L186.173 344.527C189.253 344.075 191.239 343.699 191.239 343.699C191.239 343.699 191.956 334.494 191.933 327.43C191.933 323.754 191.783 320.529 191.239 319.267C190.596 317.773 190.393 314.786 190.382 311.787C190.382 307.734 190.717 303.936 190.717 303.936C190.717 303.936 194.874 298.477 200.594 285.989C203.113 280.495 203.767 276.147 203.709 273.032C203.748 271.58 203.608 270.129 203.292 268.713C203.13 268.012 202.83 267.35 202.41 266.767C201.99 266.183 201.457 265.689 200.843 265.314C197.555 263.3 190.069 258.326 187.863 253.509C185.061 247.396 181.014 246.527 180.852 246.492L180.603 245.416C182.155 244.132 183.288 242.414 183.857 240.483C184.702 237.878 184.876 235.099 185.594 232.453C185.941 231.179 186.422 229.946 186.752 228.672C187.081 227.39 187.239 226.07 187.221 224.747C187.283 222.819 186.886 220.904 186.063 219.16C184.719 216.398 182.045 214.227 178.999 213.868C177.32 213.671 175.462 213.961 174.084 212.983C173.135 212.305 172.637 211.153 171.768 210.348C170.118 208.785 167.478 208.866 165.33 209.596C162.438 210.587 159.96 212.517 158.29 215.078C157.289 216.618 156.588 218.384 155.303 219.71C154.22 220.816 152.802 221.522 151.609 222.506C150.726 223.195 150.008 224.072 149.507 225.074C149.007 226.076 148.736 227.176 148.714 228.296C148.714 228.296 148.714 228.354 148.714 228.383C148.714 228.527 148.714 228.672 148.714 228.817C148.772 231.052 150.33 233.275 152.518 233.726C153.091 233.832 153.677 233.847 154.255 233.773C153.762 235.597 153.641 237.501 153.902 239.372C154.162 241.243 154.797 243.043 155.77 244.662C156.743 246.282 158.033 247.689 159.562 248.798C161.091 249.908 162.829 250.696 164.67 251.118C164.635 251.304 164.595 251.489 164.554 251.697H164.676C164.425 252.598 164.112 253.48 163.738 254.337H163.57L163.993 253.585L158.03 253.174C156.293 253.043 154.553 253.368 152.981 254.117C150.926 255.113 148.679 257.012 148.402 260.602C147.881 267.329 135.143 277.461 135.143 277.461C130.726 284.478 101.877 285.775 101.877 285.775C101.877 285.775 102.004 285.937 102.062 286.024L101.483 285.914L99.3003 285.514C99.3003 285.514 92.5439 265.505 86.048 269.141C79.5522 272.777 97.2219 292.531 97.2219 292.531L102.328 292.873L102.844 292.907C102.656 294.202 102.387 295.484 102.039 296.746C101.969 297.001 101.917 297.163 101.906 297.203C101.906 297.203 115.337 295.652 126.749 295.901H127.779L128.509 295.866C129.088 302.136 138.027 314.879 138.027 314.879L143.544 316.037L143.961 316.123C142.183 319.8 139.925 323.225 137.245 326.307L135.427 336.445L135.572 336.41L135.427 337.226C135.739 337.15 136.027 336.999 136.267 336.786C132.706 346.235 126.801 360.94 122.696 366.07C116.461 373.869 117.236 386.333 117.236 386.333C117.236 386.333 111.001 419.079 111.262 425.054C111.292 427.938 110.511 430.772 109.009 433.235C107.786 434.639 106.712 436.166 105.802 437.791C101.124 445.85 93.5861 445.317 93.5861 445.317C87.0902 449.497 94.8598 452.879 94.8598 452.879ZM134.999 294.366L135.67 294.1L135.827 294.036L136.469 293.758L136.579 293.706L137.158 293.44L137.286 293.382L137.899 293.075L138.044 293L138.623 292.693H138.669L139.248 292.357L139.387 292.276L139.966 291.94L140.059 291.883L140.563 291.576L140.678 291.506L141.217 291.165L141.338 291.084L141.836 290.754L141.883 290.725L142.392 290.372L142.508 290.29L142.994 289.943L143.069 289.891L143.498 289.578L143.59 289.509L144.036 289.167L144.129 289.098L144.534 288.779H144.569L144.98 288.449L145.067 288.38L145.455 288.061L145.489 288.033L145.837 287.737L145.895 287.685L146.236 287.39L146.288 287.344L146.601 287.06L146.902 286.788L146.943 286.747L147.522 286.168L148.367 286.099C149.085 287.031 149.368 288.681 149.397 290.574C149.316 295.432 147.846 301.43 147.846 301.43C147.721 304.406 147.203 307.353 146.306 310.195C145.672 310.16 145.049 310.009 144.47 309.749C144.47 309.749 144.436 309.934 144.384 310.247L143.886 310.12L141.356 309.489C141.356 309.489 139.254 298.79 134.999 294.366Z" fill="url(#paint5_linear_1_5)"/>
<path d="M205.475 432.789L210.298 446.226C210.298 446.226 197.092 456.358 188.512 454.262C187.219 453.941 185.902 453.728 184.575 453.625C182.797 453.492 179.74 452.201 181.628 450.551C187.718 445.225 195.835 435.33 195.835 435.33L205.475 432.789Z" fill="#4F4D59"/>
<path d="M125.301 431.521L127.582 444.461C127.582 444.461 115.911 443.951 96.1219 450.042C96.1219 450.042 88.5086 446.742 94.8539 442.683C94.8539 442.683 102.212 443.193 106.78 435.325C111.348 427.457 114.139 428.476 114.139 428.476L125.301 431.521Z" fill="#4F4D59"/>
<path d="M185.686 337.643L183.452 377.012C183.212 381.209 184.604 385.335 187.336 388.528C188.572 389.994 189.979 391.306 191.528 392.436C196.854 396.239 208.271 436.326 208.271 436.326C208.271 436.326 195.332 437.085 191.783 439.626C191.783 439.626 191.024 429.477 188.992 428.464C186.96 427.451 171.994 397.779 171.994 397.779L157.016 359.209C157.016 359.209 145.09 379.762 134.941 383.311V391.938C134.941 391.938 129.36 417.308 127.328 420.098C125.295 422.889 127.328 434.051 127.328 434.051C127.328 434.051 121.492 441.41 108.048 433.542C108.048 433.542 112.362 428.719 112.101 422.883C111.84 417.047 117.948 385.089 117.948 385.089C117.948 385.089 117.19 372.931 123.275 365.3C129.36 357.669 139.486 328.513 139.486 328.513L146.468 313.489L185.686 337.643Z" fill="#787C9C"/>
<g opacity="0.1">
<path opacity="0.1" d="M205.857 436.338C205.857 436.338 194.44 396.251 189.114 392.447C187.476 391.25 185.996 389.851 184.708 388.285C182.101 385.134 180.791 381.111 181.043 377.03L183.278 337.661L145.86 314.595L146.369 313.501L185.559 337.655L183.324 377.024C183.072 381.105 184.383 385.129 186.989 388.279C188.277 389.845 189.758 391.244 191.395 392.441C196.721 396.245 208.138 436.332 208.138 436.332C208.138 436.332 195.199 437.091 191.65 439.632C191.65 439.632 191.621 439.238 191.557 438.596C196.548 436.888 205.857 436.338 205.857 436.338Z" fill="black"/>
<path opacity="0.1" d="M124.925 434.068C124.925 434.068 122.893 422.906 124.925 420.115C126.957 417.324 132.538 391.955 132.538 391.955V383.328C142.687 379.773 154.614 359.226 154.614 359.226L155.5 361.513C152.061 366.967 142.884 380.509 134.825 383.328V391.955C134.825 391.955 129.244 417.324 127.212 420.115C125.18 422.906 127.212 434.068 127.212 434.068C127.212 434.068 124.381 437.628 118.128 437.148C122.789 436.748 124.925 434.068 124.925 434.068Z" fill="black"/>
</g>
<path d="M98.4087 293.498L103.394 293.828L106.022 294.002V287.633L102.548 287.008L100.412 286.62C100.412 286.62 93.8176 267.086 87.4723 270.635C81.1269 274.184 98.4087 293.498 98.4087 293.498Z" fill="#714B4F"/>
<path d="M178.328 241.236C178.328 241.236 181.628 253.921 182.641 261.789C183.654 269.657 159.049 263.311 159.049 263.311C159.049 263.311 168.433 251.894 163.101 245.804L178.328 241.236Z" fill="#714B4F"/>
<path d="M151.69 294.007L151.181 298.83L159.043 298.321L166.905 291.472L174.767 269.396L179.85 261.54L183.654 256.717L182.132 250.881C182.132 250.881 181.437 251.46 180.262 252.386C176.4 255.345 167.333 261.487 160.71 259.791C160.404 259.715 160.102 259.62 159.807 259.507L149.913 276.506L151.69 294.007Z" fill="#E6E6F0"/>
<path opacity="0.1" d="M180.105 249.381C180.105 249.381 184.158 250.14 186.954 256.231C189.102 260.914 196.345 265.743 199.581 267.729C200.198 268.106 200.733 268.603 201.155 269.191C201.577 269.779 201.876 270.444 202.036 271.15C202.69 274.045 202.939 279.429 199.384 287.187C193.803 299.345 189.745 304.695 189.745 304.695C189.745 304.695 188.732 316.853 190.254 320.425C191.777 323.997 190.254 343.514 190.254 343.514C190.254 343.514 163.622 348.586 154.735 343.514C145.848 338.442 147.122 318.856 147.122 318.856C147.122 318.856 138.75 336.63 135.722 337.14L137.459 327.245C137.459 327.245 147.354 316.587 147.88 302.889C147.88 302.889 150.926 290.458 148.39 287.158C148.39 287.158 105.513 290.713 102.977 287.668C102.977 287.668 131.137 286.4 135.45 279.562C135.45 279.562 147.88 269.668 148.39 263.074C148.464 261.837 148.853 260.639 149.518 259.594C150.184 258.548 151.105 257.689 152.194 257.099C153.92 256.118 155.9 255.676 157.879 255.831L163.611 256.225C163.611 256.225 153.722 273.698 154.249 276.013C154.776 278.329 153.74 296.815 153.74 296.815C153.74 296.815 165.157 272.204 170.228 269.413C175.3 266.623 181.118 255.171 181.118 255.171L180.105 249.381Z" fill="black"/>
<path opacity="0.1" d="M151.69 294.007L151.181 298.83L159.043 298.321L166.905 291.472L174.767 269.396L179.85 261.54L183.654 256.717L182.132 250.881C182.132 250.881 181.437 251.46 180.262 252.386L180.609 254.389C180.609 254.389 174.773 265.847 169.701 268.638C164.63 271.428 153.213 296.04 153.213 296.04C153.213 296.04 154.226 277.513 153.722 275.238C153.375 273.686 157.821 265.135 160.71 259.791C160.404 259.715 160.102 259.62 159.807 259.507L149.913 276.506L151.69 294.007Z" fill="black"/>
<path opacity="0.1" d="M103.394 293.834L106.022 294.007V287.639L102.548 287.014C103.77 288.635 103.729 291.448 103.394 293.834Z" fill="black"/>
<path d="M180.105 248.594C180.105 248.594 184.158 249.353 186.954 255.443C189.102 260.127 196.345 264.955 199.581 266.941C200.198 267.318 200.733 267.815 201.155 268.403C201.577 268.991 201.876 269.657 202.036 270.363C202.69 273.258 202.939 278.642 199.384 286.4C193.803 298.558 189.745 303.908 189.745 303.908C189.745 303.908 188.732 316.065 190.254 319.637C191.777 323.209 190.254 342.726 190.254 342.726C190.254 342.726 163.622 347.798 154.735 342.726C145.848 337.655 147.122 318.115 147.122 318.115C147.122 318.115 138.75 335.872 135.722 336.375L137.459 326.48C137.459 326.48 147.354 315.822 147.88 302.124C147.88 302.124 150.926 289.694 148.39 286.394C148.39 286.394 138.496 297.053 127.333 296.815C116.171 296.578 102.977 298.083 102.977 298.083C102.977 298.083 105.513 289.978 102.977 286.921C102.977 286.921 131.137 285.653 135.45 278.816C135.45 278.816 147.88 268.921 148.39 262.327C148.461 261.085 148.849 259.882 149.515 258.832C150.182 257.783 151.106 256.921 152.199 256.329C153.925 255.348 155.905 254.906 157.885 255.061L163.616 255.455C163.616 255.455 153.722 272.951 154.249 275.232C154.776 277.513 153.74 296.034 153.74 296.034C153.74 296.034 165.157 271.422 170.228 268.632C175.3 265.841 181.136 254.384 181.136 254.384L180.123 248.594" fill="#67647E"/>
<path opacity="0.1" d="M185.686 275.232C185.686 275.232 179.596 295.785 176.047 298.321C172.498 300.856 150.932 313.796 144.586 310.751C144.586 310.751 143.064 318.364 145.345 320.136C145.345 320.136 169.001 319.209 169.192 319.122C169.192 319.122 184.667 317.09 187.203 309.483C189.739 301.875 192.784 288.93 192.784 288.93L185.686 275.232Z" fill="black"/>
<path d="M153.213 298.448C153.702 298.448 154.099 297.881 154.099 297.18C154.099 296.479 153.702 295.912 153.213 295.912C152.723 295.912 152.327 296.479 152.327 297.18C152.327 297.881 152.723 298.448 153.213 298.448Z" fill="#BA7855"/>
<path d="M150.677 307.329C151.166 307.329 151.563 306.761 151.563 306.061C151.563 305.361 151.166 304.793 150.677 304.793C150.188 304.793 149.791 305.361 149.791 306.061C149.791 306.761 150.188 307.329 150.677 307.329Z" fill="#BA7855"/>
<g opacity="0.1">
<path opacity="0.1" d="M188.477 342.466C188.477 342.466 190 322.932 188.477 319.377C186.954 315.822 187.967 303.647 187.967 303.647C187.967 303.647 192.02 298.321 197.607 286.139C201.162 278.381 200.907 272.997 200.259 270.102C200.098 269.396 199.798 268.73 199.375 268.142C198.952 267.554 198.416 267.058 197.798 266.681C194.562 264.695 187.319 259.866 185.177 255.183C183.602 251.749 181.628 250.007 180.198 249.144L180.099 248.565C180.099 248.565 184.152 249.324 186.948 255.414C189.096 260.098 196.339 264.926 199.57 266.912C200.188 267.289 200.724 267.786 201.147 268.374C201.569 268.961 201.87 269.628 202.03 270.334C202.684 273.229 202.933 278.613 199.379 286.371C193.797 298.529 189.739 303.879 189.739 303.879C189.739 303.879 188.726 316.037 190.248 319.609C191.771 323.181 190.248 342.698 190.248 342.698C190.248 342.698 171.218 346.322 159.963 344.382C171.334 345.731 188.477 342.466 188.477 342.466Z" fill="black"/>
<path opacity="0.1" d="M154.249 275.232C154.596 276.795 154.249 285.989 153.965 291.616C152.738 294.123 151.968 295.779 151.968 295.779C151.968 295.779 152.981 277.252 152.477 274.977C151.997 272.806 160.907 256.885 161.793 255.293L163.64 255.42C163.64 255.42 153.722 272.951 154.249 275.232Z" fill="black"/>
<path opacity="0.1" d="M125.556 296.543C136.718 296.798 146.613 286.122 146.613 286.122C146.912 286.537 147.13 287.004 147.255 287.5C144.36 290.227 136.255 296.983 127.333 296.763C116.171 296.508 102.977 298.031 102.977 298.031C102.977 298.031 103.029 297.863 103.11 297.574C110.567 296.814 118.061 296.47 125.556 296.543Z" fill="black"/>
<path opacity="0.1" d="M145.345 317.854C145.345 317.854 145.24 319.44 145.298 321.82C142.658 327.03 137.853 336.016 135.705 336.375L136.081 334.291C139.775 329.653 145.345 317.854 145.345 317.854Z" fill="black"/>
</g>
<path d="M148.28 253.828H87.6344V299.531H148.28V253.828Z" fill="url(#paint6_linear_1_5)"/>
<path d="M146.711 255.003H89.1976V298.35H146.711V255.003Z" fill="white"/>
<path opacity="0.2" d="M113.994 258.755H94.825V269.593H113.994V258.755Z" fill="#EF5B59"/>
<path d="M141.084 258.755H118.58V261.256H141.084V258.755Z" fill="#E6E8EC"/>
<path d="M134.42 262.923H118.58V265.424H134.42V262.923Z" fill="#E6E8EC"/>
<path d="M141.084 267.092H118.58V269.593H141.084V267.092Z" fill="#E6E8EC"/>
<path d="M141.089 271.26H94.825V273.761H141.089V271.26Z" fill="#E6E8EC"/>
<path d="M141.089 275.429H94.825V277.93H141.089V275.429Z" fill="#E6E8EC"/>
<path d="M141.089 279.591H94.825V282.092H141.089V279.591Z" fill="#E6E8EC"/>
<path d="M137.338 283.76H94.825V286.261H137.338V283.76Z" fill="#E6E8EC"/>
<path d="M141.089 287.928H94.825V290.429H141.089V287.928Z" fill="#E6E8EC"/>
<path d="M141.089 292.097H94.825V294.598H141.089V292.097Z" fill="#E6E8EC"/>
<path d="M138.241 315.319L143.631 316.477L147.881 317.351L145.599 310.982L144.013 310.583L141.541 309.969C141.541 309.969 137.992 292.224 130.888 293.498C123.784 294.772 138.241 315.319 138.241 315.319Z" fill="#714B4F"/>
<path opacity="0.1" d="M143.631 316.453L147.881 317.351L145.599 310.982L144.013 310.583C143.658 312.518 143.53 314.488 143.631 316.453Z" fill="black"/>
<path d="M185.686 274.728C185.686 274.728 179.596 295.281 176.047 297.817C172.498 300.353 150.932 313.292 144.586 310.247C144.586 310.247 143.064 317.86 145.345 319.632C145.345 319.632 169.001 318.706 169.192 318.619C169.192 318.619 184.667 316.587 187.203 308.979C189.739 301.372 192.784 288.426 192.784 288.426L185.686 274.728Z" fill="#67647E"/>
<path opacity="0.1" d="M178.073 241.745C178.073 241.745 178.588 243.731 179.277 246.62C177.87 249.278 175.626 251.399 172.893 252.655C170.159 253.911 167.088 254.231 164.155 253.567C164.763 250.962 164.63 248.357 162.846 246.29L178.073 241.745Z" fill="black"/>
<path d="M167.42 253.417C174.985 253.417 181.118 247.284 181.118 239.719C181.118 232.153 174.985 226.021 167.42 226.021C159.855 226.021 153.722 232.153 153.722 239.719C153.722 247.284 159.855 253.417 167.42 253.417Z" fill="#714B4F"/>
<path opacity="0.1" d="M155.523 235.944C154.528 236.22 153.487 236.283 152.466 236.129C150.33 235.689 148.807 233.518 148.755 231.335C148.776 230.242 149.041 229.167 149.529 228.188C150.018 227.21 150.719 226.353 151.58 225.679C152.738 224.712 154.127 224.023 155.187 222.946C156.443 221.667 157.126 219.942 158.082 218.436C159.714 215.936 162.135 214.053 164.96 213.087C167.061 212.375 169.632 212.294 171.247 213.822C172.075 214.604 172.561 215.733 173.488 216.393C174.831 217.348 176.649 217.064 178.287 217.255C179.772 217.483 181.178 218.074 182.381 218.975C183.584 219.876 184.546 221.058 185.183 222.42C186.427 225.176 186.664 228.282 185.854 231.196C185.536 232.441 185.073 233.651 184.731 234.89C184.019 237.472 183.851 240.182 183.029 242.729C182.207 245.277 180.51 247.766 177.946 248.519C178.148 245.663 177.585 242.805 176.313 240.24C176.102 239.68 175.689 239.222 175.155 238.954C174.697 238.837 174.217 238.837 173.76 238.954C170.548 239.43 167.27 238.767 164.497 237.079C163.524 236.5 162.007 234.468 160.965 234.265C159.651 234.028 156.912 235.631 155.523 235.944Z" fill="black"/>
<path d="M155.523 235.434C154.528 235.711 153.487 235.774 152.466 235.62C150.33 235.18 148.807 233.009 148.755 230.826C148.776 229.732 149.041 228.657 149.529 227.679C150.018 226.7 150.719 225.843 151.58 225.17C152.738 224.203 154.127 223.514 155.187 222.437C156.443 221.157 157.126 219.432 158.082 217.927C159.714 215.427 162.135 213.544 164.96 212.577C167.061 211.865 169.632 211.784 171.247 213.313C172.075 214.094 172.561 215.223 173.488 215.883C174.831 216.838 176.649 216.555 178.287 216.746C179.772 216.974 181.178 217.564 182.381 218.465C183.584 219.366 184.546 220.549 185.183 221.91C186.427 224.667 186.664 227.773 185.854 230.687C185.536 231.932 185.073 233.142 184.731 234.381C184.019 236.963 183.851 239.672 183.029 242.22C182.207 244.767 180.51 247.257 177.946 248.009C178.148 245.153 177.585 242.295 176.313 239.73C176.102 239.172 175.689 238.712 175.155 238.445C174.697 238.327 174.217 238.327 173.76 238.445C170.548 238.921 167.27 238.257 164.497 236.569C163.524 235.99 162.007 233.958 160.965 233.755C159.651 233.518 156.912 235.128 155.523 235.434Z" fill="#503F43"/>
<path d="M49.8981 440.674C50.9592 439.809 51.7325 438.642 52.1155 437.328C52.405 435.996 51.8376 434.404 50.5639 433.918C49.1397 433.374 47.617 434.358 46.4649 435.359C45.3128 436.361 43.987 437.496 42.4759 437.282C43.2525 436.578 43.8336 435.684 44.1623 434.689C44.491 433.693 44.5563 432.63 44.3517 431.602C44.2864 431.176 44.1063 430.775 43.8307 430.444C43.0375 429.599 41.6075 429.964 40.658 430.629C37.6474 432.748 36.8079 436.836 36.7906 440.518C36.4895 439.192 36.7443 437.808 36.7327 436.465C36.7211 435.122 36.3506 433.57 35.2042 432.864C34.4934 432.482 33.6951 432.292 32.8884 432.314C31.5337 432.262 30.0284 432.401 29.102 433.391C27.9441 434.618 28.251 436.685 29.2526 438.023C30.2542 439.36 31.771 440.223 33.1721 441.161C34.295 441.828 35.2528 442.74 35.9742 443.83C36.0591 443.98 36.1289 444.139 36.1827 444.304H44.6528C46.5572 443.337 48.3217 442.115 49.8981 440.674Z" fill="#EF5B59"/>
<path d="M553.011 360.199C554.072 359.334 554.845 358.167 555.228 356.853C555.517 355.521 554.95 353.929 553.676 353.443C552.252 352.899 550.729 353.883 549.577 354.885C548.425 355.886 547.099 357.021 545.588 356.807C546.365 356.103 546.946 355.209 547.275 354.214C547.604 353.218 547.669 352.155 547.464 351.127C547.399 350.701 547.219 350.3 546.943 349.969C546.15 349.124 544.72 349.489 543.77 350.154C540.76 352.273 539.92 356.361 539.903 360.043C539.602 358.717 539.857 357.334 539.845 355.99C539.834 354.647 539.463 353.096 538.317 352.389C537.606 352.007 536.807 351.817 536.001 351.839C534.646 351.787 533.141 351.926 532.214 352.916C531.057 354.143 531.363 356.21 532.365 357.548C533.367 358.885 534.883 359.748 536.285 360.686C537.408 361.353 538.365 362.265 539.087 363.355C539.172 363.505 539.241 363.664 539.295 363.829H547.777C549.677 362.861 551.438 361.64 553.011 360.199Z" fill="#EF5B59"/>
<path d="M628.263 186.165C627.065 182.657 625.334 178.21 623.967 177.163C623.886 177.096 623.794 177.039 623.695 176.995H623.527V172.658L620.297 173.174C619.782 171.607 619.394 170.003 619.139 168.374C619.452 168.686 619.845 168.899 620.279 168.985C620.708 169.072 621.159 169.028 621.565 168.86C621.513 168.773 621.466 168.681 621.42 168.588L621.565 168.525C621.055 167.628 620.789 166.615 620.783 165.583C620.806 164.642 620.957 163.708 621.229 162.804C621.808 160.807 622.786 158.943 623.331 156.934C623.678 155.642 623.84 154.307 623.817 152.968C623.834 150.7 623.319 148.459 622.312 146.426C622.057 145.839 621.657 145.325 621.154 144.932C620.696 144.68 620.233 144.452 619.753 144.249C618.948 143.708 618.259 143.019 617.715 142.217C615.422 139.422 612.348 137.371 608.886 136.323C607.982 135.986 607.004 135.908 606.06 136.097C603.889 136.676 603.102 139.368 601.342 140.781C599.79 142.026 597.66 142.153 595.709 142.57C593.757 142.987 591.795 143.815 590.463 145.32C589.548 146.37 589.045 147.719 589.056 149.112C589.004 149.763 589.12 150.417 589.386 151.011C589.658 151.605 590.081 152.12 590.608 152.505C591.21 152.899 591.887 153.155 592.6 153.255C593.312 153.355 594.035 153.297 594.724 153.084C594.186 154.937 594.041 156.881 594.29 158.794C594.539 160.707 595.182 162.548 596.177 164.2C597.173 165.853 598.499 167.282 600.074 168.398C601.649 169.513 603.438 170.292 605.325 170.684L605.701 171.361C606.865 173.528 607.751 175.833 608.33 178.222C605.354 179.907 602.106 181.487 600.143 181.638C600.062 182.406 599.923 183.165 599.715 183.907C599.258 185.772 598.372 187.505 597.139 188.973C594.47 191.972 582.468 214.644 582.468 214.644C582.468 214.644 582.091 215.547 581.472 217.087C574.021 218.002 561.857 219.322 558.464 218.645L545.148 205.977C545.148 205.977 540.841 209.266 541.217 213.26L538.815 210.979C538.815 210.979 526.147 220.648 546.15 226.982L576.586 230.513C573.691 239.261 570.981 249.445 571.821 254.986H572.07C572.651 254.986 573.232 254.941 573.807 254.853L573.755 255.837L570.825 308.325C570.825 308.325 570.159 317.994 579.162 322.324C579.162 322.324 590.162 354.659 585.832 358.329C585.832 358.329 586.347 358.601 587.215 358.978L578.166 366.996C578.166 366.996 571.497 368.664 567.832 368.328C567.188 368.24 566.534 368.392 565.994 368.755C565.455 369.118 565.068 369.666 564.908 370.296C564.908 370.366 564.908 370.435 564.873 370.505V370.592C564.873 370.661 564.873 370.731 564.873 370.806C564.873 370.881 564.873 370.858 564.873 370.887C564.873 370.916 564.873 371.009 564.873 371.072C564.873 371.136 564.873 371.124 564.873 371.147C564.873 371.171 564.873 371.292 564.914 371.362V371.443C564.933 371.52 564.958 371.597 564.989 371.674L565.018 371.744C565.047 371.819 565.082 371.894 565.122 371.97V372.022C565.163 372.097 565.209 372.166 565.255 372.242L565.296 372.305C565.35 372.383 565.41 372.46 565.475 372.537L565.528 372.595C565.597 372.676 565.672 372.751 565.748 372.826L565.782 372.855L566.031 373.07L566.083 373.11C566.176 373.185 566.28 373.255 566.384 373.324L566.454 373.371C566.564 373.44 566.68 373.51 566.801 373.573H566.853L567.23 373.759H567.282L567.722 373.932L567.814 373.967L568.295 374.123H568.376L568.903 374.262H568.943L569.522 374.378H569.638L570.263 374.471H570.385L571.091 374.54C572.463 374.644 574.31 374.685 576.447 374.673C576.447 374.673 576.447 374.725 576.447 374.754C576.447 374.783 576.447 374.876 576.447 374.94V375.015C576.447 375.084 576.447 375.16 576.487 375.229V375.31C576.506 375.388 576.532 375.465 576.562 375.542L576.591 375.611C576.62 375.686 576.655 375.762 576.696 375.837V375.889C576.736 375.964 576.782 376.034 576.829 376.109L576.869 376.173C576.923 376.25 576.983 376.327 577.049 376.404L577.101 376.462C577.17 376.543 577.246 376.619 577.321 376.694L577.356 376.723L577.605 376.937L577.657 376.978C577.749 377.053 577.854 377.122 577.958 377.192L578.033 377.238C578.143 377.308 578.259 377.377 578.38 377.441H578.432L578.809 377.626H578.861L579.301 377.8L579.394 377.834L579.874 377.991H579.955L580.482 378.13H580.523L581.101 378.245H581.217L581.843 378.338H581.964L582.67 378.408C591.355 379.073 619.006 377.076 619.006 377.076V377.001V376.902C619.278 375.611 620.609 368.108 615.885 362.562C616.024 362.417 616.163 362.26 616.29 362.098C616.29 362.098 612.626 355.765 614.623 353.761C616.62 351.758 604.624 317.09 604.624 317.09C604.624 317.09 598.291 307.092 601.955 295.756C605.62 284.42 601.62 272.088 601.62 272.088C601.62 272.088 610.362 269.489 610.541 258.726C610.541 258.402 610.541 258.066 610.541 257.724C610.732 257.752 610.929 257.764 611.12 257.759C611.242 257.768 611.369 257.768 611.491 257.759C611.491 257.759 609.823 251.761 611.827 247.425C613.83 243.088 618.16 247.089 622.161 229.425C625.056 216.642 627.603 201.936 628.79 194.78C629.305 191.908 629.126 188.954 628.263 186.165ZM552.183 223.664L549.143 220.769C550.15 221.186 551.268 221.597 552.518 221.991L563.982 223.323C558.864 223.797 554.111 224.052 552.183 223.67V223.664Z" fill="url(#paint7_linear_1_5)"/>
<path d="M581.2 221.968C581.2 221.968 557.619 225.245 552.704 224.284L539.602 211.836C539.602 211.836 527.154 221.337 546.81 227.555L583.493 231.81L581.2 221.968Z" fill="#FDC2CC"/>
<path opacity="0.05" d="M581.2 221.968C581.2 221.968 557.619 225.245 552.704 224.284L539.602 211.836C539.602 211.836 527.154 221.337 546.81 227.555L583.493 231.81L581.2 221.968Z" fill="black"/>
<path d="M589.716 354.943L578.253 365.097C578.253 365.097 571.705 366.736 568.098 366.406C564.491 366.076 562.859 371.975 571.375 372.63C579.892 373.284 607.073 371.321 607.073 371.321C607.073 371.321 609.696 360.842 601.834 354.943H589.716Z" fill="#47465A"/>
<path opacity="0.05" d="M589.716 354.943L578.253 365.097C578.253 365.097 571.705 366.736 568.098 366.406C564.491 366.076 562.859 371.975 571.375 372.63C579.892 373.284 607.073 371.321 607.073 371.321C607.073 371.321 609.696 360.842 601.834 354.943H589.716Z" fill="black"/>
<path opacity="0.3" d="M607.484 366.782C607.467 367.976 607.328 369.165 607.073 370.331C607.073 370.331 579.863 372.294 571.375 371.64C567.282 371.327 565.539 369.798 565.227 368.334C564.856 370.013 566.338 372.236 571.375 372.624C579.891 373.278 607.073 371.315 607.073 371.315C607.392 369.826 607.531 368.304 607.484 366.782Z" fill="white"/>
<path d="M603.142 169.237C603.142 169.237 610.35 179.392 607.728 186.27C605.105 193.148 621.466 179.062 621.466 179.062C621.466 179.062 616.227 169.891 618.844 160.066L603.142 169.237Z" fill="#FDC2CC"/>
<path d="M601.203 358.868L589.739 369.023C589.739 369.023 583.192 370.661 579.585 370.331C575.978 370.001 574.345 375.901 582.862 376.555C591.378 377.209 618.56 375.246 618.56 375.246C618.56 375.246 621.183 364.767 613.32 358.868H601.203Z" fill="#47465A"/>
<path d="M604.457 356.575C602.749 358.683 600.34 359.47 597.822 359.615C592.096 359.887 585.791 356.575 585.791 356.575C590.046 352.974 579.243 321.201 579.243 321.201C570.402 316.946 571.057 307.445 571.057 307.445L573.951 255.877L574.675 242.926L583.846 237.357L591.077 242.903L597.932 248.166C598.378 249.839 598.667 251.551 598.789 253.278C599.582 265.314 590.069 268.145 590.069 268.145C590.069 268.145 594.001 280.263 590.399 291.396C586.798 302.53 593.022 312.355 593.022 312.355C593.022 312.355 604.815 346.414 602.864 348.383C600.913 350.351 604.457 356.575 604.457 356.575Z" fill="#565171"/>
<path opacity="0.05" d="M604.457 356.575C602.749 358.683 600.34 359.47 597.822 359.615C592.096 359.887 585.791 356.575 585.791 356.575C590.046 352.974 579.243 321.201 579.243 321.201C570.402 316.946 571.057 307.445 571.057 307.445L573.951 255.877L574.675 242.926L583.846 237.357L591.077 242.903L597.932 248.166C598.378 249.839 598.667 251.551 598.789 253.278C599.582 265.314 590.069 268.145 590.069 268.145C590.069 268.145 594.001 280.263 590.399 291.396C586.798 302.53 593.022 312.355 593.022 312.355C593.022 312.355 604.815 346.414 602.864 348.383C600.913 350.351 604.457 356.575 604.457 356.575Z" fill="black"/>
<path d="M615.92 360.506C610.35 367.384 597.254 360.506 597.254 360.506C597.521 360.264 597.723 359.957 597.833 359.615C600.236 353.084 589.728 321.861 589.728 321.861C580.887 317.606 579.886 307.451 579.886 307.451L577.57 254.968L577.269 248.171L591.048 242.909L595.28 241.293L609.366 252.103C609.974 254.334 610.281 256.638 610.269 258.952C610.09 269.529 601.504 272.082 601.504 272.082C601.504 272.082 605.435 284.2 601.834 295.333C598.233 306.466 604.457 316.291 604.457 316.291C604.457 316.291 616.25 350.351 614.299 352.32C612.348 354.288 615.92 360.506 615.92 360.506Z" fill="#565171"/>
<path opacity="0.1" d="M610.269 258.946C607.438 258.541 601.706 255.13 598.76 253.278C597.636 252.571 596.919 252.12 596.919 252.12C596.919 252.12 593.972 243.933 586.109 250.157C583.55 252.233 580.667 253.865 577.57 254.986C576.385 255.405 575.164 255.711 573.922 255.901L574.646 242.949L583.817 237.38L591.048 242.926L595.28 241.311L609.366 252.12C609.974 254.344 610.275 256.64 610.269 258.946Z" fill="black"/>
<path d="M627.997 196.118C626.839 203.146 624.326 217.591 621.484 230.154C617.552 247.523 613.297 243.58 611.329 247.841C609.36 252.103 610.999 257.996 610.999 257.996C607.722 258.326 596.913 251.118 596.913 251.118C596.913 251.118 593.966 242.932 586.104 249.156C578.241 255.379 572.018 255.049 572.018 255.049C570.379 244.24 582.497 215.42 582.497 215.42C582.497 215.42 594.29 193.148 596.907 190.201C598.123 188.757 598.985 187.053 599.437 185.222C599.64 184.492 599.779 183.746 599.854 182.993C604.109 182.663 614.594 175.466 614.594 175.466L622.781 174.158V178.413C622.873 178.456 622.966 178.51 623.047 178.575C624.396 179.606 626.092 183.977 627.267 187.422C628.223 190.216 628.472 193.203 627.997 196.118Z" fill="#F68080"/>
<path opacity="0.1" d="M621.466 182.668C621.466 182.668 612.95 175.79 600.178 198.063C587.406 220.335 584.459 216.728 584.459 216.728C584.459 216.728 587.082 226.571 585.768 228.522C585.768 228.522 594.609 227.867 597.885 228.522C601.162 229.176 621.466 203.644 621.466 203.644C621.466 203.644 631.969 189.216 621.466 182.668Z" fill="black"/>
<path opacity="0.1" d="M621.159 181.354C621.159 181.354 612.643 174.476 599.871 196.749C587.099 219.021 584.153 215.414 584.153 215.414C584.153 215.414 594.307 226.547 597.579 227.207C600.85 227.867 621.159 202.312 621.159 202.312C621.159 202.312 631.639 187.908 621.159 181.354Z" fill="black"/>
<path opacity="0.1" d="M585.484 226.391C585.617 223.965 584.703 219.698 584.176 217.487C586.167 217.226 587.424 217.053 587.424 217.053L589.739 226.895L585.484 226.391Z" fill="black"/>
<path opacity="0.1" d="M619.191 160.726L603.472 169.897C604.132 170.863 604.746 171.865 605.302 172.896C606.211 173.08 607.131 173.174 608.058 173.174C612.255 173.174 614.212 168.768 616.742 165.803C616.563 163.424 618.49 163.36 619.191 160.726Z" fill="black"/>
<path d="M607.733 172.513C615.329 172.513 621.489 166.355 621.489 158.758C621.489 151.16 615.329 145.002 607.733 145.002C600.137 145.002 593.977 151.16 593.977 158.758C593.977 166.355 600.137 172.513 607.733 172.513Z" fill="#FDC2CC"/>
<path d="M586.474 174.436H475.691V257.921H586.474V174.436Z" fill="url(#paint8_linear_1_5)"/>
<path d="M583.99 176.306H478.175V256.051H583.99V176.306Z" fill="white"/>
<path opacity="0.2" d="M523.796 183.207H488.526V203.14H523.796V183.207Z" fill="#EF5B59"/>
<path d="M573.639 183.207H532.232V187.81H573.639V183.207Z" fill="#E6E8EC"/>
<path d="M561.371 190.878H532.232V195.481H561.371V190.878Z" fill="#E6E8EC"/>
<path d="M573.639 198.543H532.232V203.146H573.639V198.543Z" fill="#E6E8EC"/>
<path d="M573.639 206.209H488.526V210.811H573.639V206.209Z" fill="#E6E8EC"/>
<path d="M573.639 213.88H488.526V218.483H573.639V213.88Z" fill="#E6E8EC"/>
<path d="M573.639 221.545H488.526V226.148H573.639V221.545Z" fill="#E6E8EC"/>
<path d="M566.738 229.216H488.526V233.819H566.738V229.216Z" fill="#E6E8EC"/>
<path d="M573.639 236.882H488.526V241.485H573.639V236.882Z" fill="#E6E8EC"/>
<path d="M573.639 244.547H488.526V249.15H573.639V244.547Z" fill="#E6E8EC"/>
<path opacity="0.1" d="M590.33 147.63C591.72 146.206 593.52 145.26 595.483 144.926C597.393 144.515 599.489 144.388 601.018 143.189C602.754 141.806 603.519 139.177 605.649 138.593C606.576 138.406 607.537 138.482 608.422 138.813C611.827 139.839 614.849 141.854 617.107 144.602C617.639 145.389 618.317 146.067 619.104 146.599C619.573 146.799 620.036 147.023 620.482 147.271C620.974 147.658 621.356 148.162 621.605 148.736C623.139 151.837 623.493 155.391 622.601 158.734C622.068 160.709 621.107 162.538 620.54 164.524C619.973 166.51 619.828 168.716 620.87 170.47C619.863 170.985 618.589 170.337 617.975 169.399C617.361 168.461 617.153 167.303 616.817 166.22C616.163 164.09 614.936 162.182 613.268 160.703C612.238 159.788 610.374 159.174 609.673 160.355C609.395 160.813 609.412 161.392 609.175 161.867C608.706 162.793 607.351 162.978 606.454 162.445C605.591 161.848 604.983 160.947 604.752 159.921C603.403 155.359 601.104 152.487 596.224 154.439C594.406 155.168 592.264 155.66 590.515 154.41C588.234 152.76 588.68 149.494 590.33 147.63Z" fill="black"/>
<path d="M590.33 147.3C591.72 145.877 593.52 144.93 595.483 144.596C597.393 144.185 599.489 144.058 601.018 142.859C602.754 141.476 603.519 138.847 605.649 138.263C606.576 138.077 607.537 138.153 608.422 138.483C611.827 139.51 614.849 141.525 617.107 144.272C617.639 145.059 618.317 145.737 619.104 146.269C619.573 146.469 620.036 146.693 620.482 146.941C620.974 147.328 621.356 147.831 621.605 148.406C623.139 151.507 623.493 155.061 622.601 158.404C622.068 160.379 621.107 162.208 620.54 164.194C619.973 166.18 619.828 168.386 620.87 170.14C619.863 170.655 618.589 170.007 617.975 169.069C617.361 168.131 617.153 166.973 616.817 165.89C616.163 163.761 614.936 161.852 613.268 160.373C612.238 159.458 610.374 158.844 609.673 160.025C609.395 160.483 609.412 161.062 609.175 161.537C608.706 162.463 607.351 162.648 606.454 162.115C605.591 161.519 604.983 160.617 604.752 159.591C603.403 155.029 601.104 152.157 596.224 154.109C594.406 154.838 592.264 155.33 590.515 154.08C588.234 152.43 588.68 149.17 590.33 147.3Z" fill="#B96B6B"/>
<path opacity="0.05" d="M623.064 178.575H616.406C616.406 178.575 603.304 185.123 602.98 184.799C602.76 184.579 600.734 184.955 599.449 185.227C599.651 184.497 599.79 183.752 599.865 182.998C604.121 182.668 614.606 175.472 614.606 175.472L622.792 174.164V178.419C622.89 178.459 622.983 178.512 623.064 178.575Z" fill="black"/>
<path opacity="0.3" d="M618.948 370.713C618.93 371.907 618.791 373.096 618.537 374.262C618.537 374.262 591.326 376.225 582.838 375.571C578.745 375.258 577.002 373.73 576.69 372.265C576.319 373.944 577.801 376.167 582.838 376.555C591.355 377.209 618.537 375.246 618.537 375.246C618.855 373.757 618.994 372.235 618.948 370.713Z" fill="white"/>
<g opacity="0.05">
<path opacity="0.05" d="M583 248.803C578.583 252.276 574.675 253.729 572.11 254.308C572.11 254.552 572.157 254.795 572.191 255.026C572.191 255.026 578.415 255.356 586.277 249.133C587.493 248.089 588.935 247.337 590.486 246.933C588.773 246.139 586.324 246.191 583 248.803Z" fill="black"/>
<path opacity="0.05" d="M627.453 187.433C626.295 183.959 624.558 179.617 623.232 178.587C623.151 178.522 623.058 178.468 622.966 178.425C622.966 178.425 620.256 178.517 620.343 178.587C621.692 179.617 623.001 183.658 624.176 187.103C625.125 189.896 625.368 192.878 624.888 195.788C623.73 202.816 621.217 217.261 618.375 229.824C614.444 247.193 610.188 243.25 608.22 247.511C606.61 250.985 607.415 255.582 607.762 257.128C609.164 257.707 610.379 258.072 611.167 257.991C611.167 257.991 609.528 252.097 611.497 247.836C613.465 243.575 617.72 247.506 621.652 230.149C624.494 217.591 626.995 203.14 628.165 196.112C628.645 193.204 628.396 190.224 627.453 187.433Z" fill="black"/>
</g>
<path d="M589.716 226.883L585.484 226.391L553.063 222.622C533.413 216.398 545.855 206.904 545.855 206.904L558.956 219.351C562.737 220.109 577.558 218.344 584.199 217.493C586.19 217.232 587.447 217.058 587.447 217.058L589.716 226.883Z" fill="#FDC2CC"/>
<path d="M621.466 182.014C621.466 182.014 612.95 175.136 600.178 197.409C587.406 219.681 584.459 216.074 584.459 216.074C584.459 216.074 587.082 225.916 585.768 227.867C585.768 227.867 594.609 227.213 597.885 227.867C601.162 228.522 621.466 202.972 621.466 202.972C621.466 202.972 631.969 188.562 621.466 182.014Z" fill="#F68080"/>
</g>
<defs>
<linearGradient id="paint0_linear_1_5" x1="365.325" y1="346.275" x2="365.325" y2="65.8409" gradientUnits="userSpaceOnUse">
<stop stop-color="#808080" stop-opacity="0.25"/>
<stop offset="0.54" stop-color="#808080" stop-opacity="0.12"/>
<stop offset="1" stop-color="#808080" stop-opacity="0.1"/>
</linearGradient>
<linearGradient id="paint1_linear_1_5" x1="69185.2" y1="192876" x2="69185.2" y2="79587.2" gradientUnits="userSpaceOnUse">
<stop stop-color="#808080" stop-opacity="0.25"/>
<stop offset="0.54" stop-color="#808080" stop-opacity="0.12"/>
<stop offset="1" stop-color="#808080" stop-opacity="0.1"/>
</linearGradient>
<linearGradient id="paint2_linear_1_5" x1="21265.2" y1="157984" x2="21265.2" y2="88805.4" gradientUnits="userSpaceOnUse">
<stop stop-color="#808080" stop-opacity="0.25"/>
<stop offset="0.54" stop-color="#808080" stop-opacity="0.12"/>
<stop offset="1" stop-color="#808080" stop-opacity="0.1"/>
</linearGradient>
<linearGradient id="paint3_linear_1_5" x1="74014.3" y1="89599.7" x2="74014.3" y2="68011" gradientUnits="userSpaceOnUse">
<stop stop-color="#808080" stop-opacity="0.25"/>
<stop offset="0.54" stop-color="#808080" stop-opacity="0.12"/>
<stop offset="1" stop-color="#808080" stop-opacity="0.1"/>
</linearGradient>
<linearGradient id="paint4_linear_1_5" x1="20357.3" y1="25165.3" x2="25142.1" y2="25165.3" gradientUnits="userSpaceOnUse">
<stop stop-color="#808080" stop-opacity="0.25"/>
<stop offset="0.54" stop-color="#808080" stop-opacity="0.12"/>
<stop offset="1" stop-color="#808080" stop-opacity="0.1"/>
</linearGradient>
<linearGradient id="paint5_linear_1_5" x1="-64964.6" y1="209962" x2="-64964.6" y2="103413" gradientUnits="userSpaceOnUse">
<stop stop-color="#808080" stop-opacity="0.25"/>
<stop offset="0.54" stop-color="#808080" stop-opacity="0.12"/>
<stop offset="1" stop-color="#808080" stop-opacity="0.1"/>
</linearGradient>
<linearGradient id="paint6_linear_1_5" x1="12442.3" y1="23859.3" x2="12442.3" y2="20251.5" gradientUnits="userSpaceOnUse">
<stop stop-color="#808080" stop-opacity="0.25"/>
<stop offset="0.54" stop-color="#808080" stop-opacity="0.12"/>
<stop offset="1" stop-color="#808080" stop-opacity="0.1"/>
</linearGradient>
<linearGradient id="paint7_linear_1_5" x1="100590" y1="172000" x2="100590" y2="70268.4" gradientUnits="userSpaceOnUse">
<stop stop-color="#808080" stop-opacity="0.25"/>
<stop offset="0.54" stop-color="#808080" stop-opacity="0.12"/>
<stop offset="1" stop-color="#808080" stop-opacity="0.1"/>
</linearGradient>
<linearGradient id="paint8_linear_1_5" x1="102097" y1="37294.6" x2="102097" y2="25255.9" gradientUnits="userSpaceOnUse">
<stop stop-color="#808080" stop-opacity="0.25"/>
<stop offset="0.54" stop-color="#808080" stop-opacity="0.12"/>
<stop offset="1" stop-color="#808080" stop-opacity="0.1"/>
</linearGradient>
<clipPath id="clip0_1_5">
<rect width="629.325" height="457.375" fill="white" transform="translate(0.00946045 0.5)"/>
</clipPath>
</defs>
</svg>
